<?xml version="1.0" encoding="UTF-8"?>
<svg viewBox="0 0 631 561" xmlns="http://www.w3.org/2000/svg">
<defs>
<style>.cls-66{opacity:.4}.cls-5{fill:#e2e2e2}.cls-108,.cls-110,.cls-113,.cls-115,.cls-49,.cls-50,.cls-51,.cls-55{stroke-linecap:round}.cls-108,.cls-110,.cls-113,.cls-115,.cls-31,.cls-38,.cls-49,.cls-50,.cls-51,.cls-55{stroke-miterlimit:10;fill:none}.cls-8{opacity:.33}.cls-10{fill:#848484}.cls-14{fill:#b9b9b9}.cls-15{opacity:.5}.cls-16{fill:#d7d7d7}.cls-17{fill:#d1d1d1}.cls-18{fill:#cfcfcf}.cls-19{fill:#c3c3c3}.cls-20{fill:#d6d6d6}.cls-21{fill:#aeaeae}.cls-22{fill:#9a9a9a}.cls-25{fill:#a7a7a7}.cls-26{fill:#9c9c9c}.cls-27{fill:#c7c7c7}.cls-28{fill:#d2d2d2}.cls-29{fill:#c1c1c1}.cls-31{stroke:#e6e6e6}.cls-32{fill:#dbdbdb}.cls-33{fill:#cacaca}.cls-34{fill:#b3b3b3}.cls-38{stroke:#e7e7e7}.cls-39{fill:#cecece}.cls-41{fill:#cdcdcd}.cls-43{fill:silver}.cls-44{fill:#cbcbcb}.cls-46{fill:#b8b8b8}.cls-47{fill:#c4c4c4}.cls-48{fill:#00203a}.cls-49{stroke:#00203a}.cls-49,.cls-55{stroke-width:1.095px}.cls-108,.cls-113,.cls-50,.cls-51{stroke:#fff}.cls-50,.cls-51{stroke-width:.274px}.cls-51{stroke-dasharray:1.093 1.093}.cls-52{fill:#f7f8fb}.cls-53{fill:#d5ddea}.cls-54{fill:#52151d}.cls-110,.cls-115,.cls-55{stroke:#f7f8fb}.cls-56{fill:#6f6b7f}.cls-57{fill:#a7a0bf}.cls-58{fill:#ead6c1}.cls-59{fill:#d7f2e0}.cls-60{fill:#88d8a3}.cls-62{fill:#4e3f2e}.cls-65{fill:#7d5932}.cls-66{fill:#5e4326}.cls-67{fill:#008470}.cls-68{fill:#66cfbf}.cls-73{fill:#3a3228}.cls-74{fill:#2f3b43}.cls-75{fill:#3f4f59}.cls-76{fill:#25353f}.cls-77{fill:#2b3e4a}.cls-78{fill:#2e434f}.cls-79{fill:#385261}.cls-80{fill:#334957}.cls-81{fill:#34424a}.cls-82{fill:#4e626e}.cls-83{fill:#536875}.cls-84{fill:#324a57}.cls-85{fill:#3a5463}.cls-86{fill:#bf874b}.cls-87{fill:#ccc56c}.cls-88{fill:#d6af84}.cls-89{fill:#e9c6a1}.cls-90{fill:#631700}.cls-95{fill:#d1d5d7}.cls-96{fill:#868b8e}.cls-97{fill:#abbcd5}.cls-98{fill:#e4ebf4}.cls-101{fill:#bdc9dd}.cls-103{fill:#264a80}.cls-104{fill:#e0b689}.cls-110{stroke-width:1.025px}.cls-108{stroke-width:.256px}.cls-113{stroke-width:.25px}.cls-116{fill:#1f2d36}.cls-118{fill:#38474f}.cls-119{fill:#19252b}.cls-120{fill:#0e161a}</style>
</defs>
<g transform="translate(0 12)" data-name="Group 177">
<g transform="translate(0 -12)" data-name="Group 39">
<g transform="translate(302 39)" data-name="Group 13">
<path d="m87 4a4 4 0 1 0-3 4 4 4 0 0 0 3-4z" fill="#e2e2e2" stroke="#e2e2e2" stroke-linecap="round" stroke-miterlimit="10" stroke-width="4" data-name="Path 5"/>
<path d="M30 50L83 5l57 45" fill="none" stroke="#e2e2e2" stroke-linecap="round" stroke-miterlimit="10" stroke-width="4" data-name="Path 6"/>
<path class="cls-5" transform="translate(75 264)" d="M0 0h19v122H0z" data-name="Rectangle 7"/>
<g transform="translate(0 371)" data-name="Group 10">
<path class="cls-5" transform="translate(-218 -284)" d="m224 338a6 6 0 0 1-5-3 6 6 0 0 1 3-8l82-43 81 43a6 6 0 0 1-6 11l-75-40-77 40a6 6 0 0 1-3 0z" data-name="Path 7"/>
</g>
<path transform="translate(-217 -2)" d="M368 267H235a13 13 0 0 1-13-14V65a13 13 0 0 1 13-14h133a13 13 0 0 1 13 14v188a13 13 0 0 1-13 14z" fill="#e1e1e1" data-name="Path 8"/>
<path transform="translate(-214 1)" d="M359 253H240a12 12 0 0 1-12-12V71a12 12 0 0 1 12-12h119a12 12 0 0 1 12 12v170a12 12 0 0 1-12 12z" fill="#f3f3f3" data-name="Path 9"/>
<g class="cls-8" transform="translate(25 74)" data-name="Group 11">
<path transform="translate(-224 -66)" d="m284 97a27 27 0 0 0-6-18l-10 9a14 14 0 0 1 3 9 14 14 0 0 1-4 10l9 9a26 26 0 0 0 8-19z" fill="#acacac" data-name="Path 10"/>
<path class="cls-10" transform="translate(-235 -58)" d="m250 100-11 7a27 27 0 0 0 11 9l5-12a13 13 0 0 1-5-4z" data-name="Path 11"/>
<path class="cls-10" transform="translate(-225 -69)" d="m269 87 10-9a30 30 0 0 0-9-7l-6 12a18 18 0 0 1 5 4z" data-name="Path 12"/>
<path transform="translate(-231 -58)" d="m261 105a14 14 0 0 1-6-2l-6 12a27 27 0 0 0 12 3 28 28 0 0 0 19-8l-9-10a15 15 0 0 1-10 5z" fill="#5a5a5a" data-name="Path 13"/>
<path transform="translate(-231 -70)" d="m261 83a14 14 0 0 1 6 1l5-12a27 27 0 0 0-22 0l5 12a14 14 0 0 1 6-1z" fill="#a5a5a5" data-name="Path 14"/>
<path transform="translate(-236 -69)" d="m249 97a14 14 0 0 1 9-13l-5-12a27 27 0 0 0-12 41l11-7a15 15 0 0 1-3-9z" fill="#dadada" data-name="Path 15"/>
</g>
<g class="cls-8" transform="translate(41 126)" data-name="Group 12">
<path class="cls-14" transform="translate(-248 -95)" d="m252 165h-2a2 2 0 0 1-2-2v-22a2 2 0 0 1 2-1h2a2 2 0 0 1 2 1v22a2 2 0 0 1-2 2z" data-name="Path 16"/>
<path class="cls-14" transform="translate(-224 -93)" d="m316 163h-2a2 2 0 0 1-2-2v-15a2 2 0 0 1 2-1h2a2 2 0 0 1 2 1v15a2 2 0 0 1-2 2z" data-name="Path 17"/>
<path class="cls-14" transform="translate(-246 -98)" d="m259 168h-3a2 2 0 0 1-1-2v-33a2 2 0 0 1 1-1h3a2 2 0 0 1 2 1v33a2 2 0 0 1-2 2z" data-name="Path 18"/>
<path class="cls-14" transform="translate(-226 -98)" d="m310 168h-3a2 2 0 0 1-1-2v-33a2 2 0 0 1 1-1h3a2 2 0 0 1 2 1v33a2 2 0 0 1-2 2z" data-name="Path 19"/>
<path class="cls-14" transform="translate(-243 -99)" d="m268 169h-5a2 2 0 0 1-2-1v-38a2 2 0 0 1 2-2h4a2 2 0 0 1 2 2v38a2 2 0 0 1-2 1z" data-name="Path 20"/>
<path class="cls-14" transform="translate(-233 -99)" d="m294 169h-5a2 2 0 0 1-1-1v-38a2 2 0 0 1 1-2h5a2 2 0 0 1 2 2v38a2 2 0 0 1-2 1z" data-name="Path 21"/>
<path class="cls-14" transform="translate(-237 -99)" d="m285 169h-5a2 2 0 0 1-2-1v-38a2 2 0 0 1 2-2h5a2 2 0 0 1 1 2v38a2 2 0 0 1-1 1z" data-name="Path 22"/>
<path class="cls-14" transform="translate(-240 -101)" d="m277 171h-6a2 2 0 0 1-2-2v-43a2 2 0 0 1 2-1h6a2 2 0 0 1 2 1v43a2 2 0 0 1-2 2z" data-name="Path 23"/>
<path class="cls-14" transform="translate(-230 -107)" d="m304 177h-6a2 2 0 0 1-1-2v-66a2 2 0 0 1 1-2h6a2 2 0 0 1 2 2v66a2 2 0 0 1-2 2z" data-name="Path 24"/>
</g>
</g>
<g class="cls-15" transform="translate(0 217)" data-name="Group 18">
<path class="cls-16" transform="translate(0 -145)" d="M113 392H9a9 9 0 0 1-9-8V154a9 9 0 0 1 9-9h104a9 9 0 0 1 9 9v230a8 8 0 0 1-9 8z" data-name="Path 25"/>
<path class="cls-17" transform="translate(0 -145)" d="M115 145a7 7 0 0 1 0 3v230a9 9 0 0 1-8 8H0a9 9 0 0 0 9 6h104a9 9 0 0 0 9-8V154a9 9 0 0 0-7-9z" data-name="Path 26"/>
<g transform="translate(10 16)" data-name="Group 15">
<g data-name="Group 14">
<path class="cls-18" transform="translate(-7 -157)" d="M100 197H16a8 8 0 0 1-9-8v-24a8 8 0 0 1 9-8h84a8 8 0 0 1 9 8v24a8 8 0 0 1-9 8z" data-name="Path 27"/>
<path class="cls-18" transform="translate(-7 -141)" d="M100 239H16a8 8 0 0 1-9-9v-23a8 8 0 0 1 9-8h84a8 8 0 0 1 9 8v23a8 8 0 0 1-9 9z" data-name="Path 28"/>
<path class="cls-18" transform="translate(-7 -125)" d="M100 280H16a8 8 0 0 1-9-8v-24a8 8 0 0 1 9-8h84a8 8 0 0 1 9 8v24a8 8 0 0 1-9 8z" data-name="Path 29"/>
<path class="cls-18" transform="translate(-7 -110)" d="M100 322H16a8 8 0 0 1-9-9v-23a8 8 0 0 1 9-9h84a8 8 0 0 1 9 9v23a8 8 0 0 1-9 9z" data-name="Path 30"/>
</g>
<path class="cls-19" transform="translate(-7 -157)" d="M101 157a8 8 0 0 1 1 4v24a8 8 0 0 1-8 8H8a8 8 0 0 0 7 4h85a8 8 0 0 0 8-8v-24a8 8 0 0 0-7-8z" data-name="Path 31"/>
<path class="cls-19" transform="translate(-7 -141)" d="M101 199a8 8 0 0 1 1 4v23a8 8 0 0 1-8 9H8a8 8 0 0 0 7 4h85a8 8 0 0 0 8-9v-23a8 8 0 0 0-7-8z" data-name="Path 32"/>
<path class="cls-19" transform="translate(-7 -125)" d="M101 240a8 8 0 0 1 1 4v24a8 8 0 0 1-8 8H8a8 8 0 0 0 7 4h85a8 8 0 0 0 8-8v-24a8 8 0 0 0-7-8z" data-name="Path 33"/>
<path class="cls-19" transform="translate(-7 -110)" d="M101 281a8 8 0 0 1 1 4v24a8 8 0 0 1-8 8H8a8 8 0 0 0 7 5h85a8 8 0 0 0 8-9v-23a8 8 0 0 0-7-9z" data-name="Path 34"/>
</g>
<path class="cls-20" transform="translate(5 -139)" d="M88 187H19a7 7 0 0 1-7-7v-12a7 7 0 0 1 7-7h69a7 7 0 0 1 7 7v12a7 7 0 0 1-7 7z" data-name="Path 35"/>
<path class="cls-20" transform="translate(5 -124)" d="M88 228H19a7 7 0 0 1-7-7v-12a7 7 0 0 1 7-7h69a7 7 0 0 1 7 7v12a7 7 0 0 1-7 7z" data-name="Path 36"/>
<path class="cls-20" transform="translate(5 -108)" d="M88 270H19a7 7 0 0 1-7-8v-12a7 7 0 0 1 7-7h69a7 7 0 0 1 7 7v12a7 7 0 0 1-7 8z" data-name="Path 37"/>
<path class="cls-20" transform="translate(5 -92)" d="M88 311H19a7 7 0 0 1-7-7v-12a7 7 0 0 1 7-7h69a7 7 0 0 1 7 7v12a7 7 0 0 1-7 7z" data-name="Path 38"/>
<g transform="translate(54 30)" data-name="Group 17">
<g data-name="Group 16">
<circle class="cls-21" cx="6" cy="6" r="6" data-name="Ellipse 2"/>
<path class="cls-21" transform="translate(-39 -151)" d="m52 215a6 6 0 1 0-6 6 6 6 0 0 0 6-6z" data-name="Path 39"/>
<path class="cls-21" transform="translate(-39 -135)" d="m52 256a6 6 0 1 0-6 7 6 6 0 0 0 6-7z" data-name="Path 40"/>
<path class="cls-21" transform="translate(-39 -119)" d="m52 298a6 6 0 1 0-6 6 6 6 0 0 0 6-6z" data-name="Path 41"/>
</g>
<path class="cls-22" transform="translate(-39 -167)" d="m48 167a6 6 0 0 1 1 4 6 6 0 0 1-6 6 8 8 0 0 1-3 0 6 6 0 0 0 5 3 6 6 0 0 0 7-7 6 6 0 0 0-4-6z" data-name="Path 42"/>
<path class="cls-22" transform="translate(-39 -151)" d="m48 209a6 6 0 0 1 1 4 6 6 0 0 1-6 6 8 8 0 0 1-3-1 6 6 0 0 0 5 3 6 6 0 0 0 7-6 6 6 0 0 0-4-6z" data-name="Path 43"/>
<path class="cls-22" transform="translate(-39 -135)" d="m48 250a6 6 0 0 1 1 4 6 6 0 0 1-6 6 8 8 0 0 1-3 0 6 6 0 0 0 5 2 6 6 0 0 0 7-6 6 6 0 0 0-4-6z" data-name="Path 44"/>
<path class="cls-22" transform="translate(-39 -119)" d="m48 292a6 6 0 0 1 1 3 6 6 0 0 1-6 7 8 8 0 0 1-3-1 6 6 0 0 0 5 3 6 6 0 0 0 7-7 6 6 0 0 0-4-5z" data-name="Path 45"/>
</g>
</g>
<g class="cls-15" transform="translate(510 217)" data-name="Group 23">
<path class="cls-16" transform="translate(-368 -145)" d="M481 392H377a9 9 0 0 1-9-8V154a9 9 0 0 1 9-9h104a9 9 0 0 1 9 9v230a8 8 0 0 1-9 8z" data-name="Path 46"/>
<path class="cls-17" transform="translate(-368 -145)" d="M483 145a7 7 0 0 1 1 3v230a9 9 0 0 1-9 8H369a9 9 0 0 0 8 6h105a9 9 0 0 0 8-8V154a9 9 0 0 0-7-9z" data-name="Path 47"/>
<g transform="translate(10 16)" data-name="Group 20">
<g data-name="Group 19">
<path class="cls-18" transform="translate(-376 -157)" d="m469 197h-85a8 8 0 0 1-8-8v-24a8 8 0 0 1 8-8h85a8 8 0 0 1 8 8v24a8 8 0 0 1-8 8z" data-name="Path 48"/>
<path class="cls-18" transform="translate(-376 -141)" d="m469 239h-85a8 8 0 0 1-8-9v-23a8 8 0 0 1 8-8h85a8 8 0 0 1 8 8v23a8 8 0 0 1-8 9z" data-name="Path 49"/>
<path class="cls-18" transform="translate(-376 -125)" d="m469 280h-85a8 8 0 0 1-8-8v-24a8 8 0 0 1 8-8h85a8 8 0 0 1 8 8v24a8 8 0 0 1-8 8z" data-name="Path 50"/>
<path class="cls-18" transform="translate(-376 -110)" d="m469 322h-85a8 8 0 0 1-8-9v-23a8 8 0 0 1 8-9h85a8 8 0 0 1 8 9v23a8 8 0 0 1-8 9z" data-name="Path 51"/>
</g>
<path class="cls-19" transform="translate(-375 -157)" d="m469 157a8 8 0 0 1 1 4v24a8 8 0 0 1-8 8h-85a8 8 0 0 0 7 4h85a8 8 0 0 0 8-8v-24a8 8 0 0 0-8-8z" data-name="Path 52"/>
<path class="cls-19" transform="translate(-375 -141)" d="m469 199a8 8 0 0 1 1 4v23a8 8 0 0 1-8 9h-85a8 8 0 0 0 7 4h85a8 8 0 0 0 8-9v-23a8 8 0 0 0-8-8z" data-name="Path 53"/>
<path class="cls-19" transform="translate(-375 -125)" d="m469 240a8 8 0 0 1 1 4v24a8 8 0 0 1-8 8h-85a8 8 0 0 0 7 4h85a8 8 0 0 0 8-8v-24a8 8 0 0 0-8-8z" data-name="Path 54"/>
<path class="cls-19" transform="translate(-375 -110)" d="m469 281a8 8 0 0 1 1 4v24a8 8 0 0 1-8 8h-85a8 8 0 0 0 7 5h85a8 8 0 0 0 8-9v-23a8 8 0 0 0-8-9z" data-name="Path 55"/>
</g>
<path class="cls-20" transform="translate(-364 -139)" d="m457 187h-69a7 7 0 0 1-7-7v-12a7 7 0 0 1 7-7h69a7 7 0 0 1 7 7v12a7 7 0 0 1-7 7z" data-name="Path 56"/>
<path class="cls-20" transform="translate(-364 -124)" d="m457 228h-69a7 7 0 0 1-7-7v-12a7 7 0 0 1 7-7h69a7 7 0 0 1 7 7v12a7 7 0 0 1-7 7z" data-name="Path 57"/>
<path class="cls-20" transform="translate(-364 -108)" d="m457 270h-69a7 7 0 0 1-7-8v-12a7 7 0 0 1 7-7h69a7 7 0 0 1 7 7v12a7 7 0 0 1-7 8z" data-name="Path 58"/>
<path class="cls-20" transform="translate(-364 -92)" d="m457 311h-69a7 7 0 0 1-7-7v-12a7 7 0 0 1 7-7h69a7 7 0 0 1 7 7v12a7 7 0 0 1-7 7z" data-name="Path 59"/>
<g transform="translate(54 30)" data-name="Group 22">
<g data-name="Group 21">
<circle class="cls-21" cx="6" cy="6" r="6" data-name="Ellipse 3"/>
<path class="cls-21" transform="translate(-408 -151)" d="m421 215a6 6 0 0 0-7-7 6 6 0 0 0-6 7 6 6 0 1 0 13 0z" data-name="Path 60"/>
<path class="cls-21" transform="translate(-408 -135)" d="m421 256a6 6 0 1 0-7 7 6 6 0 0 0 7-7z" data-name="Path 61"/>
<path class="cls-21" transform="translate(-408 -119)" d="m421 298a6 6 0 1 0-7 6 6 6 0 0 0 7-6z" data-name="Path 62"/>
</g>
<path class="cls-22" transform="translate(-408 -167)" d="m417 167a6 6 0 0 1 1 4 6 6 0 0 1-7 6 8 8 0 0 1-2 0 6 6 0 0 0 5 3 6 6 0 0 0 6-7 6 6 0 0 0-3-6z" data-name="Path 63"/>
<path class="cls-22" transform="translate(-408 -151)" d="m417 209a6 6 0 0 1 1 4 6 6 0 0 1-7 6 8 8 0 0 1-2-1 6 6 0 0 0 5 3 6 6 0 0 0 6-6 6 6 0 0 0-3-6z" data-name="Path 64"/>
<path class="cls-22" transform="translate(-408 -135)" d="m417 250a6 6 0 0 1 1 4 6 6 0 0 1-7 6 8 8 0 0 1-2 0 6 6 0 0 0 5 2 6 6 0 0 0 6-6 6 6 0 0 0-3-6z" data-name="Path 65"/>
<path class="cls-22" transform="translate(-408 -119)" d="m417 292a6 6 0 0 1 1 3 6 6 0 0 1-7 7 8 8 0 0 1-2-1 6 6 0 0 0 5 3 6 6 0 0 0 6-7 6 6 0 0 0-3-5z" data-name="Path 66"/>
</g>
</g>
<g class="cls-15" transform="translate(497)" data-name="Group 26">
<circle transform="rotate(-54 66 34)" cx="42" cy="42" r="42" fill="#c8c8c8" data-name="Ellipse 4"/>
<circle transform="rotate(-45 75 19)" cx="36" cy="36" r="36" fill="#fff" data-name="Ellipse 5"/>
<ellipse class="cls-10" transform="translate(56 20)" cx="2" cy="7" rx="2" ry="7" data-name="Ellipse 6"/>
<ellipse class="cls-10" transform="translate(56 84)" cx="2" cy="7" rx="2" ry="7" data-name="Ellipse 7"/>
<path class="cls-10" transform="translate(-336 28)" d="m426 34c-3 0-7-1-7-3s4-2 7-2 7 1 7 2-3 3-7 3z" data-name="Path 67"/>
<path class="cls-10" transform="translate(-354 28)" d="m380 34c-3 0-7-1-7-3s4-2 7-2 7 1 7 2-3 3-7 3z" data-name="Path 68"/>
<path class="cls-10" transform="translate(-338 21)" d="m421 18c-3 2-6 4-7 3s1-4 3-7c3-3 6-4 7-3s0 4-3 7z" data-name="Path 69"/>
<path class="cls-10" transform="translate(-351 33)" d="m388 50c-2 3-5 4-6 3s0-4 3-7c3-2 5-4 6-3 2 1 0 4-3 7z" data-name="Path 70"/>
<path class="cls-10" transform="translate(-338 33)" d="m417 50c-2-3-4-6-3-7s4 1 7 3c3 3 4 6 3 7s-4 0-7-3z" data-name="Path 71"/>
<path class="cls-10" transform="translate(-351 21)" d="m385 18c-3-3-4-6-3-7s4 0 6 3c3 3 5 6 3 7l-6-3z" data-name="Path 72"/>
<path class="cls-10" transform="translate(-344 27)" d="m407 31a4 4 0 1 0-4 4 4 4 0 0 0 4-4z" data-name="Path 73"/>
<g transform="translate(57 45)" data-name="Group 24">
<path class="cls-10" transform="translate(-400 -21)" d="m400 33 17-12-15 14z" data-name="Path 74"/>
</g>
<g transform="translate(48 50)" data-name="Group 25">
<path class="cls-10" transform="translate(-394 -24)" d="m394 24 10 8-1 2z" data-name="Path 75"/>
</g>
</g>
<g class="cls-15" transform="translate(71 27)" data-name="Group 28">
<path class="cls-25" transform="translate(-52 10)" d="M207 65H58a6 6 0 0 1-6-6 6 6 0 0 1 6-6h149a6 6 0 0 1 6 6 6 6 0 0 1-6 6z" data-name="Path 76"/>
<g data-name="Group 27">
<path class="cls-25" transform="translate(-52 10)" d="M207 65H58a6 6 0 0 1-6-6 6 6 0 0 1 6-6h149a6 6 0 0 1 6 6 6 6 0 0 1-6 6z" data-name="Path 77"/>
<path class="cls-26" transform="translate(-44 10)" d="M163 59H78a7 7 0 0 1-7-6h99a7 7 0 0 1-7 6z" data-name="Path 78"/>
<path class="cls-27" transform="translate(-43 -7)" d="M89 71H78a4 4 0 0 1-4-4V12a4 4 0 0 1 4-4h11a4 4 0 0 1 4 4v55a4 4 0 0 1-4 4z" data-name="Path 79"/>
<path class="cls-28" transform="translate(-29 -7)" d="M127 71h-12a4 4 0 0 1-4-4V12a4 4 0 0 1 4-4h12a4 4 0 0 1 4 4v55a4 4 0 0 1-4 4z" data-name="Path 80"/>
<path class="cls-29" transform="translate(-24 -7)" d="M141 71h-12a4 4 0 0 1-4-4V12a4 4 0 0 1 4-4h12a4 4 0 0 1 4 4v55a4 4 0 0 1-4 4z" data-name="Path 81"/>
<path class="cls-28" transform="translate(-38 -7)" d="m115 69-11 2a4 4 0 0 1-5-3l-11-54a4 4 0 0 1 3-4l11-3a4 4 0 0 1 5 4l11 53a4 4 0 0 1-3 5z" data-name="Path 82"/>
<path transform="translate(-42 -7)" d="m87 71h-9a300 300 0 0 1 0-63h9a369 369 0 0 1 0 63z" fill="#f4f4f4" data-name="Path 83"/>
<path class="cls-31" transform="translate(37 1)" d="m0 0v63" data-name="Line 3"/>
<path class="cls-31" transform="translate(41 1)" d="m0 0v63" data-name="Line 4"/>
<path class="cls-31" transform="translate(43 1)" d="m0 0v63" data-name="Line 5"/>
<circle class="cls-32" transform="translate(56 6)" cx="4" cy="4" r="4" data-name="Ellipse 8"/>
<path class="cls-32" transform="translate(-37 -3)" d="m90 23 19-4 1 6-19 4z" data-name="Path 84"/>
<path class="cls-33" transform="translate(-36 2)" d="m93 36 19-4 1 7-19 4z" data-name="Path 85"/>
<path class="cls-33" transform="translate(87 1)" d="M0 0h4v63H0z" data-name="Rectangle 8"/>
<path class="cls-34" transform="translate(-22 7)" d="m133 46a4 4 0 0 0-3 4 4 4 0 0 0 3 3 4 4 0 0 0 4-3 4 4 0 0 0-4-4z" data-name="Path 86"/>
<path class="cls-34" transform="translate(102 49)" d="M0 0h19v2H0z" data-name="Rectangle 9"/>
<path transform="translate(102 44)" d="M0 0h19v3H0z" fill="#b7b7b7" data-name="Rectangle 10"/>
<path transform="translate(102 33)" d="M0 0h19v10H0z" fill="#bbb" data-name="Rectangle 11"/>
</g>
</g>
<g class="cls-15" transform="translate(529 157)" data-name="Group 32">
<path class="cls-28" transform="translate(-382 -85)" d="m461 151h-71a6 6 0 0 1-6-6h83a6 6 0 0 1-6 6z" data-name="Path 87"/>
<g transform="translate(43)" data-name="Group 29">
<path class="cls-19" transform="translate(-413 -101)" d="m429 165h-12a4 4 0 0 1-4-4v-55a4 4 0 0 1 4-4h12a4 4 0 0 1 4 4v55a4 4 0 0 1-4 4z" data-name="Path 88"/>
<path transform="translate(4)" d="M0 0h11v63H0z" fill="#efefef" data-name="Rectangle 12"/>
<path class="cls-38" transform="translate(7)" d="m0 0v63" data-name="Line 6"/>
<path class="cls-38" transform="translate(10)" d="m0 0v63" data-name="Line 7"/>
<path class="cls-38" transform="translate(13)" d="m0 0v63" data-name="Line 8"/>
</g>
<g transform="translate(62)" data-name="Group 30">
<path class="cls-39" transform="translate(-427 -102)" d="m443 165h-12a4 4 0 0 1-4-4v-55a4 4 0 0 1 4-4h12a4 4 0 0 1 4 4v55a4 4 0 0 1-4 4z" data-name="Path 89"/>
<path class="cls-29" transform="translate(-427 -101)" d="m442 108h-11a1 1 0 0 1-2-1 3 3 0 0 1 3-3h8a3 3 0 0 1 3 3 1 1 0 0 1-1 1z" data-name="Path 90"/>
<path class="cls-29" transform="translate(0 10)" d="M0 0h19v1H0z" data-name="Rectangle 13"/>
<path class="cls-29" transform="translate(0 13)" d="M0 0h19v5H0z" data-name="Rectangle 14"/>
<path class="cls-29" transform="translate(-426 -96)" d="m440 135c0 10-2 18-5 18s-5-8-5-18 3-18 5-18 5 8 5 18z" data-name="Path 91"/>
</g>
<g data-name="Group 31">
<path class="cls-39" transform="translate(-383 -102)" d="m413 102 10 5a4 4 0 0 1 2 5l-25 50a4 4 0 0 1-5 2l-10-5a4 4 0 0 1-2-6l24-49a4 4 0 0 1 6-2z" data-name="Path 92"/>
<path class="cls-29" transform="translate(-382 -88)" d="m387 138 10 5a1 1 0 0 1 1 2 3 3 0 0 1-4 1l-7-3a3 3 0 0 1-2-4 1 1 0 0 1 2-1z" data-name="Path 93"/>
<path class="cls-29" transform="rotate(206 17 25)" d="M0 0h19v1H0z" data-name="Rectangle 15"/>
<path class="cls-29" transform="rotate(206 17 24)" d="M0 0h19v5H0z" data-name="Rectangle 16"/>
<path class="cls-29" transform="translate(-378 -100)" d="m399 122c4-9 10-16 12-14s1 9-3 18-10 15-13 14 0-9 4-18z" data-name="Path 94"/>
</g>
</g>
<g class="cls-15" transform="translate(13 121)" data-name="Group 38">
<path class="cls-25" transform="translate(-9 -58)" d="M165 135H15a6 6 0 0 1-6-6 6 6 0 0 1 6-6h150a6 6 0 0 1 6 6 6 6 0 0 1-6 6z" data-name="Path 95"/>
<path class="cls-26" transform="translate(-5 -58)" d="M133 130H27a8 8 0 0 1-8-7h122a8 8 0 0 1-8 7z" data-name="Path 96"/>
<g transform="translate(57 29)" data-name="Group 33">
<circle cx="18" cy="18" r="18" fill="#d5d5d5" data-name="Ellipse 9"/>
<circle class="cls-41" transform="rotate(-13 31 4)" cx="16" cy="16" r="16" data-name="Ellipse 10"/>
<circle transform="rotate(-13 50 -21)" cx="11" cy="11" r="11" fill="#c5c5c5" data-name="Ellipse 11"/>
<path class="cls-41" transform="translate(-48 -93)" d="m74 112a7 7 0 1 0-8 8 7 7 0 0 0 8-8z" data-name="Path 97"/>
</g>
<g transform="translate(17 2)" data-name="Group 34">
<path class="cls-27" transform="translate(-22 -77)" d="M32 144h-6a4 4 0 0 1-4-4V82a4 4 0 0 1 4-5h6a4 4 0 0 1 5 5v58a4 4 0 0 1-5 4z" data-name="Path 98"/>
<ellipse class="cls-43" transform="translate(5 3)" cx="3" cy="6" rx="3" ry="6" data-name="Ellipse 12"/>
<path class="cls-43" transform="translate(0 19)" d="M0 0h15v3H0z" data-name="Rectangle 17"/>
<path class="cls-43" transform="translate(0 24)" d="M0 0h15v1H0z" data-name="Rectangle 18"/>
<path class="cls-43" transform="translate(0 54)" d="M0 0h15v6H0z" data-name="Rectangle 19"/>
</g>
<g transform="translate(32 17)" data-name="Group 35">
<path class="cls-28" transform="translate(-33 -88)" d="M48 140H36a4 4 0 0 1-3-4V92a4 4 0 0 1 3-4h12a4 4 0 0 1 4 4v44a4 4 0 0 1-4 4z" data-name="Path 99"/>
<path class="cls-44" transform="translate(-33 -88)" d="M36 88a4 4 0 0 0-3 4v45a4 4 0 0 0 3 3h2V88z" data-name="Path 100"/>
<path transform="translate(-29 -88)" d="M44 88h-1v52h1a4 4 0 0 0 4-3V92a4 4 0 0 0-4-4z" fill="#d9d9d9" data-name="Path 101"/>
</g>
<g transform="translate(89 15)" data-name="Group 36">
<path class="cls-29" transform="translate(-73 -86)" d="m86 140 12-3a4 4 0 0 0 3-4l-9-44a4 4 0 0 0-4-3l-12 3a4 4 0 0 0-3 4l9 44a3 3 0 0 0 4 3z" data-name="Path 102"/>
<path class="cls-46" transform="translate(-72 -79)" d="m76 104 20 4 1 4-20-3z" data-name="Path 103"/>
<circle class="cls-46" transform="translate(7 6)" cx="4" cy="4" r="4" data-name="Ellipse 13"/>
<path class="cls-46" transform="translate(-73 -82)" d="m75 98 20 4 1 5-20-3z" data-name="Path 104"/>
</g>
<g transform="translate(105)" data-name="Group 37">
<path class="cls-44" transform="translate(-85 -76)" d="m102 143 6-2a4 4 0 0 0 4-5l-12-57a4 4 0 0 0-5-3l-6 1a4 4 0 0 0-3 5l11 57a4 4 0 0 0 5 4z" data-name="Path 105"/>
<path class="cls-47" transform="translate(-85 -72)" d="m86 84 17 5 1 6-17-5z" data-name="Path 106"/>
<path class="cls-47" transform="translate(-85 -71)" d="m87 89 17 5 1 6-17-5z" data-name="Path 107"/>
<circle class="cls-47" transform="translate(6 6)" cx="2" cy="2" r="2" data-name="Ellipse 14"/>
<path class="cls-47" transform="translate(-83 -67)" d="m104 100-13 7 1 7 14-8z" data-name="Path 108"/>
</g>
</g>
</g>
<g transform="translate(346 139)" data-name="Group 70">
<g transform="translate(0 59)" data-name="Group 69">
<g transform="translate(81 258)" data-name="Group 53">
<path class="cls-48" transform="translate(-308 -326)" d="m346 329s0 6-3 9-30 12-33 15-3 7 17 8c18 1 23-2 32-6 8-3 2-18 2-18a79 79 0 0 1 0-10c0-3-15 2-15 2z" data-name="Path 109"/>
<path class="cls-49" transform="translate(-305 -326)" d="m346 328s0 10-2 12-21 11-26 12" data-name="Path 110"/>
<g transform="translate(13 1)" data-name="Group 41">
<g data-name="Group 40">
<path class="cls-50" transform="translate(-309 -327)" d="m342 327v1" data-name="Path 111"/>
<path class="cls-51" transform="translate(-318 -326)" d="m351 329c0 3 0 11-3 14-3 5-22 12-29 14" data-name="Path 112"/>
<path class="cls-50" transform="translate(-318 -318)" d="m319 349a6 6 0 0 0-1 0" data-name="Path 113"/>
</g>
</g>
<path class="cls-52" transform="translate(-308 -320)" d="m322 355c2-4 0-10-1-13l-11 5c-2 2-3 6 12 8z" data-name="Path 114"/>
<g transform="translate(0 17)" data-name="Group 42">
<path class="cls-53" transform="translate(-308 -338)" d="m360 351c-9 4-15 6-32 5-15 0-19-3-19-5-2 3-1 7 18 8 18 0 24-2 33-6 5-2 4-10 3-15 1 5 1 11-3 13z" data-name="Path 115"/>
</g>
<g transform="translate(16 27)" data-name="Group 43">
<path class="cls-54" transform="translate(-320 -346)" d="m321 348a1 1 0 0 1-1 0 1 1 0 0 1 1-2 1 1 0 0 1 1 0 1 1 0 0 1 0 2 2 2 0 0 1-1 0z" data-name="Path 116"/>
<path class="cls-53" transform="translate(-320 -346)" d="m321 346a1 1 0 0 1 1 0 1 1 0 0 1 0 2 1 1 0 0 1-1 0 1 1 0 0 1 0-2 1 1 0 0 0-1 1 2 2 0 0 0 0 1 2 2 0 0 0 1 0 3 3 0 0 0 1 0 1 1 0 0 0 1-1 2 2 0 0 0 0-1 3 3 0 0 0-2 0z" data-name="Path 117"/>
</g>
<path class="cls-55" transform="translate(-304 -321)" d="m322 349a17 17 0 0 0-3-8" data-name="Path 118"/>
<g transform="translate(19 25)" data-name="Group 44">
<path class="cls-54" transform="translate(-322 -345)" d="m324 347a1 1 0 0 1-1 0 1 1 0 0 1 0-2 2 2 0 0 1 1 0 1 1 0 0 1 1 0 1 1 0 0 1-1 2z" data-name="Path 119"/>
<path class="cls-53" transform="translate(-322 -345)" d="m324 345a1 1 0 0 1 1 1 1 1 0 0 1-1 1 1 1 0 0 1-1 0 1 1 0 0 1 0-2h1a3 3 0 0 0-1 0 1 1 0 0 0-1 1 2 2 0 0 0 1 1 2 2 0 0 0 1 0 3 3 0 0 0 1 0 1 1 0 0 0 0-1 2 2 0 0 0 0-1 3 3 0 0 0-1 0z" data-name="Path 120"/>
</g>
<path class="cls-55" transform="translate(-304 -321)" d="m324 348a17 17 0 0 0-3-8" data-name="Path 121"/>
<g transform="translate(22 24)" data-name="Group 45">
<path class="cls-54" transform="translate(-324 -344)" d="m326 346a1 1 0 0 1-1 0 1 1 0 0 1 0-2 2 2 0 0 1 1 0 1 1 0 0 1 1 0 1 1 0 0 1 0 2 2 2 0 0 1-1 0z" data-name="Path 122"/>
<path class="cls-53" transform="translate(-324 -344)" d="m326 344a1 1 0 0 1 1 1 1 1 0 0 1 0 1 1 1 0 0 1-1 0 1 1 0 0 1-1 0 1 1 0 0 1 0-2h1a3 3 0 0 0-1 0 1 1 0 0 0 0 2 2 2 0 0 0 1 0 3 3 0 0 0 1 0 1 1 0 0 0 0-1 2 2 0 0 0 0-1 2 2 0 0 0-1 0z" data-name="Path 123"/>
</g>
<path class="cls-55" transform="translate(-303 -321)" d="m326 347a17 17 0 0 0-2-7" data-name="Path 124"/>
<g transform="translate(25 23)" data-name="Group 46">
<path class="cls-54" transform="translate(-327 -343)" d="m328 345a1 1 0 0 1-1 0 1 1 0 0 1 0-2 2 2 0 0 1 1 0 1 1 0 0 1 1 1 1 1 0 0 1 0 1 2 2 0 0 1-1 0z" data-name="Path 125"/>
<path class="cls-53" transform="translate(-327 -343)" d="m328 343a1 1 0 0 1 1 1 1 1 0 0 1 0 1 1 1 0 0 1-1 0 1 1 0 0 1-1 0 1 1 0 0 1 0-1 1 1 0 0 1 1-1 3 3 0 0 0-1 0 1 1 0 0 0 0 2 2 2 0 0 0 1 1 3 3 0 0 0 1-1 1 1 0 0 0 0-1 2 2 0 0 0 0-1 2 2 0 0 0-1 0z" data-name="Path 126"/>
</g>
<path class="cls-55" transform="translate(-302 -322)" d="m328 346a17 17 0 0 0-2-7" data-name="Path 127"/>
<g transform="translate(29 21)" data-name="Group 47">
<path class="cls-54" transform="translate(-330 -342)" d="m331 344a1 1 0 0 1-1 0 1 1 0 0 1 0-2 1 1 0 0 1 1 0 1 1 0 0 1 1 0 1 1 0 0 1 0 1v1a2 2 0 0 1-1 0z" data-name="Path 128"/>
<path class="cls-53" transform="translate(-330 -342)" d="m331 342h1a1 1 0 0 1 0 2 1 1 0 0 1-1 0h-1a1 1 0 0 1 0-1 1 1 0 0 1 1-1 1 1 0 0 0-1 0 1 1 0 0 0 0 2 2 2 0 0 0 1 0 1 1 0 0 0 1 0 1 1 0 0 0 0-2 1 1 0 0 0-1 0z" data-name="Path 129"/>
</g>
<path class="cls-55" transform="translate(-301 -322)" d="m332 345s-2-5-5-8" data-name="Path 130"/>
<g transform="translate(34 19)" data-name="Group 48">
<path class="cls-54" transform="translate(-333 -340)" d="m334 343a1 1 0 0 1-1-1v-1a1 1 0 0 1 1-1 1 1 0 0 1 1 0 1 1 0 0 1 0 1v1a1 1 0 0 1-1 1z" data-name="Path 131"/>
<path class="cls-53" transform="translate(-333 -340)" d="m334 340a1 1 0 0 1 0 1 1 1 0 0 1 1 1 1 1 0 0 1-1 0 1 1 0 0 1-1-1 1 1 0 0 1 1-1 1 1 0 0 0-1 3 1 1 0 0 0 1 0 1 1 0 0 0 1-1 3 3 0 0 0 0-1 1 1 0 0 0 0-1h-1z" data-name="Path 132"/>
</g>
<path class="cls-55" transform="translate(-301 -323)" d="m335 343s-2-5-6-7" data-name="Path 133"/>
<g transform="translate(37 17)" data-name="Group 49">
<path class="cls-54" transform="translate(-335 -338)" d="m337 341a1 1 0 0 1-1-2 1 1 0 0 1 1 0 1 1 0 0 1 1 0 2 2 0 0 1 0 1 1 1 0 0 1-1 1z" data-name="Path 134"/>
<path class="cls-53" transform="translate(-336 -338)" d="m337 339a1 1 0 0 1 1 1 1 1 0 0 1-1 1 1 1 0 0 1-1-1 1 1 0 0 1 1-1m0-1a2 2 0 0 0-1 1 2 2 0 0 0 0 1l1 1a2 2 0 0 0 1-1 1 1 0 0 0-1-1v-1z" data-name="Path 135"/>
</g>
<path class="cls-55" transform="translate(-300 -323)" d="m339 341s-5-5-8-7" data-name="Path 136"/>
<g transform="translate(41 14)" data-name="Group 50">
<path class="cls-54" transform="translate(-338 -336)" d="m340 339a1 1 0 0 1-1-1 1 1 0 0 1-1-1 1 1 0 0 1 2-1 1 1 0 0 1 1 1 1 1 0 0 1-1 2z" data-name="Path 137"/>
<path class="cls-53" transform="translate(-338 -336)" d="m340 336a1 1 0 0 1 1 1 1 1 0 0 1-1 1 1 1 0 1 1 0-2 1 1 0 0 0-2 1 2 2 0 0 0 1 1 1 1 0 0 0 1 1 1 1 0 0 0 1-2 1 1 0 0 0-1-1z" data-name="Path 138"/>
</g>
<path class="cls-55" transform="translate(-299 -324)" d="m342 339s-6-5-10-6" data-name="Path 139"/>
<g transform="translate(43 9)" data-name="Group 51">
<path class="cls-54" transform="translate(-339 -333)" d="m341 335a1 1 0 0 1-2-1 1 1 0 0 1 2-1 1 1 0 0 1 1 1 1 1 0 0 1-1 1z" data-name="Path 140"/>
<path class="cls-53" transform="translate(-339 -333)" d="m341 333a1 1 0 0 1 1 1 1 1 0 0 1-1 1 1 1 0 0 1-1-1 1 1 0 0 1 1-1 1 1 0 0 0-2 1 1 1 0 0 0 2 1 1 1 0 0 0 1-1l-1-1z" data-name="Path 141"/>
</g>
<path class="cls-55" transform="translate(-299 -324)" d="m343 335s-5-4-9-4" data-name="Path 142"/>
<g transform="translate(43 4)" data-name="Group 52">
<path class="cls-54" transform="translate(-339 -329)" d="m341 332a1 1 0 0 1-1-1 1 1 0 0 1 1-2 1 1 0 0 1 1 1 1 1 0 0 1-1 2z" data-name="Path 143"/>
<path class="cls-53" transform="translate(-340 -329)" d="m341 330a1 1 0 0 1 1 0v1l-1 1a1 1 0 0 1-1-1l1-1m0-1a4 4 0 0 0-1 1v1a1 1 0 0 0 1 1 1 1 0 0 0 1 0 4 4 0 0 0 0-1 2 2 0 0 0 0-1 1 1 0 0 0-1-1z" data-name="Path 144"/>
</g>
<path class="cls-55" transform="translate(-298 -325)" d="m343 330s-5-2-8 0" data-name="Path 145"/>
</g>
<g transform="translate(133 252)" data-name="Group 67">
<path class="cls-48" transform="translate(-346 -322)" d="m372 330s2 5 1 9-25 21-26 25-1 8 18 2c17-5 22-10 29-16 6-6-5-18-5-18a74 74 0 0 1-4-9c0-4-13 7-13 7z" data-name="Path 146"/>
<path class="cls-49" transform="translate(-343 -320)" d="m372 327s4 9 2 12c-1 2-15 17-20 20" data-name="Path 147"/>
<g transform="translate(13 2)" data-name="Group 55">
<g data-name="Group 54">
<path class="cls-50" transform="translate(-350 -324)" d="m370 324a6 6 0 0 1 1 1" data-name="Path 148"/>
<path class="cls-51" transform="translate(-355 -323)" d="m377 326c1 3 3 11 2 14-1 6-17 19-23 23" data-name="Path 149"/>
<path class="cls-50" transform="translate(-355 -313)" d="m356 353h-1" data-name="Path 150"/>
</g>
</g>
<path class="cls-52" transform="translate(-346 -313)" d="m361 358c0-4-4-9-6-12-4 4-8 7-8 9-2 3-1 7 14 3z" data-name="Path 151"/>
<g transform="translate(0 15)" data-name="Group 56">
<path class="cls-53" transform="translate(-346 -333)" d="m394 346c-7 6-12 10-28 16-14 4-19 3-20 1-1 3 2 7 20 1 17-6 22-10 29-17 4-4 1-10-2-14 2 4 4 9 1 13z" data-name="Path 152"/>
</g>
<g transform="translate(14 37)" data-name="Group 57">
<path class="cls-54" transform="translate(-356 -349)" d="m358 351a1 1 0 0 1-1 0 1 1 0 0 1 0-1 1 1 0 0 1 0-1 1 1 0 0 1 1 0 1 1 0 0 1 1 2 2 2 0 0 1-1 0z" data-name="Path 153"/>
<path class="cls-53" transform="translate(-356 -349)" d="m358 349a1 1 0 0 1 1 2 1 1 0 0 1-1 0 1 1 0 0 1-1 0 1 1 0 0 1 0-1 1 1 0 0 1 1-1 1 1 0 0 0-1 0 1 1 0 0 0-1 1l1 1a1 1 0 0 0 1 0 1 1 0 0 0 1 0 1 1 0 0 0-1-2z" data-name="Path 154"/>
</g>
<path class="cls-55" transform="translate(-343 -313)" d="m359 351a16 16 0 0 0-5-6" data-name="Path 155"/>
<g transform="translate(16 35)" data-name="Group 58">
<path class="cls-54" transform="translate(-358 -347)" d="m359 350a1 1 0 0 1-1-2 1 1 0 0 1 2-1 1 1 0 0 1 1 1 1 1 0 0 1 0 1 1 1 0 0 1-2 1z" data-name="Path 156"/>
<path class="cls-53" transform="translate(-358 -347)" d="m360 348a1 1 0 0 1 0 1 1 1 0 0 1 0 1 1 1 0 0 1-1-1 1 1 0 0 1 0-1 1 1 0 0 1 1 0m0-1a1 1 0 0 0-2 1 1 1 0 0 0 0 1l1 1a1 1 0 0 0 2-1 1 1 0 0 0 0-1l-1-1a1 1 0 0 0-1 0z" data-name="Path 157"/>
</g>
<path class="cls-55" transform="translate(-343 -314)" d="m360 350a16 16 0 0 0-4-6" data-name="Path 158"/>
<g transform="translate(19 32)" data-name="Group 59">
<path class="cls-54" transform="translate(-360 -345)" d="m361 348a1 1 0 0 1-1-1 1 1 0 0 1 0-1 1 1 0 0 1 1 0 1 1 0 0 1 1 0 1 1 0 0 1 0 1 1 1 0 0 1-1 1z" data-name="Path 159"/>
<path class="cls-53" transform="translate(-360 -345)" d="m361 346a1 1 0 0 1 1 0 1 1 0 0 1 0 1 1 1 0 0 1-1 1 1 1 0 0 1-1-2 1 1 0 0 1 1 0m0-1a1 1 0 0 0-1 1 1 1 0 0 0 0 1l1 1a1 1 0 0 0 2 0 1 1 0 0 0-1-2 1 1 0 0 0-1-1z" data-name="Path 160"/>
</g>
<path class="cls-55" transform="translate(-342 -314)" d="m362 348a16 16 0 0 0-5-6" data-name="Path 161"/>
<g transform="translate(21 30)" data-name="Group 60">
<path class="cls-54" transform="translate(-361 -344)" d="m363 346a1 1 0 0 1-1 0 1 1 0 0 1 0-1 1 1 0 0 1 1-1 1 1 0 0 1 1 0 1 1 0 0 1 0 2 1 1 0 0 1-1 0z" data-name="Path 162"/>
<path class="cls-53" transform="translate(-362 -344)" d="m363 344a1 1 0 0 1 1 0 1 1 0 0 1 0 2 1 1 0 0 1-1 0 1 1 0 0 1-1-1 1 1 0 0 1 1-1 1 1 0 0 0-1 1 1 1 0 0 0 0 2 1 1 0 0 0 1 0 1 1 0 0 0 1-1 1 1 0 0 0 0-1v-1a1 1 0 0 0-1 0z" data-name="Path 163"/>
</g>
<path class="cls-55" transform="translate(-341 -315)" d="m364 347a16 16 0 0 0-5-6" data-name="Path 164"/>
<g transform="translate(25 27)" data-name="Group 61">
<path class="cls-54" transform="translate(-364 -342)" d="m365 344a1 1 0 0 1-1-1 1 1 0 0 1 1-1h1a1 1 0 0 1 0 1 1 1 0 0 1-1 1z" data-name="Path 165"/>
<path class="cls-53" transform="translate(-364 -342)" d="m365 342h1a1 1 0 0 1 0 1 1 1 0 0 1-1 1 1 1 0 0 1-1-1 1 1 0 0 1 1-1 1 1 0 0 0-1 1 1 1 0 0 0 1 1v1a1 1 0 0 0 2-1 2 2 0 0 0 0-1 1 1 0 0 0-1-1 1 1 0 0 0-1 0z" data-name="Path 166"/>
</g>
<path class="cls-55" transform="translate(-341 -316)" d="m367 344a14 14 0 0 0-6-5" data-name="Path 167"/>
<g transform="translate(28 23)" data-name="Group 62">
<path class="cls-54" transform="translate(-366 -339)" d="m367 342a1 1 0 0 1-1-2 1 1 0 0 1 2-1 1 1 0 0 1 1 1 1 1 0 0 1-1 2z" data-name="Path 168"/>
<path class="cls-53" transform="translate(-366 -339)" d="m368 340 1 1a1 1 0 0 1-1 0h-1a1 1 0 0 1 0-1 1 1 0 0 1 1 0m0-1a1 1 0 0 0-2 1 1 1 0 0 0 1 2h1a1 1 0 0 0 1-1 1 1 0 0 0-1-2z" data-name="Path 169"/>
</g>
<path class="cls-55" transform="translate(-340 -316)" d="m369 341a12 12 0 0 0-6-3" data-name="Path 170"/>
<g transform="translate(31 20)" data-name="Group 63">
<path class="cls-54" transform="translate(-368 -337)" d="m370 339a1 1 0 0 1-1-1 1 1 0 0 1 1-1 1 1 0 0 1 1 1 1 1 0 0 1-1 1z" data-name="Path 171"/>
<path class="cls-53" transform="translate(-368 -337)" d="m370 337a1 1 0 0 1 1 1 1 1 0 0 1-1 1 1 1 0 0 1-1-1 1 1 0 0 1 1-1 1 1 0 0 0-2 1 1 1 0 0 0 2 1 1 1 0 0 0 1-1 1 1 0 0 0-1-1z" data-name="Path 172"/>
</g>
<path class="cls-55" transform="translate(-339 -317)" d="m371 338a13 13 0 0 0-6-2" data-name="Path 173"/>
<g transform="translate(33 16)" data-name="Group 64">
<path class="cls-54" transform="translate(-370 -333)" d="m372 336a1 1 0 0 1-1-2h1a1 1 0 0 1 0 1 1 1 0 0 1 0 1z" data-name="Path 174"/>
<path class="cls-53" transform="translate(-370 -333)" d="m372 334a1 1 0 0 1 1 1 1 1 0 0 1-1 1 1 1 0 0 1-1-1 1 1 0 0 1 0-1h1m0-1h-1l-1 1a1 1 0 0 0 0 1 1 1 0 0 0 2 1l1-1a1 1 0 0 0 0-1 1 1 0 0 0-1-1z" data-name="Path 175"/>
</g>
<path class="cls-55" transform="translate(-339 -318)" d="m373 335s-4-2-8-1" data-name="Path 176"/>
<g transform="translate(33 11)" data-name="Group 65">
<path class="cls-54" transform="translate(-370 -330)" d="m371 332a1 1 0 0 1-1 0 1 1 0 0 1 1-2 1 1 0 0 1 1 1 1 1 0 0 1 0 1 1 1 0 0 1-1 0z" data-name="Path 177"/>
<path class="cls-53" transform="translate(-370 -330)" d="m371 330a1 1 0 0 1 1 1 1 1 0 0 1 0 1h-1a1 1 0 0 1-1 0 1 1 0 0 1 1-2 1 1 0 0 0-1 1 2 2 0 0 0 0 1 1 1 0 0 0 1 1 1 1 0 0 0 1 0 1 1 0 0 0 1-1 2 2 0 0 0 0-1 1 1 0 0 0-2-1z" data-name="Path 178"/>
</g>
<path class="cls-55" transform="translate(-339 -319)" d="m373 331a14 14 0 0 0-7 0" data-name="Path 179"/>
<g transform="translate(32 6)" data-name="Group 66">
<path class="cls-54" transform="translate(-369 -326)" d="m370 329a1 1 0 0 1-1-1 1 1 0 0 1 1-1 2 2 0 0 1 1 0 1 1 0 0 1 1 1 1 1 0 0 1-1 1 2 2 0 0 1-1 0z" data-name="Path 180"/>
<path class="cls-53" transform="translate(-369 -326)" d="m370 327a1 1 0 0 1 1 0 1 1 0 0 1 0 1 1 1 0 0 1-1 0 1 1 0 0 1 0-1m0-1a1 1 0 1 0 1 3 1 1 0 0 0 0-2 1 1 0 0 0-1-1z" data-name="Path 181"/>
</g>
<path class="cls-55" transform="translate(-339 -320)" d="m372 327a10 10 0 0 0-7 2" data-name="Path 182"/>
</g>
<path class="cls-56" transform="translate(-221 -112)" d="m335 317c-8-1-11-6-10-11l10-89c1-5 9-5 18-4 8 2 20 10 19 16l-24 81c-1 5-5 9-13 7z" data-name="Path 183"/>
<path class="cls-57" transform="translate(-214 -87)" d="m387 358c-5 1-14-1-16-6l-28-64c-2-4 3-8 8-9 5-2 15-1 16 3l24 65c1 4 1 9-4 11z" data-name="Path 184"/>
<path class="cls-56" transform="translate(-221 -88)" d="m347 361c-5 1-11-3-12-8l-10-70c0-4 5-6 10-7 6-1 15 3 15 8l6 68c0 5-3 9-9 9z" data-name="Path 185"/>
<path class="cls-57" transform="translate(-219 -113)" d="m335 211h44a17 17 0 0 1 17 16v2a14 14 0 0 1-1 4 9 9 0 0 1 1 3l-24 75c0 8-5 11-14 11s-11-6-11-14l11-60a3 3 0 0 0-3-2l-11-5c-17-10-11-11-13-20v-6a4 4 0 0 1 4-4z" data-name="Path 186"/>
<path class="cls-58" transform="translate(-242 -135)" d="m316 158a85 85 0 0 1 6 13 134 134 0 0 1 3 15c1 4 3 9 3 14l2 8 1 8a45 45 0 0 1 0 4v2a22 22 0 0 1 0 3 3 3 0 0 1-1 0v2a7 7 0 0 0-1 1v1l-2 2h-1v1l-8 4-13 7-13 6-12 6a6 6 0 0 1-8-9l3-3 3-2 6-5 12-8 12-9 3-2 1-1a5 5 0 0 0 1 0h-1v1l-1 1a1 1 0 0 1 0 1 6 6 0 0 0-1 1 4 4 0 0 0 0 1v-3l-4-13-4-14-4-13a83 83 0 0 1-2-15 11 11 0 0 1 10-11 11 11 0 0 1 10 6z" data-name="Path 187"/>
<path class="cls-59" transform="translate(-234 -127)" d="m292 179 2 5c1 1 20-1 23-6l-1-6-24 7z" data-name="Path 188"/>
<path class="cls-60" transform="translate(-235 -135)" d="m292 186s-11-28 4-34 21 24 23 28c1 3-25 11-27 6z" data-name="Path 189"/>
<path transform="translate(-234 -140)" d="m365 265 28-14c15-8 15-8 8-23l-39-76c-4-8-12-12-22-12l-42 13c-9 4-5 17-1 25l45 81c9 14 4 16 23 6z" fill="#39be66" data-name="Path 190"/>
<path class="cls-58" transform="translate(-221 -139)" d="m345 148c5 10 9 20 12 31l5 16 3 12 1 2v2h1v4l1 1a10 10 0 0 1 0 3l-1 5a178 178 0 0 1-9 43l-3 8a41 41 0 0 1-2 4l-2 3a12 12 0 0 1-2 3 6 6 0 1 1-9-9h1a10 10 0 0 1 0-2 25 25 0 0 0 1-3 718 718 0 0 0 2-8l2-16a325 325 0 0 0 2-24 30 30 0 0 0 0-4v-1 1-1l-1-1-1-3-2-4-3-7-6-16c-4-11-8-21-10-33a11 11 0 0 1 9-12 11 11 0 0 1 11 6z" data-name="Path 191"/>
<path class="cls-59" transform="translate(-220 -131)" d="m329 170 2 5c0 1 20-3 23-8l-1-5-24 8z" data-name="Path 192"/>
<path class="cls-60" transform="translate(-222 -139)" d="m329 176s-13-26 2-33 23 23 24 26-24 12-26 7z" data-name="Path 193"/>
<g transform="translate(0 105)" data-name="Group 68">
<path class="cls-58" transform="translate(-246 -215)" d="m283 223a10 10 0 0 1-6 13l-5 1a10 10 0 0 1-12-7 10 10 0 0 1 6-12l5-2a10 10 0 0 1 12 7z" data-name="Path 194"/>
<path class="cls-58" transform="translate(-247 -211)" d="m278 229a2 2 0 0 1-2 3l-15 5a2 2 0 0 1-3-2 2 2 0 0 1 1-3l16-5a3 3 0 0 1 3 2z" data-name="Path 195"/>
<path class="cls-58" transform="translate(-249 -212)" d="m273 227a2 2 0 0 1-2 3l-15 4a2 2 0 0 1-3-1 2 2 0 0 1 2-3l15-5a3 3 0 0 1 3 2z" data-name="Path 196"/>
<path class="cls-58" transform="translate(-250 -213)" d="m270 224a2 2 0 0 1-2 3l-15 5a2 2 0 0 1-3-2 2 2 0 0 1 2-3l15-5a2 2 0 0 1 3 2z" data-name="Path 197"/>
<path class="cls-58" transform="translate(-250 -215)" d="m271 220a2 2 0 0 1-2 3l-15 5a2 2 0 0 1-3-2 2 2 0 0 1 2-3l15-5a2 2 0 0 1 3 2z" data-name="Path 198"/>
<path class="cls-58" transform="translate(-247 -216)" d="m275 218a2 2 0 0 1-2 2h-12a2 2 0 0 1-2-2 2 2 0 0 1 2-2h12a2 2 0 0 1 2 2z" data-name="Path 199"/>
</g>
</g>
<path class="cls-58" transform="translate(-238 -97)" d="m326 173a11 11 0 0 0 5-13 33 33 0 0 1-2-5c-1-8 1-17 2-31s-13-31-37-24c-23 7-10 57-5 61 6 4 19-2 19-2l2 7c0 1 5 13 16 7z" data-name="Path 200"/>
<path class="cls-62" transform="translate(-227 -89)" d="m313 119a13 13 0 0 1-2 7s-1 4 0 9l1-1s0 4 2 5v-2s-1 3 3 3l-4-21" data-name="Path 201"/>
<path class="cls-62" transform="translate(-240 -95)" d="m331 140h1l-1-3 1-7 1 3c1-3-1-8-1-11-5-2-5-3-9-7l-2-2a22 22 0 0 0-3-4l-11-4c-8-2-12-2-17 1a41 41 0 0 0-12 11l1 1a4 4 0 0 1-2 0l-1-3c9 2 24-5 26-1 1 3 6 8 8 8a2 2 0 0 1 2 1l2 10c2 3 3-4 4-9s7-5 8 1l2 18 1 5 1-2-1 3 1-2a7 7 0 0 1 2 3c1-2-1-4-1-4h3c-3-1-3-6-3-6z" data-name="Path 202"/>
<path class="cls-62" transform="translate(-230 -90)" d="m302 117-1 5 1-1a12 12 0 0 0 1 4l1-2s0 6-1 7a5 5 0 0 0 2-3c1-3 0-10-3-10z" data-name="Path 203"/>
<path transform="translate(-238 -97)" d="m282 110s9-15 27-12c23 3 24 25 22 29-1 0-34-14-49-17z" fill="#2b8e4d" data-name="Path 204"/>
<path transform="translate(-243 -94)" d="m315 116s-31-15-42-8-3 17 13 18v-8s-1-5 29-2z" fill="#bea539" data-name="Path 205"/>
</g>
<g transform="translate(160 97)" data-name="Group 101">
<path class="cls-65" transform="translate(-97 -47)" d="m186 126a95 95 0 0 1 5 13l3 14 2 14 3 14a17 17 0 0 0 1 2l-2-2h-1l-1-1h-1a6 6 0 0 1 1 0l2 1h3l15 2 14 2 8 1 4 1a35 35 0 0 1 4 1 6 6 0 0 1-3 12h-28l-15 1h-4a10 10 0 0 1-2-1 19 19 0 0 1-2 0h-1a6 6 0 0 0-1 0h-1v-1h-3v-1a4 4 0 0 1-1-1 4 4 0 0 1-1-1 24 24 0 0 1-2-2 12 12 0 0 0-1-2l-1-4c-2-2-2-5-3-7l-3-8-4-14-3-14a87 87 0 0 1-2-15 11 11 0 0 1 11-11 10 10 0 0 1 10 6z" data-name="Path 206"/>
<path class="cls-66" transform="translate(-97 -47)" d="m243 195-15 1h-18a10 10 0 0 1-2 0 19 19 0 0 1-3 0l-1-1h-2l-1-1h-1l-1-1a4 4 0 0 1-1-1 4 4 0 0 1-1-1 24 24 0 0 1-1-2 12 12 0 0 0-1-1l-2-4-3-8-6-21-4-15a87 87 0 0 1-1-15 11 11 0 0 1 1-5 11 11 0 0 0-4-1 11 11 0 0 0-11 11 87 87 0 0 0 2 15 136 136 0 0 0 3 14 277 277 0 0 0 9 29 53 53 0 0 0 2 4l1 1a11 11 0 0 0 2 3l2 2h1v1h2l1 1a6 6 0 0 1 1 0h3a10 10 0 0 1 2 0h33l7-1 7 1a6 6 0 0 0 7-4 1 1 0 0 0 0-1h-7z" data-name="Path 207"/>
<path class="cls-67" transform="translate(-96 -39)" d="m192 140 1 5c0 1-19 9-24 6l-1-6 24-5z" data-name="Path 208"/>
<path class="cls-68" transform="translate(-97 -47)" d="m194 147s-3-30-19-29-8 32-8 35c1 4 27-1 27-6z" data-name="Path 209"/>
<g transform="translate(141 130)" data-name="Group 71">
<path class="cls-65" transform="translate(-217 -160)" d="m218 174a10 10 0 0 0 10 10h5a10 10 0 0 0 9-10 10 10 0 0 0-10-10h-5a10 10 0 0 0-9 10z" data-name="Path 210"/>
<path class="cls-65" transform="translate(-215 -155)" d="m224 178a2 2 0 0 0 3 2h16a2 2 0 0 0 2-3 2 2 0 0 0-2-2h-16a3 3 0 0 0-3 3z" data-name="Path 211"/>
<path class="cls-65" transform="translate(-213 -157)" d="m228 174a2 2 0 0 0 2 2h17a2 2 0 0 0 2-3 2 2 0 0 0-3-2l-16 1a2 2 0 0 0-2 2z" data-name="Path 212"/>
<path class="cls-65" transform="translate(-213 -158)" d="m230 171a2 2 0 0 0 2 2l16-1a2 2 0 0 0 3-2 2 2 0 0 0-3-3l-16 1a3 3 0 0 0-2 3z" data-name="Path 213"/>
<path class="cls-65" transform="translate(-214 -160)" d="m228 167a2 2 0 0 0 2 2h16a2 2 0 0 0 3-3 2 2 0 0 0-3-2l-16 1a2 2 0 0 0-2 2z" data-name="Path 214"/>
<path class="cls-65" transform="translate(-216 -161)" d="m222 168a2 2 0 0 0 3 1l11-4a2 2 0 0 0 1-3 2 2 0 0 0-2-1l-12 4a2 2 0 0 0-1 3z" data-name="Path 215"/>
</g>
<g transform="translate(57 360)" data-name="Group 85">
<path class="cls-48" transform="translate(-156 -327)" d="m174 330s0 6 3 9 30 12 33 15 3 7-17 8c-18 1-23-2-32-6-8-3-2-18-2-18a79 79 0 0 0 0-10c0-3 15 2 15 2z" data-name="Path 216"/>
<path class="cls-49" transform="translate(-152 -326)" d="m167 329s0 10 2 12 21 11 26 12" data-name="Path 217"/>
<g transform="translate(9 1)" data-name="Group 73">
<g data-name="Group 72">
<path class="cls-50" transform="translate(-163 -328)" d="m163 328" data-name="Path 218"/>
<path class="cls-51" transform="translate(-163 -327)" d="m163 329c0 4 0 12 3 15 3 4 22 11 29 13" data-name="Path 219"/>
<path class="cls-50" transform="translate(-154 -319)" d="m187 350" data-name="Path 220"/>
</g>
</g>
<path class="cls-52" transform="translate(-145 -321)" d="m187 355c-2-4 0-9 1-12l11 4c2 3 3 7-12 8z" data-name="Path 221"/>
<g transform="translate(0 17)" data-name="Group 74">
<path class="cls-53" transform="translate(-156 -339)" d="m161 352c9 3 14 6 32 5 15 0 18-3 18-6 2 3 2 8-18 8-18 1-23-1-32-5-6-3-5-10-3-15-1 5-2 11 3 13z" data-name="Path 222"/>
</g>
<g transform="translate(37 27)" data-name="Group 75">
<path class="cls-54" transform="translate(-183 -346)" d="m184 349a1 1 0 0 1-1-1 1 1 0 0 1 0-1 1 1 0 0 1 1 0 2 2 0 0 1 1 0 1 1 0 0 1 1 1 1 1 0 0 1-1 1 1 1 0 0 1-1 0z" data-name="Path 223"/>
<path class="cls-53" transform="translate(-183 -346)" d="m185 347a1 1 0 0 1 0 1 1 1 0 0 1-1 1 1 1 0 0 1 0-2m1-1a2 2 0 0 0-2 1 1 1 0 0 0 0 1 1 1 0 0 0 1 1 1 1 0 0 0 1 0 2 2 0 0 0 1 0 1 1 0 0 0-1-2 2 2 0 0 0-1-1z" data-name="Path 224"/>
</g>
<path class="cls-55" transform="translate(-146 -321)" d="m184 349a17 17 0 0 1 3-7" data-name="Path 225"/>
<g transform="translate(34 25)" data-name="Group 76">
<path class="cls-54" transform="translate(-181 -345)" d="m182 348a2 2 0 0 1-1 0 1 1 0 0 1 0-1 1 1 0 0 1 0-1 1 1 0 0 1 1 0 2 2 0 0 1 1 0 1 1 0 0 1 0 2 1 1 0 0 1-1 0z" data-name="Path 226"/>
<path class="cls-53" transform="translate(-181 -345)" d="m182 346h1a1 1 0 0 1 0 2 1 1 0 0 1-1 0 1 1 0 0 1-1-2 1 1 0 0 1 1 0 2 2 0 0 0-1 0 1 1 0 0 0 0 1 1 1 0 0 0 0 1 1 1 0 0 0 1 0 2 2 0 0 0 1 0 1 1 0 0 0 1-1 1 1 0 0 0-1-1 2 2 0 0 0-1-1z" data-name="Path 227"/>
</g>
<path class="cls-55" transform="translate(-147 -322)" d="m182 348a17 17 0 0 1 3-7" data-name="Path 228"/>
<g transform="translate(31 24)" data-name="Group 77">
<path class="cls-54" transform="translate(-179 -345)" d="m180 347a2 2 0 0 1-1 0 1 1 0 0 1 0-2 1 1 0 0 1 1 0 2 2 0 0 1 1 0 1 1 0 0 1 0 2 1 1 0 0 1-1 0z" data-name="Path 229"/>
<path class="cls-53" transform="translate(-179 -345)" d="m180 345h1a1 1 0 0 1 0 2 1 1 0 0 1-1 0h-1a1 1 0 0 1 0-2 1 1 0 0 1 1 0 2 2 0 0 0-1 0 1 1 0 0 0 0 2 1 1 0 0 0 1 0 2 2 0 0 0 1 0 1 1 0 0 0 0-1v-1a2 2 0 0 0-1 0z" data-name="Path 230"/>
</g>
<path class="cls-55" transform="translate(-148 -322)" d="m180 348a17 17 0 0 1 2-8" data-name="Path 231"/>
<g transform="translate(28 23)" data-name="Group 78">
<path class="cls-54" transform="translate(-176 -344)" d="m178 346a2 2 0 0 1-1 0 1 1 0 0 1 0-2 1 1 0 0 1 1 0 2 2 0 0 1 1 0 1 1 0 0 1 0 2 2 2 0 0 1-1 0z" data-name="Path 232"/>
<path class="cls-53" transform="translate(-176 -344)" d="m178 344h1a1 1 0 0 1 0 2 1 1 0 0 1-1 0h-1a1 1 0 0 1 0-1 1 1 0 0 1 1-1 2 2 0 0 0-1 0 1 1 0 0 0 0 2 1 1 0 0 0 1 0 2 2 0 0 0 1 0 1 1 0 0 0 0-2 2 2 0 0 0-1 0z" data-name="Path 233"/>
</g>
<path class="cls-55" transform="translate(-148 -322)" d="m178 347a17 17 0 0 1 2-8" data-name="Path 234"/>
<g transform="translate(24 21)" data-name="Group 79">
<path class="cls-54" transform="translate(-174 -342)" d="m175 345a1 1 0 0 1-1 0 2 2 0 0 1 0-1 1 1 0 0 1 0-1h1a1 1 0 0 1 1 2h-1z" data-name="Path 235"/>
<path class="cls-53" transform="translate(-174 -342)" d="m175 343a1 1 0 0 1 1 0 1 1 0 0 1 0 2 1 1 0 0 1-1 0 1 1 0 0 1-1-1 1 1 0 0 1 0-1 2 2 0 0 1 1 0m0-1a1 1 0 0 0-1 1 1 1 0 0 0 0 2 2 2 0 0 0 1 0 1 1 0 0 0 1 0 2 2 0 0 0 0-1 2 2 0 0 0 0-1 2 2 0 0 0-1-1z" data-name="Path 236"/>
</g>
<path class="cls-55" transform="translate(-150 -323)" d="m175 345s1-4 4-7" data-name="Path 237"/>
<g transform="translate(19 19)" data-name="Group 80">
<path class="cls-54" transform="translate(-170 -341)" d="m172 343a1 1 0 0 1-1 0 2 2 0 0 1 0-1 1 1 0 0 1 0-1 1 1 0 0 1 1 0 1 1 0 0 1 1 1 1 1 0 0 1 0 1 1 1 0 0 1-1 0z" data-name="Path 238"/>
<path class="cls-53" transform="translate(-171 -341)" d="m172 341a1 1 0 0 1 1 1 1 1 0 0 1 0 1 1 1 0 0 1-1 0 1 1 0 0 1-1 0 1 1 0 0 1 1-2 1 1 0 0 0-1 0 1 1 0 0 0 0 1 1 1 0 0 0 0 1 2 2 0 0 0 1 1 1 1 0 0 0 1 0 1 1 0 0 0 0-1 1 1 0 0 0 0-1 1 1 0 0 0-1-1z" data-name="Path 239"/>
</g>
<path class="cls-55" transform="translate(-151 -323)" d="m172 344s2-5 6-7" data-name="Path 240"/>
<g transform="translate(15 17)" data-name="Group 81">
<path class="cls-54" transform="translate(-168 -339)" d="m169 342a1 1 0 0 1-1-1 1 1 0 0 1 1-2 1 1 0 0 1 1 1 1 1 0 0 1-1 2z" data-name="Path 241"/>
<path class="cls-53" transform="translate(-168 -339)" d="m169 340a1 1 0 0 1 1 0 1 1 0 0 1-1 2 1 1 0 0 1-1-1 1 1 0 0 1 1-1m0-1-1 1a1 1 0 0 0 0 1 1 1 0 0 0 1 1h1v-1a1 1 0 0 0 0-1 2 2 0 0 0-1-1z" data-name="Path 242"/>
</g>
<path class="cls-55" transform="translate(-152 -324)" d="m169 342s4-5 8-7" data-name="Path 243"/>
<g transform="translate(12 13)" data-name="Group 82">
<path class="cls-54" transform="translate(-165 -337)" d="m166 339a1 1 0 0 1-1-1 1 1 0 0 1 0-1 1 1 0 0 1 1 0 1 1 0 0 1 1 1 1 1 0 0 1 0 1 1 1 0 0 1-1 0z" data-name="Path 244"/>
<path class="cls-53" transform="translate(-165 -337)" d="m166 337a1 1 0 0 1 1 1 1 1 0 0 1-1 1 1 1 0 0 1-1-1 1 1 0 0 1 1-1 2 2 0 0 0-1 0 1 1 0 0 0 0 1 1 1 0 0 0 1 1 1 1 0 0 0 1 0 1 1 0 0 0 1-1 1 1 0 0 0-2-1z" data-name="Path 245"/>
</g>
<path class="cls-55" transform="translate(-153 -325)" d="m166 339s6-5 9-5" data-name="Path 246"/>
<g transform="translate(10 9)" data-name="Group 83">
<path class="cls-54" transform="translate(-164 -333)" d="m165 336a1 1 0 0 1-1 0 1 1 0 0 1 0-1 1 1 0 0 1 1-1 1 1 0 0 1 2 1 1 1 0 0 1-2 1z" data-name="Path 247"/>
<path class="cls-53" transform="translate(-164 -333)" d="m165 334a1 1 0 0 1 1 1 1 1 0 0 1-1 1 1 1 0 0 1-1-1 1 1 0 0 1 1-1 1 1 0 0 0-1 1 1 1 0 0 0 1 1 1 1 0 0 0 2-1 1 1 0 0 0-1-1 1 1 0 0 0-1-1z" data-name="Path 248"/>
</g>
<path class="cls-55" transform="translate(-153 -325)" d="m165 336s5-4 9-4" data-name="Path 249"/>
<g transform="translate(10 4)" data-name="Group 84">
<path class="cls-54" transform="translate(-164 -330)" d="m165 332a1 1 0 0 1-1-1 1 1 0 0 1 1-1 1 1 0 0 1 1 2h-1z" data-name="Path 250"/>
<path class="cls-53" transform="translate(-164 -330)" d="m165 330a1 1 0 0 1 1 2 1 1 0 0 1-1 0 1 1 0 0 1-1-1 1 1 0 0 1 1-1 1 1 0 0 0-1 1 2 2 0 0 0 0 1 1 1 0 0 0 1 1 1 1 0 0 0 1-1 2 2 0 0 0 0-1 1 1 0 0 0 0-1 1 1 0 0 0-1 0z" data-name="Path 251"/>
</g>
<path class="cls-55" transform="translate(-153 -326)" d="m165 331s4-2 8-1" data-name="Path 252"/>
</g>
<g transform="translate(31 360)" data-name="Group 99">
<path class="cls-48" transform="translate(-138 -327)" d="m156 330s0 6 2 9 31 12 33 15 3 7-17 8c-18 1-23-2-32-6-8-3-1-18-1-18a79 79 0 0 0-1-10c0-3 16 2 16 2z" data-name="Path 253"/>
<path class="cls-49" transform="translate(-134 -326)" d="m149 329s-1 10 1 12 21 11 27 12" data-name="Path 254"/>
<g transform="translate(9 1)" data-name="Group 87">
<g data-name="Group 86">
<path class="cls-50" transform="translate(-144 -328)" d="m144 328" data-name="Path 255"/>
<path class="cls-51" transform="translate(-144 -327)" d="m144 329c0 4 0 12 3 15 3 4 22 11 29 13" data-name="Path 256"/>
<path class="cls-50" transform="translate(-135 -319)" d="m168 350" data-name="Path 257"/>
</g>
</g>
<path class="cls-52" transform="translate(-126 -321)" d="m168 355c-1-4 0-9 1-12l11 4c2 3 3 7-12 8z" data-name="Path 258"/>
<g transform="translate(0 17)" data-name="Group 88">
<path class="cls-53" transform="translate(-138 -339)" d="m142 352c9 3 15 6 32 5 15 0 18-3 18-6 3 3 2 8-17 8-19 1-24-1-33-5-6-3-5-10-3-15-1 5-1 11 3 13z" data-name="Path 259"/>
</g>
<g transform="translate(37 27)" data-name="Group 89">
<path class="cls-54" transform="translate(-164 -346)" d="m166 349a2 2 0 0 1-1 0 1 1 0 0 1-1-1 1 1 0 0 1 1-1 1 1 0 0 1 1 0 1 1 0 0 1 1 1 1 1 0 0 1 0 1 1 1 0 0 1-1 0z" data-name="Path 260"/>
<path class="cls-53" transform="translate(-164 -346)" d="m166 347a1 1 0 0 1 1 1 1 1 0 0 1-1 1h-1a1 1 0 0 1 0-2 1 1 0 0 1 1 0m0-1a2 2 0 0 0-1 1 1 1 0 0 0-1 1 1 1 0 0 0 1 1 1 1 0 0 0 1 0 2 2 0 0 0 1 0 1 1 0 0 0 0-2 2 2 0 0 0-1-1z" data-name="Path 261"/>
</g>
<path class="cls-55" transform="translate(-127 -321)" d="m165 349a17 17 0 0 1 3-7" data-name="Path 262"/>
<g transform="translate(34 25)" data-name="Group 90">
<path class="cls-54" transform="translate(-162 -345)" d="m163 348a1 1 0 0 1-1-2 1 1 0 0 1 1 0 2 2 0 0 1 1 0 1 1 0 0 1 1 1 1 1 0 0 1-1 1 1 1 0 0 1-1 0z" data-name="Path 263"/>
<path class="cls-53" transform="translate(-162 -345)" d="m164 346a1 1 0 0 1 0 2 1 1 0 0 1-1 0 1 1 0 0 1 0-2m1 0a2 2 0 0 0-2 0 1 1 0 0 0 1 2 1 1 0 0 0 1 0 2 2 0 0 0 1 0 1 1 0 0 0-1-2 2 2 0 0 0-1-1z" data-name="Path 264"/>
</g>
<path class="cls-55" transform="translate(-128 -322)" d="m163 348a17 17 0 0 1 3-7" data-name="Path 265"/>
<g transform="translate(31 24)" data-name="Group 91">
<path class="cls-54" transform="translate(-160 -345)" d="m161 347a1 1 0 0 1-1-2 1 1 0 0 1 1 0 2 2 0 0 1 1 0 1 1 0 0 1 1 1 1 1 0 0 1-1 1 2 2 0 0 1-1 0z" data-name="Path 266"/>
<path class="cls-53" transform="translate(-160 -345)" d="m161 345h1a1 1 0 0 1 0 2 1 1 0 0 1-1 0 1 1 0 0 1 0-2 2 2 0 0 0-1 0 1 1 0 0 0 0 2 1 1 0 0 0 1 0 2 2 0 0 0 2 0 1 1 0 0 0-1-2 4 4 0 0 0-1 0z" data-name="Path 267"/>
</g>
<path class="cls-55" transform="translate(-129 -322)" d="m161 348a17 17 0 0 1 3-8" data-name="Path 268"/>
<g transform="translate(28 23)" data-name="Group 92">
<path class="cls-54" transform="translate(-158 -344)" d="m159 346a2 2 0 0 1-1 0 1 1 0 0 1 0-2 1 1 0 0 1 1 0 2 2 0 0 1 1 0 1 1 0 0 1 0 2h-1z" data-name="Path 269"/>
<path class="cls-53" transform="translate(-158 -344)" d="m159 344h1a1 1 0 0 1 0 2 1 1 0 0 1-1 0 1 1 0 0 1-1-1 1 1 0 0 1 1-1 2 2 0 0 0-1 0 1 1 0 0 0 0 2 1 1 0 0 0 1 0 2 2 0 0 0 1 0 1 1 0 0 0 0-2 4 4 0 0 0-1 0z" data-name="Path 270"/>
</g>
<path class="cls-55" transform="translate(-130 -322)" d="m159 347a17 17 0 0 1 2-8" data-name="Path 271"/>
<g transform="translate(24 21)" data-name="Group 93">
<path class="cls-54" transform="translate(-155 -342)" d="m156 345a1 1 0 0 1-1 0 2 2 0 0 1 0-1 1 1 0 0 1 0-1h1a1 1 0 0 1 1 2h-1z" data-name="Path 272"/>
<path class="cls-53" transform="translate(-155 -342)" d="m156 343a1 1 0 0 1 1 0 1 1 0 0 1 0 2 1 1 0 0 1-1 0 1 1 0 0 1-1-1 1 1 0 0 1 0-1 2 2 0 0 1 1 0m0-1a1 1 0 0 0-1 1 1 1 0 0 0 0 2 2 2 0 0 0 1 0 1 1 0 0 0 1 0 2 2 0 0 0 1-1 2 2 0 0 0-1-1 2 2 0 0 0-1-1z" data-name="Path 273"/>
</g>
<path class="cls-55" transform="translate(-131 -323)" d="m156 345a14 14 0 0 1 3-6" data-name="Path 274"/>
<g transform="translate(19 19)" data-name="Group 94">
<path class="cls-54" transform="translate(-152 -341)" d="m153 343a1 1 0 0 1-1 0 1 1 0 0 1 0-1 1 1 0 0 1 1-1 1 1 0 0 1 1 1 1 1 0 0 1 0 1h-1z" data-name="Path 275"/>
<path class="cls-53" transform="translate(-152 -341)" d="m153 341a1 1 0 0 1 1 1 1 1 0 0 1 0 1 1 1 0 0 1-1 0 1 1 0 0 1-1 0 1 1 0 0 1 1-2 1 1 0 0 0-1 1 1 1 0 0 0 0 1 2 2 0 0 0 1 1 1 1 0 0 0 1 0 1 1 0 0 0 1-1 1 1 0 0 0-1-1 1 1 0 0 0-1-1z" data-name="Path 276"/>
</g>
<path class="cls-55" transform="translate(-132 -323)" d="m153 343a12 12 0 0 1 4-5" data-name="Path 277"/>
<g transform="translate(15 17)" data-name="Group 95">
<path class="cls-54" transform="translate(-149 -339)" d="m150 342a1 1 0 0 1-1-1 1 1 0 0 1 1-2 1 1 0 0 1 1 1 1 1 0 0 1-1 2z" data-name="Path 278"/>
<path class="cls-53" transform="translate(-149 -339)" d="m150 340a1 1 0 0 1 1 0 1 1 0 0 1 0 2h-1a1 1 0 0 1-1-1 1 1 0 0 1 1-1m0-1-1 1a2 2 0 0 0 0 1 1 1 0 0 0 1 1h1l1-1a1 1 0 0 0 0-1 2 2 0 0 0-2-1z" data-name="Path 279"/>
</g>
<path class="cls-55" transform="translate(-133 -323)" d="m150 342a13 13 0 0 1 5-5" data-name="Path 280"/>
<g transform="translate(12 13)" data-name="Group 96">
<path class="cls-54" transform="translate(-146 -337)" d="m147 339a1 1 0 0 1-1-1 1 1 0 0 1 0-1 1 1 0 0 1 1 0 1 1 0 0 1 2 1 1 1 0 0 1-2 1z" data-name="Path 281"/>
<path class="cls-53" transform="translate(-146 -337)" d="m148 337a1 1 0 0 1 0 1 1 1 0 0 1-1 1 1 1 0 0 1-1-1l2-1a2 2 0 0 0-2 0 1 1 0 0 0 0 1 1 1 0 0 0 2 1 1 1 0 0 0 1 0 1 1 0 0 0 0-1 1 1 0 0 0-1-1z" data-name="Path 282"/>
</g>
<path class="cls-55" transform="translate(-134 -324)" d="m147 339s4-3 7-4" data-name="Path 283"/>
<g transform="translate(10 9)" data-name="Group 97">
<path class="cls-54" transform="translate(-145 -333)" d="m146 336a1 1 0 1 1 1-2 1 1 0 0 1 1 1 1 1 0 0 1-2 1z" data-name="Path 284"/>
<path class="cls-53" transform="translate(-145 -333)" d="m146 334a1 1 0 0 1 1 1 1 1 0 0 1-1 1 1 1 0 0 1 0-1 1 1 0 0 1 0-1 1 1 0 0 0-1 1 1 1 0 0 0 1 1 1 1 0 0 0 2-1 1 1 0 0 0-1-1 1 1 0 0 0-1-1z" data-name="Path 285"/>
</g>
<path class="cls-55" transform="translate(-134 -325)" d="m146 335a14 14 0 0 1 7-3" data-name="Path 286"/>
<g transform="translate(10 4)" data-name="Group 98">
<path class="cls-54" transform="translate(-145 -330)" d="m146 332a1 1 0 0 1-1-1 1 1 0 0 1 1-1 1 1 0 0 1 1 0 1 1 0 0 1 0 2 2 2 0 0 1-1 0z" data-name="Path 287"/>
<path class="cls-53" transform="translate(-145 -330)" d="m146 330a1 1 0 0 1 1 0 1 1 0 0 1 0 2 1 1 0 0 1-1 0 1 1 0 0 1-1-1 1 1 0 0 1 1-1 1 1 0 0 0-1 1 2 2 0 0 0 0 1 1 1 0 0 0 1 1 1 1 0 0 0 2-1 2 2 0 0 0 0-1 1 1 0 0 0-1-1 1 1 0 0 0-1 0z" data-name="Path 288"/>
</g>
<path class="cls-55" transform="translate(-135 -326)" d="m146 331a10 10 0 0 1 7 0" data-name="Path 289"/>
</g>
<path transform="translate(-103 -10)" d="m167 375c8 0 12-6 12-14l8-136c0-8-8-10-17-10-8 0-21 8-21 16l7 130c0 8 3 14 11 14z" fill="#004a3f" data-name="Path 290"/>
<path transform="translate(-110 -13)" d="m192 206h-45a17 17 0 0 0-16 16v2a14 14 0 0 0 0 4 9 9 0 0 0 0 3l8 136c0 8 4 14 12 14s11-6 11-15l7-123a3 3 0 0 1 2-2l12-5c16-10 10-11 13-20v-6a4 4 0 0 0-4-4z" fill="#006354" data-name="Path 291"/>
<path transform="translate(-112 -47)" d="m182 256h-31c-17 0-17 0-18-16l-9-99c0-9 16-21 26-21l36-3c10 0 17 10 17 19l-3 104c-2 16 3 16-18 16z" fill="#00b095" data-name="Path 292"/>
<path class="cls-65" transform="translate(-116 -45)" d="m152 135c-1 11-4 21-8 32l-4 16-3 7-1 4v1-1 1a32 32 0 0 0 0 3l1 4 1 8 4 16 5 15 2 8 1 3a13 13 0 0 0 1 1v1h1v3a6 6 0 0 1-3 7 5 5 0 0 1-6-1l-1-2-1-1a20 20 0 0 1-1-2l-3-4-4-8a255 255 0 0 1-13-31l-2-9-1-4a43 43 0 0 1-1-5v-7l1-4 1-8a567 567 0 0 1 13-49 11 11 0 0 1 15-4 10 10 0 0 1 6 10z" data-name="Path 294"/>
<path class="cls-66" transform="translate(-112 -45)" d="m149 257-1-3-1-1a13 13 0 0 1 0-1l-2-4a59 59 0 0 1-2-7 285 285 0 0 1-10-39 35 35 0 0 1 0-4 32 32 0 0 1-1-3v-1 1h1v-1l1-4 2-7 5-16c3-11 6-21 7-32a11 11 0 0 0-18-9 11 11 0 0 1 6 1 11 11 0 0 1 6 10c-1 11-4 22-8 33l-4 15-3 8-1 4v1-1 1a32 32 0 0 0 0 3l1 4 1 8 4 15 4 16 3 7 1 4a13 13 0 0 0 1 1v1l1 3a6 6 0 0 1 0 4 5 5 0 0 0 3 0 6 6 0 0 0 4-7z" data-name="Path 295"/>
<path class="cls-67" transform="translate(-114 -37)" d="m145 150-2 5c-1 1-20-1-23-6l1-6s23 8 24 7z" data-name="Path 296"/>
<path class="cls-68" transform="translate(-114 -45)" d="m146 157s13-27-2-33c-15-7-23 23-24 26-1 4 24 12 26 7z" data-name="Path 297"/>
<path class="cls-65" transform="translate(-105 -67)" d="m149 139a95 95 0 0 0 1-14c0-8-3-16-7-29s8-32 32-29 18 54 14 58-18 1-18 1 3 10 4 10c2 0-9 21-26 3z" data-name="Path 298"/>
<path class="cls-73" transform="translate(-105 -67)" d="m148 114-5-22c-1-6 2-19 19-24s25 6 28 15c-7-6-25 5-25 5v6l-2 3 1 7-2 1-3-8s-3-3-4 1c-2 3-2 13-7 16z" data-name="Path 299"/>
<path class="cls-73" transform="translate(-100 -56)" d="m159 94s4 8 8 8 11-7 20-3c0 0-1 15-4 16-3 2-7 3-17 1s-9-21-9-21z" data-name="Path 300"/>
<path class="cls-65" transform="translate(-96 -54)" d="m168 103s3-4 8-4 5 2 5 2l-1 8s-3 4-8 2a7 7 0 0 1-4-8z" data-name="Path 301"/>
<g transform="translate(23 205)" data-name="Group 100">
<path class="cls-65" transform="translate(-132 -215)" d="m138 216a10 10 0 0 0-5 14l2 4a10 10 0 0 0 14 5 10 10 0 0 0 5-14l-3-4a10 10 0 0 0-13-5z" data-name="Path 302"/>
<path class="cls-65" transform="translate(-132 -212)" d="m134 225a2 2 0 0 0-1 3l8 14a2 2 0 0 0 3 1 2 2 0 0 0 1-3l-7-14a2 2 0 0 0-4-1z" data-name="Path 303"/>
<path class="cls-65" transform="translate(-130 -211)" d="m139 226a2 2 0 0 0-1 4l8 14a2 2 0 0 0 3 1 2 2 0 0 0 1-3l-8-15a2 2 0 0 0-3-1z" data-name="Path 304"/>
<path class="cls-65" transform="translate(-128 -211)" d="m143 227a2 2 0 0 0-1 3l8 14a2 2 0 0 0 3 1 2 2 0 0 0 1-3l-8-14a2 2 0 0 0-3-1z" data-name="Path 305"/>
<path class="cls-65" transform="translate(-127 -212)" d="m145 223a2 2 0 0 0-1 3l8 15a2 2 0 0 0 3 1 2 2 0 0 0 1-4l-7-14a2 2 0 0 0-4-1z" data-name="Path 306"/>
<path class="cls-65" transform="translate(-128 -214)" d="m143 218a2 2 0 0 0 0 3l9 9a2 2 0 0 0 3-1 2 2 0 0 0 0-3l-9-8a2 2 0 0 0-3 0z" data-name="Path 307"/>
</g>
</g>
<g transform="translate(99 344)" data-name="Group 102">
<path class="cls-74" transform="translate(-39 -206)" d="m333 358c0 6-40 10-88 10s-89-4-89-10 40-10 89-10 88 5 88 10z" data-name="Path 308"/>
<path class="cls-75" transform="translate(-32 -243)" d="m276 394h-77l-24-142h126z" data-name="Path 309"/>
<path class="cls-74" transform="translate(-32 -243)" d="m178 275a4306 4306 0 0 0 119 0l4-23a4186 4186 0 0 0-126 0z" data-name="Path 310"/>
<ellipse class="cls-75" cx="208" cy="12" rx="208" ry="12" data-name="Ellipse 15"/>
</g>
<g transform="translate(11 209)" data-name="Group 123">
<g transform="translate(0 99)" data-name="Group 116">
<g transform="translate(27 121)" data-name="Group 109">
<g transform="translate(4)" data-name="Group 105">
<path class="cls-76" transform="translate(-31 -304)" d="M75 360v-48H65v48l-34 17 3 5s36-20 74 0l4-4z" data-name="Path 311"/>
<g transform="translate(0 8)" data-name="Group 103">
<path class="cls-77" transform="translate(-22 -312)" d="M64 313v49l37 18 2-2-37-18v-48H55v1z" data-name="Path 312"/>
<path class="cls-77" transform="translate(-31 -298)" d="m63 348v-1l-32 16v1z" data-name="Path 313"/>
</g>
<g transform="translate(0 8)" data-name="Group 104">
<path class="cls-77" transform="translate(-31 -312)" d="M34 379l33-17v-49h8v-1H65v48l-34 17 3 5h1z" data-name="Path 314"/>
</g>
<path class="cls-78" transform="translate(-22 -304)" d="m64 336h-6a4 4 0 0 1-4-4v-17a4 4 0 0 1 4-3h6a4 4 0 0 1 4 3v17a4 4 0 0 1-4 4z" data-name="Path 315"/>
<path class="cls-79" transform="translate(-22 -304)" d="m66 334h-6a4 4 0 0 1-4-4v-17a4 4 0 0 1 0-1 4 4 0 0 0-2 3v17a4 4 0 0 0 4 3h6a4 4 0 0 0 4-2 4 4 0 0 1-2 1z" data-name="Path 316"/>
<path class="cls-76" transform="translate(-30 -306)" d="M95 318H46a12 12 0 0 1-12-12h74a13 13 0 0 1-13 12z" data-name="Path 317"/>
</g>
<g transform="translate(0 73)" data-name="Group 108">
<g data-name="Group 106">
<path class="cls-76" transform="translate(-28 -358)" d="m42 366a7 7 0 1 0-7 7 7 7 0 0 0 7-7z" data-name="Path 318"/>
<path class="cls-80" transform="translate(-27 -358)" d="m39 365a5 5 0 1 0-5 5 5 5 0 0 0 5-5z" data-name="Path 319"/>
</g>
<g transform="translate(74)" data-name="Group 107">
<path class="cls-76" transform="translate(-81 -358)" d="m96 366a7 7 0 1 0-8 7 7 7 0 0 0 8-7z" data-name="Path 320"/>
<path class="cls-80" transform="translate(-81 -358)" d="m93 365a5 5 0 1 0-5 5 5 5 0 0 0 5-5z" data-name="Path 321"/>
</g>
</g>
</g>
<g transform="translate(23 105)" data-name="Group 110">
<path class="cls-75" transform="translate(-24 -295)" d="M115 315H34a10 10 0 0 1-10-10 10 10 0 0 1 10-10h81a10 10 0 0 1 10 10 10 10 0 0 1-10 10z" data-name="Path 322"/>
<path class="cls-81" transform="translate(-21 -295)" d="M121 307a11 11 0 0 0 1-2 10 10 0 0 0-11-10H33c18 23 58 16 88 12z" data-name="Path 323"/>
<path class="cls-82" transform="translate(-24 -293)" d="M116 310H35a10 10 0 0 1-10-10v-1a10 10 0 0 0-1 4 10 10 0 0 0 10 10h81a10 10 0 0 0 10-9 10 10 0 0 1-9 6z" data-name="Path 324"/>
</g>
<g transform="translate(3)" data-name="Group 111">
<path class="cls-75" transform="translate(-10 -219)" d="m22 224 7 76a6 6 0 0 1-5 7 6 6 0 0 1-7-5l-7-77a6 6 0 0 1 6-6 6 6 0 0 1 6 5z" data-name="Path 325"/>
<path class="cls-83" transform="translate(-9 -219)" d="m21 224a6 6 0 0 0-6-5h-1a6 6 0 0 1 4 5l7 76a6 6 0 0 1-4 7 5 5 0 0 0 2 0 6 6 0 0 0 5-7z" data-name="Path 326"/>
</g>
<g transform="translate(0 34)" data-name="Group 113">
<g data-name="Group 112">
<path class="cls-76" transform="translate(-8 -243)" d="m35 325a3 3 0 0 1-3 2 28 28 0 0 1-24-28l3-50a6 6 0 0 1 5-6l-3 56a22 22 0 0 0 20 22 3 3 0 0 1 2 3z" data-name="Path 327"/>
</g>
<path class="cls-84" transform="translate(-8 -243)" d="m34 326a28 28 0 0 1-25-28l3-51a7 7 0 0 1 2-3 6 6 0 0 0-3 4l-3 51a28 28 0 0 0 24 28 2 2 0 0 0 3-1 3 3 0 0 1-1 0z" data-name="Path 328"/>
</g>
<g transform="translate(30 77)" data-name="Group 115">
<g data-name="Group 114">
<path class="cls-76" transform="translate(-30 -274)" d="m105 318a3 3 0 0 1-3-3v-1c0-19-21-34-48-34h-8c-6 0-11 3-11 7v24a3 3 0 0 1-3 3 3 3 0 0 1-2-3v-24c0-7 7-13 16-13h8c30 0 54 18 54 40v1a3 3 0 0 1-3 3z" data-name="Path 329"/>
</g>
<path class="cls-85" transform="translate(-30 -274)" d="m54 274h-8c-9 0-16 6-16 13v2c0-7 7-13 16-13h8c29 0 53 18 54 39v-1c0-22-24-40-54-40z" data-name="Path 330"/>
</g>
</g>
<g transform="translate(14)" data-name="Group 122">
<g data-name="Group 120">
<path class="cls-86" transform="translate(-3 -145)" d="m59 153a20 20 0 0 1 16 13c5 12 10 8 10 8s-4 15-18 6c-13-9-8-27-8-27z" data-name="Path 331"/>
<path class="cls-87" transform="translate(-4 -127)" d="m56 201s11 6 13 8-5 4-5 4-12-3-8-12z" data-name="Path 332"/>
<path class="cls-88" transform="translate(-7 -125)" d="m66 211 16 25 7 11 4 6 1 1c1 0 1 0 0 0a1 1 0 0 0-1 0v-1h-1 16l15-1 14-1 15-1a5 5 0 0 1 5 5c0 2-3 2-5 2l-2 1-15 4-11 2-14 3-15 2h-6l-2-1a13 13 0 0 0-1 0 18 18 0 0 1-3-2 21 21 0 0 1-1-2 105 105 0 0 1-6-6l-10-12-18-23a11 11 0 1 1 18-14 10 10 0 0 0 0 2z" data-name="Path 333"/>
<path class="cls-87" transform="translate(-6 -125)" d="m72 211s7 5 7 19c-1 13 2 56 6 61s-21 8-25 2c-3-5-27-113 12-82z" data-name="Path 334"/>
<path class="cls-89" transform="translate(-12 -146)" d="M36 235s2-8 7-13 6-10-2-21c-9-15-14-45 12-49 25-3 29 21 29 21l-1 6 6 6c2 1-4 3-4 3l1 4a10 10 0 0 0-1 1s2 2 1 3a9 9 0 0 0-2 3s1 5-1 6H69c-5-1-7 24 6 34 12 8-35 1-39-4z" data-name="Path 335"/>
<path class="cls-88" transform="translate(-7 -102)" d="m46 266s16-4 93 19c2 1 6 5 7 8 3 8-14 56-23 81-5 15-6 7-10 7-7 0 6-25 5-44-2-22 4-22 8-30 0 0-83 11-80-41z" data-name="Path 336"/>
<path class="cls-90" transform="translate(-14 -126)" d="m61 323-10-2c-16-3-27-18-24-33l6-56c0-30 9-30 24-27l3 5c16 3 42 25 18 36l3 64c-2 9-11 15-20 13z" data-name="Path 337"/>
<path class="cls-89" transform="translate(-13 -102)" d="m31 272s26-20 101 17a15 15 0 0 1 6 6c10 17 45 80 48 90 3 12-10 3-30-28-6-10-27-24-33-39a7 7 0 0 0-7-5c-19-2-90-11-85-41z" data-name="Path 338"/>
<path class="cls-90" transform="translate(-15 -104)" d="m98 314s-1-32 43-29c0 0-37-11-61-20-28-11-52 5-52 5s-25 61 70 44z" data-name="Path 339"/>
<g transform="translate(145 256)" data-name="Group 117">
<path class="cls-90" transform="translate(-123 -333)" d="m135 353s-5 11 4 12c8 1 11 7 15 11 3 4 24 3 24 2 1-1-15-9-15-9l-16-19-8-17s-8 5-16 6z" data-name="Path 340"/>
<path class="cls-90" transform="translate(-120 -325)" d="m132 356 6 14h2l-4-9a6 6 0 0 1 6-5c5-1-11-3-10 0z" data-name="Path 341"/>
</g>
<g transform="translate(100 262)" data-name="Group 118">
<path class="cls-90" transform="translate(-90 -337)" d="m93 353s-7 11 1 12 11 8 14 12 22 3 23 2l-14-9-10-15 7-14-17-4z" data-name="Path 342"/>
<path class="cls-90" transform="translate(-90 -330)" d="m91 356 5 14 2 1-4-9a6 6 0 0 1 6-5c4 0-10-3-9-1z" data-name="Path 343"/>
</g>
<path transform="translate(-17 -127)" d="m79 266-5-30s-1-24-6-27l-18-8s-17 1-17 33-15 62-11 62c5 1 13 13 51 10 0 0 9-13 6-40zm-32-26c-9 2-9-18-9-18 4-9 18-13 18-7s1 24-9 25z" fill="#f4efbd" data-name="Path 344"/>
<g transform="translate(21 82)" data-name="Group 119">
<path class="cls-89" transform="translate(-33 -206)" d="m52 212 13 25 14 24 1 2h1-1a2 2 0 0 0-1 0v-1h-2 3a28 28 0 0 0 4-1l13-3 14-3 7-1a44 44 0 0 1 8-1 4 4 0 0 1 1 8 41 41 0 0 0-7 2 61 61 0 0 0-6 2l-14 4-13 5-4 1a24 24 0 0 1-4 1h-4a6 6 0 0 1-2-1 6 6 0 0 1-2-1 6 6 0 0 1-1-1 30 30 0 0 1-3-4l-9-11-8-12-15-24a10 10 0 0 1 17-11v1z" data-name="Path 345"/>
</g>
<path transform="translate(-18 -147)" d="m52 158s2-9-8-10-25 6-21 19 3 30-5 30c0 0 4 4 10-2 0 0-17 17-6 35s2 21-1 20c0 0 12 3 12-10 0-12-4-20 0-24 0 0-3 9 4 10 0 0-4-3 1-9 4-6 10-21 8-35-2-15 2-17 6-24z" fill="#8f6538" data-name="Path 346"/>
<path class="cls-86" transform="translate(-9 -146)" d="m43 189 2 8c-1-5 3-11 3-11-3 7 0 21 10 19 9-1 5-9 5-9 2 3-2 7-6 3s3-14 12-21c8-6 3-19 3-19s1-5-10-7c-12-2-25 20-19 37z" data-name="Path 347"/>
<path class="cls-86" transform="translate(-13 -146)" d="m63 152s-16-4-27 9-3 32 8 43v-6l2 2v-7l1 3 1-9c0-2 8-36 15-35z" data-name="Path 348"/>
<path transform="translate(-10 -129)" d="m62 201s-11-1-18-5l-5 7s14 7 18 5 5-7 5-7z" fill="#eee89c" data-name="Path 349"/>
<path class="cls-88" transform="translate(16 -113)" d="m110 242 13-5h13l9 7v6l-2-4-3-3h-2l2 5v5l-2-4-3-4 2 6-1 3-1-4-3-3h-12c-3-1-10 2-11 2-2-1-3-6 1-7z" data-name="Path 350"/>
<path transform="translate(-7 -128)" d="m51 204s3-7 9-4l2 12 6 48s-4-22-12-32a11 11 0 0 1 4-6c2-2 1-4 1-4l-14-8c-3-3 4-6 4-6z" fill="#e8e07b" data-name="Path 351"/>
<path class="cls-89" transform="translate(10 -113)" d="m94 244 12-5h14l8 7v6l-2-4-3-2-2-1 3 5-1 6-1-5-4-4s3 5 2 6v3l-2-3-3-4h-12c-4-1-9 2-11 2-2-1-3-6 2-7z" data-name="Path 352"/>
</g>
<g transform="translate(99 72)" data-name="Group 121">
<path class="cls-95" transform="translate(-69 -200)" d="m142 271 29-70a2 2 0 0 1 2-1 2 2 0 0 1 1 2l-29 70a2 2 0 0 1-2 1 2 2 0 0 1-1-2z" data-name="Path 353"/>
<path class="cls-96" transform="translate(-89 -181)" d="M165 256H93a3 3 0 0 1-4-4 3 3 0 0 1 4-3h72a3 3 0 0 1 4 3 3 3 0 0 1-4 4z" data-name="Path 354"/>
</g>
</g>
</g>
<g transform="translate(384 213)" data-name="Group 169">
<g transform="translate(3)" data-name="Group 140">
<g transform="translate(36)" data-name="Group 125">
<path class="cls-62" transform="translate(-276 -146)" d="m384 162s3 8 7 9 4-6 4-6-9-1-11-3z" data-name="Path 355"/>
<path class="cls-88" transform="translate(-297 -130)" d="m430 216a92 92 0 0 1-6 14 146 146 0 0 1-8 13 626 626 0 0 1-17 25l-3 3a11 11 0 0 1-1 2 10 10 0 0 1-2 1 6 6 0 0 1-1 1 13 13 0 0 1-2 0 7 7 0 0 1-1 1h-5a11 11 0 0 1-3-1h-2l-3-1-28-10-7-2a60 60 0 0 0-6-1v-1c-4 0-4-3-5-7-2-5 50 2 50 2h4a6 6 0 0 0 1 1h1-2a6 6 0 0 0-1 0l-1 1a1 1 0 0 1-1 0h-1 1a18 18 0 0 0 1-2l7-11 14-26a88 88 0 0 1 8-12 11 11 0 0 1 15-1 10 10 0 0 1 4 11z" data-name="Path 356"/>
<path class="cls-88" transform="translate(-304 -118)" d="m354 242-15-6c-2-1-16 1-17 1s-9 6-10 8-1 7 1 7 1-4 1-4l4-4 3-1-3 7v6l2-5c0-2 4-5 4-5l-3 7 1 4 2-4 3-5h16c4-1 11 3 13 2s4-8-2-8z" data-name="Path 357"/>
<path class="cls-97" transform="translate(-280 -123)" d="m378 222-3 5c0 1 16 13 21 12l3-5-21-12z" data-name="Path 358"/>
<path class="cls-98" transform="translate(-279 -130)" d="m377 227s11-28 26-22-2 33-3 36c-2 3-25-9-23-14z" data-name="Path 359"/>
<path class="cls-97" transform="translate(-274 -132)" d="m397 199s-5 4-6 7c0 0 2-3 3-2a10 10 0 0 1 2 2s2 1 2-1 3-4-1-7z" data-name="Path 360"/>
<path class="cls-89" transform="translate(-277 -148)" d="m432 242s-2-9-6-15-7-20 0-31c8-12 12-32-6-38-21-6-29 7-30 12l-1 5 1 1a2 2 0 0 1 0 3l-7 7c-1 2 4 4 4 4l-1 4a9 9 0 0 0 3 1s-2 1-1 2a5 5 0 0 1 1 3s-1 3 0 5c3 2 6 1 11 3 3 1 4 14-12 23-13 7 40 15 44 11z" data-name="Path 361"/>
<path class="cls-62" transform="translate(-267 -140)" d="m416 177a13 13 0 0 1-4 7s-2 2-2 8v-1s0 4 1 5l1-2s-2 3 2 5c0 0 3-20 2-22" data-name="Path 362"/>
<path class="cls-62" transform="translate(-279 -150)" d="m414 192 1-10a2 2 0 0 0-2-2c-2-1-6-3-6-6 0-5-20-2-26-8l4 1c1-1-10-4-7-14 0 0 6 6 14 6l-3-3a18 18 0 0 0 10-1 8 8 0 0 0-4-2s6-1 10 1l-3-3a27 27 0 0 1 15 4l-4-4a14 14 0 0 1 10 4v-3a35 35 0 0 1 3 4v-3l4 4v-2l1 3a8 8 0 0 1 5 1l-3 1s4 2 4 4h-2s6 8 5 11l-1-1s1 8-1 14l-1-2s-1 7-4 11v-3l-4 6 1 3h-2s0 5 1 7l-2-1s1 3-1 4a8 8 0 0 0 0-3l-2 1 1-3-1 2 1-5 3-18c1-6-6-8-8-3s-5 11-6 8z" data-name="Path 363"/>
<path class="cls-62" transform="translate(-274 -146)" d="m403 166-4 3a8 8 0 0 0 1-2s-6 3-10 1c0 0 5-2 6-4 0-2 7 0 7 2z" data-name="Path 364"/>
<path class="cls-62" transform="translate(-269 -142)" d="m406 172s-3 3-3 4h1v4l1-1s-1 5-2 6a5 5 0 0 0 2-3c2-2 3-9 1-10z" data-name="Path 365"/>
<path transform="translate(-297 -104)" d="m430 273s-8-4-90 8c-3 0-8 3-9 6-4 8-1 57 5 84 3 17 5 9 9 9 7 1 4-43 4-42 1 23-1-25-4-33 0 0 81 21 85-32z" fill="#224171" data-name="Path 366"/>
<path transform="translate(-278 -132)" d="m411 328 10-2c17-3 23-20 20-36l3-70a18 18 0 0 0-15-19c-8-2-16-2-18-1l-9 3c-16 3-22 9-21 40l8 71c2 10 12 16 22 14z" fill="#c9d6e9" data-name="Path 367"/>
<path class="cls-101" transform="translate(-278 -130)" d="m433 294-9 3c-10 2-20-4-22-14l-8-72v-7c-10 4-14 12-13 37l8 72c2 9 12 16 22 14l10-3c16-3 22-17 20-33a24 24 0 0 1-8 3z" data-name="Path 368"/>
<path class="cls-101" transform="translate(-277 -128)" d="m442 213a11 11 0 0 0-15 1 103 103 0 0 0-9 12l-7 12c-3 4-4 9-6 13l-7 12-2-1-13-2 2 19 6 2 4 2h2a24 24 0 0 0 3 1h3a2 2 0 0 0 1 0l1-1a7 7 0 0 0 1 0 6 6 0 0 0 1-1h1l2-2a9 9 0 0 1 2-1l3-4 5-6 4-6 8-13a146 146 0 0 0 8-12l3-8 1-14v-1a12 12 0 0 0-2-2zm-40 50z" data-name="Path 369"/>
<path transform="translate(-306 -103)" d="m466 302c6-7 5-24-4-26-14-4-46-5-102 11-3 0-5 3-7 6-10 16-43 82-46 92-4 12 5 13 26-15 8-11 30-39 37-54a8 8 0 0 1 7-5c17-1 72 9 89-9z" fill="#2d5796" data-name="Path 370"/>
<path class="cls-103" transform="translate(-293 -103)" d="m404 283c2-2 3-5 4-9-16 2-36 6-61 13-3 0-5 3-7 5v2c23 1 52 2 64-11z" data-name="Path 371"/>
<path class="cls-103" transform="translate(-306 -103)" d="m464 276c2 6 1 14-3 18-17 18-72 9-89 10a7 7 0 0 0-7 4c-6 15-29 44-36 54a85 85 0 0 1-22 23c-3 11 5 12 26-16 8-11 30-39 37-54a8 8 0 0 1 7-5c17 0 72 9 89-9 5-6 5-21-2-25z" data-name="Path 372"/>
<path class="cls-89" transform="translate(-289 -130)" d="m449 207a11 11 0 0 0-15 1 103 103 0 0 0-9 12l-7 12-7 13-7 12h-1l-50-7c-2 1 0 2-1 5a6 6 0 0 0 5 7 52 52 0 0 1 6 2l7 2 14 5 14 4 4 1 2 1a24 24 0 0 0 2 1h3a2 2 0 0 0 1 0l1-1h1a7 7 0 0 0 1 0 6 6 0 0 0 1-1h1l2-2a9 9 0 0 1 1-1l3-4 10-12 8-13a146 146 0 0 0 7-12 92 92 0 0 0 6-14 11 11 0 0 0-3-11zm-40 50z" data-name="Path 373"/>
<path class="cls-104" transform="translate(-289 -129)" d="m449 206a12 12 0 0 1 0 7 92 92 0 0 1-6 13 146 146 0 0 1-7 13 626 626 0 0 1-18 25l-3 4a11 11 0 0 1-1 1 10 10 0 0 1-2 1 6 6 0 0 1-1 1 13 13 0 0 1-2 0 7 7 0 0 1 0 1h-6a11 11 0 0 1-2 0l-2-1-4-1-14-5-14-4-7-3a60 60 0 0 0-6-1 8 8 0 0 1-2-1 6 6 0 0 0 5 5v1a52 52 0 0 1 6 1l7 2 28 10 4 1 2 1a24 24 0 0 0 2 0h3a2 2 0 0 0 1 0h2a7 7 0 0 0 1-1 6 6 0 0 0 1 0l1-1 2-1a9 9 0 0 1 1-1l3-4 5-6 5-7 8-12a146 146 0 0 0 7-13 92 92 0 0 0 6-13 11 11 0 0 0-3-12z" data-name="Path 374"/>
<path class="cls-89" transform="translate(-297 -117)" d="m373 243-15-6c-2-1-16 1-17 1s-8 6-9 8-1 7 0 7l1-4 5-4 2-1-3 7 1 6 1-5c0-2 5-5 5-5l-3 7 1 4 2-4 3-5h15c4-1 12 3 13 2 2-1 4-8-2-8z" data-name="Path 375"/>
<g transform="translate(34 127)" data-name="Group 124">
<path class="cls-104" transform="translate(-331 -242)" d="m338 243 2-1h-3l-4 4s-1 4-2 4l1 2 1-5 5-4z" data-name="Path 376"/>
<path class="cls-104" transform="translate(-328 -241)" d="m375 247h-3c-2 0-9-3-13-2h-16l-3 4s0 5-2 5l1 1 2-5 3-4h15c5-1 12 2 14 2l2-1z" data-name="Path 377"/>
<path class="cls-104" transform="translate(-329 -241)" d="m339 246a14 14 0 0 0 3-2s-5 2-5 4l-2 5 1 2 1-6a9 9 0 0 1 2-3z" data-name="Path 378"/>
</g>
<path class="cls-89" transform="translate(-272 -132)" d="m396 203s-2 9-1 11 13-11 14-15c1-3-13 4-13 4z" data-name="Path 379"/>
<path transform="translate(-272 -130)" d="m395 215s0-10 3-11 4 2 4 2-6 10-5 13c0 4-3 1-2-4z" fill="#808da0" data-name="Path 380"/>
<path class="cls-97" transform="translate(-272 -134)" d="m398 206s16-9 18-12 3 3 4 6-15 12-16 12c-1 1-5-4-7-4s1-2 1-2z" data-name="Path 381"/>
<path class="cls-97" transform="translate(-273 -131)" d="m393 203a37 37 0 0 1 2 11c1 6 2-8 1-13a7 7 0 0 0-3 2z" data-name="Path 382"/>
<path class="cls-97" transform="translate(-270 -123)" d="m402 221-2 5c-1 1 15 13 21 12l3-4-22-13z" data-name="Path 383"/>
<path class="cls-98" transform="translate(-270 -130)" d="m401 226s11-28 26-21-1 32-3 35c-1 3-25-9-23-14z" data-name="Path 384"/>
<path class="cls-62" transform="translate(-274 -143)" d="m389 170 2-1v1h3l4 1h-3a42 42 0 0 1-6 0v-1z" data-name="Path 385"/>
</g>
<g transform="translate(97 89)" data-name="Group 139">
<g transform="translate(8 129)" data-name="Group 132">
<g transform="translate(3)" data-name="Group 128">
<path class="cls-76" transform="translate(-358 -306)" d="m398 366v-52h11v52l36 18-3 6s-39-22-79 0l-5-5z" data-name="Path 386"/>
<g transform="translate(0 8)" data-name="Group 126">
<path class="cls-77" transform="translate(-358 -314)" d="m400 316v52l-40 19-2-2 40-19v-52h11v2z" data-name="Path 387"/>
<path class="cls-77" transform="translate(-343 -300)" d="m397 353v-1l34 17-1 1z" data-name="Path 388"/>
</g>
<g transform="translate(40 9)" data-name="Group 127">
<path class="cls-77" transform="translate(-387 -314)" d="m431 386-36-18v-52h-8v-2h11v52l36 18-3 6-1-1z" data-name="Path 389"/>
</g>
<path class="cls-78" transform="translate(-348 -306)" d="m390 340h7a4 4 0 0 0 4-4v-18a4 4 0 0 0-4-4h-7a4 4 0 0 0-4 4v18a4 4 0 0 0 4 4z" data-name="Path 390"/>
<path class="cls-79" transform="translate(-347 -306)" d="m387 338h8a4 4 0 0 0 4-4v-18a4 4 0 0 0-1-2 4 4 0 0 1 3 4v18a4 4 0 0 1-4 4h-7a4 4 0 0 1-4-3 4 4 0 0 0 1 1z" data-name="Path 391"/>
<path class="cls-76" transform="translate(-357 -308)" d="m374 321h52a13 13 0 0 0 13-13h-78a13 13 0 0 0 13 13z" data-name="Path 392"/>
</g>
<g transform="translate(0 78)" data-name="Group 131">
<g transform="translate(79)" data-name="Group 129">
<path class="cls-76" transform="translate(-413 -364)" d="m414 372a8 8 0 1 1 7 8 8 8 0 0 1-7-8z" data-name="Path 393"/>
<path class="cls-80" transform="translate(-413 -364)" d="m415 371a5 5 0 1 1 5 5 5 5 0 0 1-5-5z" data-name="Path 394"/>
</g>
<g data-name="Group 130">
<path class="cls-76" transform="translate(-356 -364)" d="m356 372a8 8 0 1 1 8 8 8 8 0 0 1-8-8z" data-name="Path 395"/>
<path class="cls-80" transform="translate(-355 -364)" d="m358 371a5 5 0 1 1 5 5 5 5 0 0 1-5-5z" data-name="Path 396"/>
</g>
</g>
</g>
<g transform="translate(0 112)" data-name="Group 133">
<path class="cls-75" transform="translate(-350 -296)" d="m361 318h86a11 11 0 0 0 11-11 11 11 0 0 0-11-11h-86a11 11 0 0 0-11 11 11 11 0 0 0 11 11z" data-name="Path 397"/>
<path class="cls-81" transform="translate(-350 -296)" d="m351 309a12 12 0 0 1-1-2 11 11 0 0 1 11-11h84c-19 26-62 17-94 13z" data-name="Path 398"/>
<path class="cls-82" transform="translate(-350 -294)" d="m360 313h86a11 11 0 0 0 11-12 12 12 0 0 1 1 4 11 11 0 0 1-11 11h-86a11 11 0 0 1-10-10 11 11 0 0 0 9 7z" data-name="Path 399"/>
</g>
<g transform="translate(108)" data-name="Group 134">
<path class="cls-75" transform="translate(-428 -215)" d="m436 221-8 81a7 7 0 0 0 6 7 7 7 0 0 0 8-6l7-81a7 7 0 0 0-6-7 7 7 0 0 0-7 6z" data-name="Path 400"/>
<path class="cls-83" transform="translate(-428 -215)" d="m436 221a7 7 0 0 1 7-6 3 3 0 0 1 1 0 7 7 0 0 0-5 6l-7 81a7 7 0 0 0 5 7 12 12 0 0 1-3 0 7 7 0 0 1-5-7z" data-name="Path 401"/>
</g>
<g transform="translate(102 36)" data-name="Group 136">
<g data-name="Group 135">
<path class="cls-76" transform="translate(-424 -241)" d="m425 328a3 3 0 0 0 3 3 30 30 0 0 0 26-30l-3-54a6 6 0 0 0-7-6l4 60a24 24 0 0 1-21 24 3 3 0 0 0-2 3z" data-name="Path 402"/>
</g>
<path class="cls-84" transform="translate(-424 -241)" d="m426 329a30 30 0 0 0 26-30l-3-54a7 7 0 0 0-1-3 6 6 0 0 1 3 5l3 54a30 30 0 0 1-26 30 3 3 0 0 1-3-2 2 2 0 0 0 1 0z" data-name="Path 403"/>
</g>
<g transform="translate(16 82)" data-name="Group 138">
<g data-name="Group 137">
<path class="cls-76" transform="translate(-362 -274)" d="m365 321a3 3 0 0 0 3-3v-1c0-21 23-37 51-37h9c6 0 12 4 12 8v26a3 3 0 0 0 3 2 3 3 0 0 0 2-2v-26c0-7-8-14-17-14h-9c-31 0-57 19-57 43v1a3 3 0 0 0 3 3z" data-name="Path 404"/>
</g>
<path class="cls-85" transform="translate(-362 -274)" d="m419 274h9c9 0 17 6 17 14v2c0-8-8-14-17-14h-9c-31 0-57 19-57 42v-1c0-24 26-43 57-43z" data-name="Path 405"/>
</g>
</g>
<path class="cls-95" transform="translate(-280 -132)" d="m312 271-28-70a2 2 0 0 0-3-1 2 2 0 0 0-1 2l29 70a2 2 0 0 0 2 1 2 2 0 0 0 1-2z" data-name="Path 406"/>
<path class="cls-96" transform="translate(-273 -113)" d="m302 256h72a3 3 0 0 0 4-4 3 3 0 0 0-4-3h-72a3 3 0 0 0-3 3 3 3 0 0 0 3 4z" data-name="Path 407"/>
</g>
<g transform="translate(0 266)" data-name="Group 154">
<path transform="translate(-277 -343)" d="m322 348s-3 4-7 5-29-11-33-10-6 3 7 16c13 11 18 13 27 16 7 2 12-12 12-12a71 71 0 0 1 6-7c2-2-12-8-12-8z" fill="#a3293a" data-name="Path 408"/>
<path d="m47 7s-6 7-9 7-21-5-26-7" fill="none" stroke="#7a1f2c" stroke-linecap="round" stroke-miterlimit="10" data-name="Path 409"/>
<g transform="translate(10 9)" data-name="Group 142">
<g data-name="Group 141">
<path class="cls-108" transform="translate(-273 -349)" d="m316 349a4 4 0 0 0-1 1" data-name="Path 410"/>
<path d="m41 2c-2 2-7 8-11 9-5 0-22-6-29-9" fill="none" stroke="#fff" stroke-dasharray="1.023 1.023" stroke-linecap="round" stroke-miterlimit="10" stroke-width="0" data-name="Path 411"/>
<path class="cls-108" transform="translate(-285 -349)" d="m286 351-1-1" data-name="Path 412"/>
</g>
</g>
<path class="cls-52" transform="translate(-277 -343)" d="m286 356c3-2 6-7 7-10-5-2-9-4-11-3-3 0-6 2 4 13z" data-name="Path 413"/>
<g transform="translate(0 1)" data-name="Group 143">
<path class="cls-53" transform="translate(-278 -343)" d="m316 374c-9-2-14-4-26-15-10-10-11-14-10-16-3 1-5 5 8 17s18 13 27 16c5 2 9-4 11-8-2 4-6 8-10 6z" data-name="Path 414"/>
</g>
<g transform="translate(14 9)" data-name="Group 144">
<path class="cls-54" transform="translate(-288 -349)" d="m289 352a1 1 0 1 1 1-1 1 1 0 0 1-1 1z" data-name="Path 415"/>
<path class="cls-53" transform="translate(-288 -349)" d="m289 350a1 1 0 1 1-1 1 1 1 0 0 1 1-1m0-1a1 1 0 1 0 1 2l-1-2z" data-name="Path 416"/>
</g>
<path class="cls-110" transform="translate(-274 -341)" d="m289 352a17 17 0 0 0 2-7" data-name="Path 417"/>
<g transform="translate(17 10)" data-name="Group 145">
<path class="cls-54" transform="translate(-290 -350)" d="m291 352a1 1 0 1 1 1-1 1 1 0 0 1-1 1z" data-name="Path 418"/>
<path class="cls-53" transform="translate(-290 -350)" d="m291 350a1 1 0 1 1-1 1 1 1 0 0 1 1-1 1 1 0 1 0 1 1 1 1 0 0 0-1-1z" data-name="Path 419"/>
</g>
<path class="cls-110" transform="translate(-273 -341)" d="m291 353a17 17 0 0 0 2-7" data-name="Path 420"/>
<g transform="translate(20 11)" data-name="Group 146">
<path class="cls-54" transform="translate(-292 -351)" d="m293 353a1 1 0 1 1 1-1 1 1 0 0 1-1 1z" data-name="Path 421"/>
<path class="cls-53" transform="translate(-292 -351)" d="m293 351a1 1 0 1 1-1 1 1 1 0 0 1 1-1 1 1 0 1 0 1 1 1 1 0 0 0-1-1z" data-name="Path 422"/>
</g>
<path class="cls-110" transform="translate(-272 -341)" d="m293 354a17 17 0 0 0 3-7" data-name="Path 423"/>
<g transform="translate(22 12)" data-name="Group 147">
<path class="cls-54" transform="translate(-294 -351)" d="m295 354a1 1 0 1 1 1-1 1 1 0 0 1-1 1z" data-name="Path 424"/>
<path class="cls-53" transform="translate(-294 -351)" d="m295 352a1 1 0 1 1-1 1 1 1 0 0 1 1-1m0-1a1 1 0 1 0 2 2 1 1 0 0 0-2-2z" data-name="Path 425"/>
</g>
<path class="cls-110" transform="translate(-271 -341)" d="m295 354a17 17 0 0 0 3-6" data-name="Path 426"/>
<g transform="translate(26 14)" data-name="Group 148">
<path class="cls-54" transform="translate(-297 -352)" d="m298 355a1 1 0 0 1-1-1 1 1 0 0 1 1-1 1 1 0 0 1 1 0 1 1 0 0 1-1 2z" data-name="Path 427"/>
<path class="cls-53" transform="translate(-297 -352)" d="m298 353a1 1 0 0 1 1 1l-1 1a1 1 0 0 1-1-1l1-1m0-1a1 1 0 0 0-1 2 1 1 0 0 0 1 1 1 1 0 0 0 1-1 1 1 0 0 0-1-2z" data-name="Path 428"/>
</g>
<path class="cls-110" transform="translate(-270 -340)" d="m298 355a16 16 0 0 0 1-7" data-name="Path 429"/>
<g transform="translate(31 15)" data-name="Group 149">
<path class="cls-54" transform="translate(-300 -353)" d="m301 355a1 1 0 0 1-1 0 1 1 0 0 1 1-2 1 1 0 0 1 1 1 1 1 0 0 1 0 1h-1z" data-name="Path 430"/>
<path class="cls-53" transform="translate(-300 -353)" d="m301 353a1 1 0 0 1 1 1 1 1 0 0 1 0 1h-1a1 1 0 0 1-1 0 1 1 0 0 1 1-1 1 1 0 0 1 0-1 2 2 0 0 0-1 1 1 1 0 0 0 0 1 1 1 0 0 0 1 1 1 1 0 0 0 1 0 2 2 0 0 0 1-1 1 1 0 0 0 0-1 1 1 0 0 0-2-1z" data-name="Path 431"/>
</g>
<path class="cls-110" transform="translate(-269 -340)" d="m301 356a18 18 0 0 0 0-7" data-name="Path 432"/>
<g transform="translate(35 15)" data-name="Group 150">
<path class="cls-54" transform="translate(-303 -354)" d="m304 356a1 1 0 0 1-1 0 1 1 0 0 1 1-2 1 1 0 0 1 1 0 1 1 0 0 1 0 2h-1z" data-name="Path 433"/>
<path class="cls-53" transform="translate(-303 -354)" d="m304 354a1 1 0 0 1 1 1 1 1 0 0 1 0 1h-1a1 1 0 0 1 0-1 1 1 0 0 1 0-1 1 1 0 0 0-1 1 1 1 0 0 0 0 1 1 1 0 0 0 1 0 6 6 0 0 0 1 0 1 1 0 0 0 0-2 2 2 0 0 0-1 0z" data-name="Path 434"/>
</g>
<path class="cls-110" transform="translate(-268 -340)" d="m304 357a17 17 0 0 0-1-7" data-name="Path 435"/>
<g transform="translate(39 15)" data-name="Group 151">
<path class="cls-54" transform="translate(-306 -354)" d="m308 356a2 2 0 0 1-1 0 1 1 0 0 1 0-2 1 1 0 0 1 1 0 2 2 0 0 1 1 0 1 1 0 0 1 0 2 2 2 0 0 1-1 0z" data-name="Path 436"/>
<path class="cls-53" transform="translate(-306 -354)" d="m308 354a1 1 0 0 1 0 2h-1a1 1 0 0 1 0-2h1a1 1 0 0 0-1 0 1 1 0 0 0 0 2 1 1 0 1 0 2-2 2 2 0 0 0-1 0z" data-name="Path 437"/>
</g>
<path class="cls-110" transform="translate(-267 -340)" d="m308 357a22 22 0 0 0-3-7" data-name="Path 438"/>
<g transform="translate(43 13)" data-name="Group 152">
<path class="cls-54" transform="translate(-309 -352)" d="m311 354a1 1 0 0 1-1 0 1 1 0 0 1-1-1 1 1 0 0 1 1 0 1 1 0 0 1 1-1 1 1 0 0 1 0 2z" data-name="Path 439"/>
<path class="cls-53" transform="translate(-309 -352)" d="m311 352a1 1 0 0 1 0 1 1 1 0 0 1 0 1 1 1 0 0 1-1 0 1 1 0 0 1 0-1l1-1a1 1 0 0 0-1 1 1 1 0 0 0-1 1 1 1 0 0 0 1 0 2 2 0 0 0 1 1 1 1 0 0 0 1-1 1 1 0 0 0-1-2z" data-name="Path 440"/>
</g>
<path class="cls-110" transform="translate(-267 -340)" d="m311 355a20 20 0 0 0-4-7" data-name="Path 441"/>
<g transform="translate(47 10)" data-name="Group 153">
<path class="cls-54" transform="translate(-312 -349)" d="m313 352a1 1 0 0 1-1-1 1 1 0 0 1 1-1 1 1 0 0 1 1 1 1 1 0 0 1-1 1z" data-name="Path 442"/>
<path class="cls-53" transform="translate(-312 -350)" d="m313 350 1 1a1 1 0 0 1-1 1l-1-1a1 1 0 0 1 1-1 1 1 0 0 0-1 0 1 1 0 0 0 1 2 1 1 0 0 0 1-1 1 1 0 0 0-1-1z" data-name="Path 443"/>
</g>
<path class="cls-110" transform="translate(-266 -341)" d="m314 352a10 10 0 0 0-5-5" data-name="Path 444"/>
</g>
<g transform="translate(45 267)" data-name="Group 168">
<path transform="translate(-310 -343)" d="m343 345s0 8-2 11-27 13-29 16-4 6 14 6c16 0 13-5 26-6 9 0 6-17 6-17v-11c0-3-15 1-15 1z" fill="#7a1f2c" data-name="Path 445"/>
<path transform="translate(-306 -343)" d="m346 344s0 13-2 15-19 10-24 11" fill="none" stroke="#7a1f2c" stroke-linecap="round" stroke-miterlimit="10" data-name="Path 446"/>
<path class="cls-52" transform="translate(-310 -337)" d="m321 360-9 5c-2 3-4 6 14 7h1c2-4-2-9-6-12z" data-name="Path 447"/>
<g transform="translate(0 3)" data-name="Group 155">
<path class="cls-53" transform="translate(-310 -341)" d="m352 367c-14 1-10 5-26 5-11 0-15-1-15-3-1 3 0 5 15 5 16 0 12-4 26-6 5 0 7-5 6-10 0 4-2 8-6 9z" data-name="Path 449"/>
</g>
<g transform="translate(15 2)" data-name="Group 157">
<g data-name="Group 156">
<path class="cls-113" transform="translate(-313 -345)" d="m342 345v1" data-name="Path 450"/>
<path d="m29 2c0 4 0 11-2 14-3 4-19 12-26 14" fill="none" stroke="#fff" stroke-dasharray=".998 .998" stroke-linecap="round" stroke-miterlimit="10" stroke-width="0" data-name="Path 451"/>
<path class="cls-113" transform="translate(-321 -337)" d="m322 367a1 1 0 0 1-1 0" data-name="Path 452"/>
</g>
</g>
<g transform="translate(17 28)" data-name="Group 158">
<path class="cls-54" transform="translate(-323 -363)" d="m324 366a2 2 0 0 1-1-1 1 1 0 0 1 0-1 1 1 0 0 1 1-1 2 2 0 0 1 1 1 1 1 0 0 1 0 1l-1 1z" data-name="Path 453"/>
<path class="cls-53" transform="translate(-323 -363)" d="m324 364h1a1 1 0 0 1 0 1 1 1 0 0 1-1 1l-1-1a1 1 0 0 1 0-1h1m0-1a1 1 0 0 0-1 1 1 1 0 0 0 0 2 1 1 0 0 0 1 0 1 1 0 0 0 1 0 1 1 0 0 0 0-1 1 1 0 0 0 0-1 1 1 0 0 0-1-1z" data-name="Path 454"/>
</g>
<path class="cls-115" transform="translate(-307 -337)" d="m325 366s-2-6-5-7" data-name="Path 455"/>
<g transform="translate(20 27)" data-name="Group 159">
<path class="cls-54" transform="translate(-325 -362)" d="m326 365a2 2 0 0 1-1-1 2 2 0 0 1 0-1 1 1 0 0 1 1-1 2 2 0 0 1 1 1 1 1 0 0 1 0 1 1 1 0 0 1-1 1z" data-name="Path 456"/>
<path class="cls-53" transform="translate(-325 -362)" d="m326 363h1a1 1 0 0 1 0 1 1 1 0 0 1-1 0h-1a1 1 0 0 1 0-1 2 2 0 0 1 1 0m0-1a1 1 0 0 0-1 1 1 1 0 0 0 0 2 1 1 0 0 0 1 0 1 1 0 0 0 1 0 1 1 0 0 0 0-1 1 1 0 0 0 0-1 1 1 0 0 0-1-1z" data-name="Path 457"/>
</g>
<path class="cls-115" transform="translate(-306 -337)" d="m327 365a8 8 0 0 0-5-7" data-name="Path 458"/>
<g transform="translate(23 25)" data-name="Group 160">
<path class="cls-54" transform="translate(-327 -361)" d="m328 364a2 2 0 0 1-1-1 2 2 0 0 1 0-1 1 1 0 0 1 1-1 1 1 0 1 1 0 3z" data-name="Path 459"/>
<path class="cls-53" transform="translate(-327 -361)" d="m328 362h1a1 1 0 0 1 0 1 1 1 0 0 1-1 0h-1a1 1 0 0 1 0-1 1 1 0 0 1 1 0m0-1a1 1 0 0 0-1 1 1 1 0 0 0 0 2 1 1 0 0 0 1 0 1 1 0 0 0 1 0 1 1 0 0 0 0-2 1 1 0 0 0-1-1z" data-name="Path 460"/>
</g>
<path class="cls-115" transform="translate(-305 -338)" d="m329 364s-1-5-5-7" data-name="Path 461"/>
<g transform="translate(25 24)" data-name="Group 161">
<path class="cls-54" transform="translate(-329 -360)" d="m330 363a2 2 0 0 1-1-1 1 1 0 0 1 0-1 1 1 0 0 1 1 0 2 2 0 0 1 1 0 1 1 0 0 1 0 1 2 2 0 0 1 0 1 2 2 0 0 1-1 0z" data-name="Path 462"/>
<path class="cls-53" transform="translate(-329 -360)" d="m330 361h1a1 1 0 0 1 0 1 1 1 0 0 1-1 1l-1-1a1 1 0 0 1 0-1 1 1 0 0 1 1 0m0-1a1 1 0 0 0-1 1 1 1 0 0 0 0 1 1 1 0 0 0 1 1 1 1 0 0 0 1-1 1 1 0 0 0 0-1 2 2 0 0 0-1-1z" data-name="Path 463"/>
</g>
<path class="cls-115" transform="translate(-304 -338)" d="m331 363s-1-5-5-6" data-name="Path 464"/>
<g transform="translate(29 22)" data-name="Group 162">
<path class="cls-54" transform="translate(-331 -359)" d="m332 361a1 1 0 0 1-1 0 2 2 0 0 1 0-1 1 1 0 0 1 1-1l1 1a1 1 0 0 1 0 1 1 1 0 0 1-1 0z" data-name="Path 465"/>
<path class="cls-53" transform="translate(-331 -359)" d="m332 360a1 1 0 0 1 1 0 1 1 0 0 1 0 1 1 1 0 0 1-1 0 1 1 0 0 1 0-1m0-1a1 1 0 0 0-1 1 2 2 0 0 0 0 1 1 1 0 0 0 1 0v1a1 1 0 0 0 1-1 1 1 0 0 0 0-2 1 1 0 0 0-1 0z" data-name="Path 466"/>
</g>
<path class="cls-115" transform="translate(-303 -338)" d="m334 362s-2-5-6-7" data-name="Path 467"/>
<g transform="translate(33 20)" data-name="Group 163">
<path class="cls-54" transform="translate(-334 -357)" d="m335 360a1 1 0 0 1-1-1 1 1 0 0 1 0-1 1 1 0 0 1 1 0 1 1 0 0 1 1 0 1 1 0 0 1 0 1 1 1 0 0 1-1 1z" data-name="Path 468"/>
<path class="cls-53" transform="translate(-334 -357)" d="m335 358a1 1 0 0 1 1 0 1 1 0 0 1 0 1 1 1 0 0 1-1 1 1 1 0 0 1-1-2 1 1 0 0 1 1 0m0-1a1 1 0 0 0-1 1 1 1 0 0 0 1 2 1 1 0 0 0 1-1 1 1 0 0 0 0-1l-1-1z" data-name="Path 469"/>
</g>
<path class="cls-115" transform="translate(-303 -339)" d="m336 360-6-6" data-name="Path 470"/>
<g transform="translate(36 17)" data-name="Group 164">
<path class="cls-54" transform="translate(-336 -356)" d="m338 358h-1a1 1 0 0 1 0-1 1 1 0 0 1 1-1 1 1 0 0 1 1 0v1a1 1 0 0 1-1 1z" data-name="Path 471"/>
<path class="cls-53" transform="translate(-336 -356)" d="m338 356a1 1 0 0 1 1 1 1 1 0 0 1-1 1 1 1 0 0 1-1-1 1 1 0 0 1 1-1 1 1 0 0 0-1 1 1 1 0 0 0 0 1h1a1 1 0 0 0 1-1 1 1 0 0 0 0-1 1 1 0 0 0-1 0z" data-name="Path 472"/>
</g>
<path class="cls-115" transform="translate(-302 -340)" d="m339 358s-4-4-7-5" data-name="Path 473"/>
<g transform="translate(39 14)" data-name="Group 165">
<path class="cls-54" transform="translate(-339 -353)" d="m340 356a2 2 0 0 1-1 0 1 1 0 0 1 0-1 1 1 0 1 1 2 0 1 1 0 0 1-1 1z" data-name="Path 474"/>
<path class="cls-53" transform="translate(-339 -353)" d="m340 354a1 1 0 0 1 0 2 1 1 0 0 1-1-1 1 1 0 0 1 1-1m0-1a1 1 0 1 0 1 2 1 1 0 0 0-1-2z" data-name="Path 475"/>
</g>
<path class="cls-115" transform="translate(-302 -340)" d="m342 356s-5-4-9-5" data-name="Path 476"/>
<g transform="translate(40 10)" data-name="Group 166">
<path class="cls-54" transform="translate(-339 -350)" d="m341 353a1 1 0 0 1-1-1 1 1 0 0 1 0-1 1 1 0 0 1 1 0 1 1 0 0 1 1 0 1 1 0 0 1 0 1 1 1 0 0 1-1 1z" data-name="Path 477"/>
<path class="cls-53" transform="translate(-339 -350)" d="m341 351a1 1 0 0 1 1 1l-1 1a1 1 0 0 1-1-1 1 1 0 0 1 1-1m0-1a1 1 0 0 0-1 2 1 1 0 0 0 1 1 2 2 0 0 0 1-1 1 1 0 0 0-1-2z" data-name="Path 478"/>
</g>
<path class="cls-115" transform="translate(-302 -341)" d="m343 352s-6-3-10-3" data-name="Path 479"/>
<g transform="translate(40 5)" data-name="Group 167">
<path class="cls-54" transform="translate(-339 -347)" d="m341 349a1 1 0 0 1-1 0 1 1 0 0 1 0-1 1 1 0 0 1 0-1h1a1 1 0 0 1 1 1 1 1 0 0 1-1 1z" data-name="Path 480"/>
<path class="cls-53" transform="translate(-340 -347)" d="m341 347a1 1 0 0 1 1 1 1 1 0 0 1-1 1 1 1 0 0 1-1 0 1 1 0 0 1 0-1l1-1a1 1 0 0 0-1 0 1 1 0 0 0 0 2 1 1 0 0 0 1 1 1 1 0 0 0 0-1 1 1 0 0 0 1-1 1 1 0 0 0-1-1z" data-name="Path 481"/>
</g>
<path class="cls-115" transform="translate(-301 -342)" d="m343 348s-6-2-9-1" data-name="Path 482"/>
</g>
</g>
<g transform="translate(254 249)" data-name="Group 172">
<path class="cls-76" transform="translate(49 82)" d="M0 0h15v23H0z" data-name="Rectangle 20"/>
<path class="cls-116" transform="translate(49 82)" d="M0 0h15v5H0z" data-name="Rectangle 21"/>
<path class="cls-76" transform="translate(-183 -176)" d="M290 260H190a7 7 0 0 1-6-6v-71a7 7 0 0 1 6-7h100a7 7 0 0 1 7 7v71a7 7 0 0 1-7 6z" data-name="Path 483"/>
<path transform="translate(-183 -176)" d="M292 177a7 7 0 0 1 0 1v71a7 7 0 0 1-6 7H186a9 9 0 0 1-2-1 7 7 0 0 0 6 5h100a7 7 0 0 0 7-6v-71a6 6 0 0 0-5-6z" fill="#212f38" data-name="Path 484"/>
<ellipse class="cls-118" transform="translate(17 100)" cx="40" cy="5" rx="40" ry="5" data-name="Ellipse 16"/>
<path class="cls-116" transform="translate(-175 -150)" d="m257 256h-50a1 1 0 0 1-2-1 9 9 0 0 1 9-9h36a9 9 0 0 1 8 9 1 1 0 0 1-1 1z" data-name="Path 485"/>
<g transform="translate(28 35)" data-name="Group 171">
<path class="cls-119" transform="translate(-204 -201)" d="m258 238h-51a3 3 0 0 1-3-3v-31a3 3 0 0 1 3-2h51a3 3 0 0 1 3 2v31a3 3 0 0 1-3 3z" data-name="Path 486"/>
<g transform="translate(40 24)" data-name="Group 170">
<path class="cls-120" transform="translate(-233 -218)" d="m233 229a1 1 0 0 1 0-1v-9a1 1 0 0 1 1 0v9a1 1 0 0 1-1 1z" data-name="Path 487"/>
<path class="cls-120" transform="translate(-232 -218)" d="m235 229a1 1 0 0 1-1-1v-9a1 1 0 0 1 1 0 1 1 0 0 1 1 0v9a1 1 0 0 1-1 1z" data-name="Path 488"/>
<path class="cls-120" transform="translate(-231 -218)" d="m236 229a1 1 0 0 1 0-1v-9a1 1 0 0 1 1 0v9a1 1 0 0 1-1 1z" data-name="Path 489"/>
<path class="cls-120" transform="translate(-231 -218)" d="m238 229a1 1 0 0 1 0-1v-9a1 1 0 0 1 1 0v9a1 1 0 0 1-1 1z" data-name="Path 490"/>
<path class="cls-120" transform="translate(-230 -218)" d="m240 229a1 1 0 0 1-1-1v-9a1 1 0 0 1 1 0v9a1 1 0 0 1 0 1z" data-name="Path 491"/>
<path class="cls-120" transform="translate(-229 -218)" d="m241 229a1 1 0 0 1 0-1v-9a1 1 0 0 1 1 0v9a1 1 0 0 1-1 1z" data-name="Path 492"/>
<path class="cls-120" transform="translate(-229 -218)" d="m243 229a1 1 0 0 1-1-1v-9a1 1 0 0 1 1 0 1 1 0 0 1 1 0v9a1 1 0 0 1-1 1z" data-name="Path 493"/>
</g>
</g>
</g>
<g transform="translate(224 329)" data-name="Group 174">
<ellipse class="cls-118" transform="translate(1 20)" cx="14" cy="3" rx="14" ry="3" data-name="Ellipse 17"/>
<g data-name="Group 173">
<path class="cls-90" transform="translate(-161 -235)" d="m172 258h7a7 7 0 0 0 8-7v-15a2 2 0 0 0-2-1h-18a2 2 0 0 0-2 1v15a7 7 0 0 0 7 7z" data-name="Path 494"/>
<path transform="translate(-160 -235)" d="m185 235h-1v15a7 7 0 0 1-7 7h-7a7 7 0 0 1-4-1 7 7 0 0 0 6 2h7a7 7 0 0 0 7-7v-15a2 2 0 0 0-1-1z" fill="#541400" data-name="Path 495"/>
<path d="m0 11a7 7 0 1 0 7-8 7 7 0 0 0-7 8z" fill="none" stroke="#631700" stroke-miterlimit="10" stroke-width="2" data-name="Path 496"/>
</g>
</g>
<g transform="translate(371 328)" data-name="Group 176">
<ellipse class="cls-118" transform="translate(1 20)" cx="14" cy="3" rx="14" ry="3" data-name="Ellipse 18"/>
<g data-name="Group 175">
<path class="cls-119" transform="translate(-267 -234)" d="m278 258h8a7 7 0 0 0 7-8v-14a2 2 0 0 0-2-2h-18a2 2 0 0 0-2 2v14a7 7 0 0 0 7 8z" data-name="Path 497"/>
<path transform="translate(-266 -234)" d="m291 234v15a7 7 0 0 1-8 7h-7a7 7 0 0 1-4-1 7 7 0 0 0 6 3h7a7 7 0 0 0 7-8v-15a2 2 0 0 0-1-1z" fill="#141f24" data-name="Path 498"/>
<path d="m0 11a7 7 0 1 0 7-8 7 7 0 0 0-7 8z" fill="none" stroke="#19252b" stroke-miterlimit="10" stroke-width="2" data-name="Path 499"/>
</g>
</g>
</g>
</svg>
