<svg xmlns="http://www.w3.org/2000/svg" viewBox="0 0 169.6 23.3"><defs><style>.cls-1{fill:#fff;}</style></defs><title>資產 2</title><g id="圖層_2" data-name="圖層 2"><g id="圖層_1-2" data-name="圖層 1"><path class="cls-1" d="M109.5,15.2l-.4,2.9h-6.5a8.6,8.6,0,0,1-3.1-.4,3.2,3.2,0,0,1-1.8-1,2.8,2.8,0,0,1-.6-1.8,15.7,15.7,0,0,1,.3-2.7,11.1,11.1,0,0,1,.7-2.6,4.4,4.4,0,0,1,1.2-1.8,5.3,5.3,0,0,1,2.1-1.1,15.1,15.1,0,0,1,3.4-.4,8.6,8.6,0,0,1,3.1.4,3.2,3.2,0,0,1,1.8,1,2.4,2.4,0,0,1,.6,1.7,6.9,6.9,0,0,1-.2,2.4l-.2,1.5h-9.1a1.4,1.4,0,0,0,0,.9c0,.2.2.4.4.6l.8.3h7.5ZM104.4,9h-1.3a1.7,1.7,0,0,0-1,.3l-.6.6-.3,1h5.6a3.3,3.3,0,0,0,0-1,.6.6,0,0,0-.3-.6,1.1,1.1,0,0,0-.8-.3Z"/><path class="cls-1" d="M80.1,15.2l-.5,2.9H73.3a9.2,9.2,0,0,1-3.2-.4,2.6,2.6,0,0,1-1.7-1,2.8,2.8,0,0,1-.6-1.8,9,9,0,0,1,.2-2.7,19.7,19.7,0,0,1,.7-2.6A4.6,4.6,0,0,1,70,7.8a4.2,4.2,0,0,1,2.1-1.1,14.9,14.9,0,0,1,3.3-.4,9.2,9.2,0,0,1,3.2.4,2.9,2.9,0,0,1,1.7,1A2.9,2.9,0,0,1,81,9.4a23.2,23.2,0,0,1-.2,2.4l-.3,1.5H71.4v.9a2.1,2.1,0,0,0,.4.6l.8.3h7.5ZM75.1,9H73.7a1.2,1.2,0,0,0-.9.3.9.9,0,0,0-.6.6,1.7,1.7,0,0,0-.3,1h5.5a3.8,3.8,0,0,0,.1-1,.9.9,0,0,0-.4-.6,1,1,0,0,0-.8-.3Z"/><path class="cls-1" d="M82.5,20.2h1l.9-.3.8-.5a3.5,3.5,0,0,0,.7-.9L82.4,6.7h4.1l2,7.6,4.7-7.6h4.1L88.9,19.6l-1.3,1.7a5.7,5.7,0,0,1-1.5,1.2,7.6,7.6,0,0,1-1.8.6l-2.4.2H80.5l1.7-3.1Z"/><path class="cls-1" d="M14.8,11.1H5.4l-.6,3.3h9.5l-.7,3.7H0L3.1.9H16.7L16,4.6H6.6L6,7.8h9.4Z"/><path class="cls-1" d="M17.8,9.5l.5-2.9h5.5a12.6,12.6,0,0,1,3,.3,7.5,7.5,0,0,1,1.8.8,3.6,3.6,0,0,1,.8,1.5,7.9,7.9,0,0,1-.1,2.1l-1.2,6.8H19.9l-1.8-.2-1-.7a2.8,2.8,0,0,1-.4-1.1,5.6,5.6,0,0,1,.2-1.7,7.5,7.5,0,0,1,.4-1.6,3.9,3.9,0,0,1,.8-1,3.3,3.3,0,0,1,1.2-.5l1.8-.2h4.6a.9.9,0,0,0,0-.7c0-.2-.1-.3-.3-.4a1.1,1.1,0,0,0-.8-.3H17.8Zm7.1,6,.4-2.2H21.6l-.9.2a1.9,1.9,0,0,0-.3.8c-.1.5-.1.7,0,.9s.4.3.8.3Z"/><path class="cls-1" d="M48.6,0h4L49.3,18.1h-4Z"/><path class="cls-1" d="M64.9,15.2l-.6,2.9H58a9.6,9.6,0,0,1-3.2-.4,2.6,2.6,0,0,1-1.7-1,2.8,2.8,0,0,1-.6-1.8,9,9,0,0,1,.2-2.7,19.7,19.7,0,0,1,.7-2.6,4.6,4.6,0,0,1,1.3-1.8,4.2,4.2,0,0,1,2.1-1.1,15.1,15.1,0,0,1,3.4-.4,9,9,0,0,1,3.1.4,2.6,2.6,0,0,1,1.7,1,2.9,2.9,0,0,1,.7,1.7,10.6,10.6,0,0,1-.2,2.4l-.3,1.5H56.1v.9a2.1,2.1,0,0,0,.4.6l.8.3h7.6ZM59.8,9H58.4a1.2,1.2,0,0,0-.9.3.9.9,0,0,0-.6.6,1.7,1.7,0,0,0-.3,1h5.5a3.8,3.8,0,0,0,.1-1,.9.9,0,0,0-.4-.6,1,1,0,0,0-.8-.3Z"/><path class="cls-1" d="M44.1,8.9a1.8,1.8,0,0,0-1.6-2.3H37.7a11.4,11.4,0,0,0-2.8.3,4.7,4.7,0,0,0-2,1,4.3,4.3,0,0,0-1.2,1.7,8.6,8.6,0,0,0-.8,2.7,8.2,8.2,0,0,0-.2,2.6,4.2,4.2,0,0,0,.6,1.8,3.4,3.4,0,0,0,1.7.9,10.1,10.1,0,0,0,2.7.3h3l-.2.8a1.4,1.4,0,0,1-.7,1.1,3.4,3.4,0,0,1-1.7.3H31.7L30,23.3h5.5a12.3,12.3,0,0,0,2.9-.3,5.9,5.9,0,0,0,2-.7,4.4,4.4,0,0,0,1.2-1.5,5.2,5.2,0,0,0,.7-2.1l1.8-9.8Zm-4.9,5.9H35.3a.9.9,0,0,1-.6-.4,1.9,1.9,0,0,1-.1-.8,4.5,4.5,0,0,1,.1-1.1,3.8,3.8,0,0,1,.7-2,2.6,2.6,0,0,1,1.7-.5h3Z"/><path class="cls-1" d="M138.2,13.4l-.5,3.2a14.6,14.6,0,0,1-6,1.4c-2.6,0-4.5-.7-5.8-2.1a6.1,6.1,0,0,1-1.3-5.3,8.7,8.7,0,0,1,3.3-5.3,11,11,0,0,1,6.7-2.2,9.6,9.6,0,0,1,5.1,1.3l-.6,3.3a9,9,0,0,0-4.8-1.5,7,7,0,0,0-4,1.2,4.8,4.8,0,0,0-2,3.2,3.6,3.6,0,0,0,.9,3.2,4.8,4.8,0,0,0,3.5,1.2,8.3,8.3,0,0,0,2.2-.3A23.5,23.5,0,0,0,138.2,13.4Z"/><path class="cls-1" d="M142.3,3.3h6.4c2.5,0,4.3.7,5.5,2.1a6.1,6.1,0,0,1,1.3,5.2,8.1,8.1,0,0,1-3.2,5.3,10.1,10.1,0,0,1-6.5,1.9h-6ZM145.5,6l-1.6,9.2h2.3a5.5,5.5,0,0,0,3.8-1.3,5.9,5.9,0,0,0,1.8-3.3,4.2,4.2,0,0,0-.7-3.4A4.2,4.2,0,0,0,147.8,6Z"/><path class="cls-1" d="M159,3.3h6.5a4.2,4.2,0,0,1,3.3,1.3,3.6,3.6,0,0,1,.7,3,5,5,0,0,1-1.8,3.1A5.2,5.2,0,0,1,164,12h-2.9l-1,5.8h-3.6ZM162.2,6l-.6,3.4h1.7c1.5,0,2.3-.6,2.5-1.7s0-1.1-.4-1.3a3.1,3.1,0,0,0-2-.4Z"/><path class="cls-1" d="M120.4,12.2a1.9,1.9,0,0,1-3.8,0,1.9,1.9,0,0,1,3.8,0Z"/></g></g></svg>