<svg xmlns="http://www.w3.org/2000/svg" width="350" height="291.559" viewBox="0 0 350 291.559">
  <g id="Group_4239" data-name="Group 4239" transform="translate(-1958.962 -3578.917)">
    <g id="Group_4237" data-name="Group 4237">
      <path id="Path_2171" data-name="Path 2171" d="M2191.658,3658.8h-11.179l1.439-59.052h8.3Z" fill="#ccc"/>
      <g id="Group_4236" data-name="Group 4236">
        <path id="Path_2172" data-name="Path 2172" d="M1986.384,3797.308l-25.438-12.76a3.339,3.339,0,0,1-1.984-2.916v-40.473a3.341,3.341,0,0,1,1.984-2.918l25.438-12.758Z" fill="#ccc"/>
        <path id="Path_2173" data-name="Path 2173" d="M2281.541,3725.483l25.437,12.758a3.342,3.342,0,0,1,1.984,2.918v40.473a3.339,3.339,0,0,1-1.984,2.916l-25.437,12.76Z" fill="#ccc"/>
      </g>
      <path id="Rectangle_1318" data-name="Rectangle 1318" d="M78.977,0H225.858a78.977,78.977,0,0,1,78.977,78.977v60.207a78.978,78.978,0,0,1-78.978,78.978H78.977A78.977,78.977,0,0,1,0,139.184V78.977A78.977,78.977,0,0,1,78.977,0Z" transform="translate(1981.544 3652.314)" fill="#e5e5e5"/>
      <rect id="Rectangle_1319" data-name="Rectangle 1319" width="250.967" height="167.248" rx="44.423" transform="translate(2008.479 3677.771)" fill="#fff"/>
      <path id="Path_2174" data-name="Path 2174" d="M2201.023,3593.871a14.954,14.954,0,1,1-14.955-14.954A14.953,14.953,0,0,1,2201.023,3593.871Z" fill="#e5e5e5"/>
    </g>
    <g id="Group_4238" data-name="Group 4238">
      <path id="Path_2175" data-name="Path 2175" d="M2205.979,3788.527a4.4,4.4,0,0,0-5.723-2.476,160.766,160.766,0,0,1-118.817-.007,4.409,4.409,0,0,0-3.229,8.206,170.173,170.173,0,0,0,125.3,0A4.416,4.416,0,0,0,2205.979,3788.527Z" fill="#7d4c9b"/>
      <path id="Path_2176" data-name="Path 2176" d="M2087.406,3744.908a14.159,14.159,0,1,0-14.159-14.16A14.176,14.176,0,0,0,2087.406,3744.908Zm0-20.023a5.864,5.864,0,1,1-5.865,5.863A5.871,5.871,0,0,1,2087.406,3724.885Z" fill="#7d4c9b"/>
      <path id="Path_2177" data-name="Path 2177" d="M2187.066,3744.908a14.159,14.159,0,1,0-14.159-14.16A14.176,14.176,0,0,0,2187.066,3744.908Zm0-20.023a5.864,5.864,0,1,1-5.864,5.863A5.871,5.871,0,0,1,2187.066,3724.885Z" fill="#7d4c9b"/>
    </g>
  </g>
</svg>
