<svg xmlns="http://www.w3.org/2000/svg" width="350" height="291.559" viewBox="0 0 350 291.559">
  <g id="Group_4235" data-name="Group 4235" transform="translate(-1792.923 -3186.789)">
    <path id="Path_2163" data-name="Path 2163" d="M2025.619,3266.673H2014.44l1.439-59.052h8.3Z" fill="#d1d3d4"/>
    <g id="Group_4234" data-name="Group 4234">
      <path id="Path_2164" data-name="Path 2164" d="M1820.345,3405.18l-25.438-12.76a3.338,3.338,0,0,1-1.984-2.916v-40.473a3.341,3.341,0,0,1,1.984-2.918l25.438-12.758Z" fill="#d1d3d4"/>
      <path id="Path_2165" data-name="Path 2165" d="M2115.5,3333.355l25.437,12.758a3.341,3.341,0,0,1,1.984,2.918V3389.5a3.339,3.339,0,0,1-1.984,2.916l-25.437,12.76Z" fill="#d1d3d4"/>
    </g>
    <path id="Rectangle_1316" data-name="Rectangle 1316" d="M78.977,0H225.858a78.977,78.977,0,0,1,78.977,78.977v60.207a78.978,78.978,0,0,1-78.978,78.978H78.978A78.978,78.978,0,0,1,0,139.184V78.977A78.977,78.977,0,0,1,78.977,0Z" transform="translate(1815.505 3260.187)" fill="#e5e5e5"/>
    <path id="Path_2178" data-name="Path 2178" d="M44.423,0H206.544a44.423,44.423,0,0,1,44.423,44.423v78.4a44.423,44.423,0,0,1-44.423,44.423H44.423A44.423,44.423,0,0,1,0,122.825v-78.4A44.423,44.423,0,0,1,44.423,0Z" transform="translate(1842.439 3285.644)" fill="#555"/>
    <path id="Path_2166" data-name="Path 2166" d="M2034.984,3201.743a14.954,14.954,0,1,1-14.955-14.954A14.953,14.953,0,0,1,2034.984,3201.743Z" fill="#e5e5e5"/>
    <path id="Path_2167" data-name="Path 2167" d="M1920.318,3351.564l8.833-8.834a4.588,4.588,0,1,0-6.489-6.488l-8.833,8.832-8.831-8.829a4.588,4.588,0,1,0-6.492,6.485l8.833,8.834-8.832,8.83a4.589,4.589,0,1,0,6.488,6.491l8.834-8.833,8.834,8.835a4.588,4.588,0,1,0,6.487-6.491Z" fill="#fff"/>
    <path id="Path_2168" data-name="Path 2168" d="M2037.127,3358.2l-9.108-9.107,6.64-6.641a4.427,4.427,0,1,0-6.26-6.261l-6.641,6.641-6.64-6.64a4.428,4.428,0,1,0-6.263,6.26l6.641,6.641-9.109,9.107a4.428,4.428,0,0,0,6.263,6.262l9.108-9.108,9.11,9.111a4.428,4.428,0,0,0,6.259-6.265Z" fill="#fff"/>
    <path id="Path_2169" data-name="Path 2169" d="M1988.278,3392.475l25.6,5.648-1.224,11.891-2.975,5.45-6.44,3.368h-6.107c-.235,0-5.426-2.973-5.426-2.973l-2.737-5.45-.69-6.044Z" fill="#bbb" opacity="0.4"/>
    <path id="Path_2170" data-name="Path 2170" d="M2025.8,3396.158a157.568,157.568,0,0,0-116.014,0,4.083,4.083,0,0,0,3.007,7.592,148.8,148.8,0,0,1,71.993-9.558v13.1a16.292,16.292,0,1,0,32.584,0v-5.562c1.822.643,3.638,1.312,5.444,2.028a4.112,4.112,0,0,0,1.482.278,4.083,4.083,0,0,0,1.5-7.879Zm-24.723,19.754a8.628,8.628,0,0,1-8.618-8.619v-12.019a148.763,148.763,0,0,1,17.238,3.972v8.047A8.629,8.629,0,0,1,2001.077,3415.912Z" fill="#fff"/>
  </g>
</svg>
