<?xml version="1.0" encoding="utf-8"?>
<!-- Generator: Adobe Illustrator 16.0.0, SVG Export Plug-In . SVG Version: 6.00 Build 0)  -->
<!DOCTYPE svg PUBLIC "-//W3C//DTD SVG 1.1//EN" "http://www.w3.org/Graphics/SVG/1.1/DTD/svg11.dtd">
<svg version="1.1" id="圖層_1" xmlns="http://www.w3.org/2000/svg" xmlns:xlink="http://www.w3.org/1999/xlink" x="0px" y="0px"
	 width="375.712px" height="140px" viewBox="-16.5 0 375.712 140" enable-background="new -16.5 0 375.712 140"
	 xml:space="preserve">
<g>
	<path fill="#EAE9E9" d="M169.552,140c-36.16,0-59.944-30.359-59.944-69.805C109.608,30.746,133.78,0,169.939,0
		c36.161,0,59.946,30.359,59.946,69.806C229.885,109.254,205.714,140,169.552,140z M169.552,26.877
		c-17.981,0-29.392,17.985-29.392,42.929c0,24.947,11.796,43.318,29.779,43.318c17.984,0,29.392-18.179,29.392-42.928
		C199.331,45.443,187.538,26.877,169.552,26.877z"/>
</g>
<g>
	<path fill="#EAE9E9" d="M298.88,140c-36.159,0-59.942-30.359-59.942-69.805C238.938,30.746,263.107,0,299.266,0
		c36.162,0,59.946,30.359,59.946,69.806C359.212,109.254,335.042,140,298.88,140z M298.88,26.877
		c-17.981,0-29.394,17.985-29.394,42.929c0,24.947,11.798,43.318,29.779,43.318c17.984,0,29.393-18.179,29.393-42.928
		C328.659,45.443,316.866,26.877,298.88,26.877z"/>
</g>
<g>
	<path fill="#EAE9E9" d="M82.891,0v82.953h18.176v24.18H82.891v29.195H54.467v-29.195h-66.136L-16.5,86.058L57.755,0H82.891z
		 M54.467,40.81L18.5,82.953h35.968L54.467,40.81L54.467,40.81z"/>
</g>
</svg>
