<?xml version="1.0" encoding="utf-8"?>
<!-- Generator: Adobe Illustrator 16.0.0, SVG Export Plug-In . SVG Version: 6.00 Build 0)  -->
<!DOCTYPE svg PUBLIC "-//W3C//DTD SVG 1.1//EN" "http://www.w3.org/Graphics/SVG/1.1/DTD/svg11.dtd">
<svg version="1.1" id="圖層_1" xmlns="http://www.w3.org/2000/svg" xmlns:xlink="http://www.w3.org/1999/xlink" x="0px" y="0px"
	 width="315px" height="140px" viewBox="0 0 315 140" enable-background="new 0 0 315 140" xml:space="preserve">
<g>
	<g>
		<path fill="#EAE9E9" d="M99.391,1.352v82.952h18.176v24.181H99.391v29.195H70.967v-29.195H4.831L0,87.409L74.255,1.352H99.391z
			 M70.967,42.161L35,84.304h35.968V42.161z"/>
	</g>
	<g>
		<path fill="#EAE9E9" d="M188.216,140c-36.159,0-59.945-30.36-59.945-69.8c0-39.456,24.176-70.2,60.329-70.2
			c36.167,0,59.952,30.36,59.952,69.8C248.552,109.256,224.383,140,188.216,140z M188.216,26.873
			c-17.978,0-29.393,17.992-29.393,42.928c0,24.952,11.8,43.328,29.776,43.328c17.991,0,29.392-18.177,29.392-42.928
			C217.992,45.449,206.208,26.873,188.216,26.873z"/>
	</g>
	<g>
		<path fill="#EAE9E9" d="M294.549,1.352h20.305V137.68h-29.392V31.514l-23.587,5.807l-6.189-24.368L294.549,1.352z"/>
	</g>
</g>
</svg>
