<?xml version="1.0" encoding="utf-8"?>
<!-- Generator: Adobe Illustrator 16.0.0, SVG Export Plug-In . SVG Version: 6.00 Build 0)  -->
<!DOCTYPE svg PUBLIC "-//W3C//DTD SVG 1.1//EN" "http://www.w3.org/Graphics/SVG/1.1/DTD/svg11.dtd">
<svg version="1.1" id="圖層_1" xmlns="http://www.w3.org/2000/svg" xmlns:xlink="http://www.w3.org/1999/xlink" x="0px" y="0px"
	 width="348px" height="140px" viewBox="0 0 348 140" enable-background="new 0 0 348 140" xml:space="preserve">
<g>
	<g>
		<path fill="#EAE9E9" d="M99.392,1.353v82.955h18.176v24.177H99.392v29.195H70.967v-29.195H4.833L0,87.406L74.254,1.353H99.392z
			 M70.967,42.158L35,84.308h35.967V42.158z"/>
	</g>
	<g>
		<path fill="#EAE9E9" d="M185.574,140c-36.161,0-59.945-30.359-59.945-69.804C125.629,30.746,149.801,0,185.961,0
			c36.162,0,59.947,30.359,59.947,69.804C245.908,109.255,221.736,140,185.574,140z M185.574,26.876
			c-17.984,0-29.392,17.987-29.392,42.928c0,24.948,11.797,43.32,29.779,43.32c17.984,0,29.391-18.177,29.391-42.928
			C215.352,45.445,203.559,26.876,185.574,26.876z"/>
	</g>
	<g>
		<path fill="#EAE9E9" d="M254.557,27.843V2.321h91.465v22.432l-34.229,32.679c18.561,3.092,36.352,12.766,36.352,38.092
			c0,25.72-18.561,44.478-48.732,44.478c-24.359,0-41.182-9.667-52.783-23.399l20.498-19.528
			c9.281,10.444,18.947,16.241,32.678,16.241c11.215,0,19.145-6.379,19.145-16.627c0-11.217-9.477-17.405-26.496-17.405H280.08
			l-4.641-18.948l32.295-32.49H254.557z"/>
	</g>
</g>
</svg>
