<?xml version="1.0" encoding="utf-8"?>
<!-- Generator: Adobe Illustrator 16.0.0, SVG Export Plug-In . SVG Version: 6.00 Build 0)  -->
<!DOCTYPE svg PUBLIC "-//W3C//DTD SVG 1.1//EN" "http://www.w3.org/Graphics/SVG/1.1/DTD/svg11.dtd">
<svg version="1.1" id="圖層_1" xmlns="http://www.w3.org/2000/svg" xmlns:xlink="http://www.w3.org/1999/xlink" x="0px" y="0px"
	 width="369px" height="140px" viewBox="0 0 369 140" enable-background="new 0 0 369 140" xml:space="preserve">
<g>
	<g>
		<path fill="#EAE9E9" d="M99.663,1.352v82.952h18.176v24.182H99.663v29.194H71.239v-29.194H5.103L0.271,87.408L74.527,1.352H99.663
			z M71.239,42.16L35.271,84.304h35.968V42.16z"/>
	</g>
	<g>
		<path fill="#EAE9E9" d="M184.308,140c-36.16,0-59.944-30.36-59.944-69.8c0-39.456,24.168-70.2,60.328-70.2
			c36.167,0,59.952,30.36,59.952,69.8C244.644,109.256,220.458,140,184.308,140z M184.308,26.872
			c-17.984,0-29.392,17.992-29.392,42.928c0,24.952,11.792,43.328,29.776,43.328c17.989,0,29.393-18.177,29.393-42.928
			C214.084,45.448,202.282,26.872,184.308,26.872z"/>
	</g>
	<g>
		<path fill="#EAE9E9" d="M350.553,1.352v82.952h18.176v24.182h-18.176v29.194H322.13v-29.194h-66.129l-4.841-21.077l74.257-86.057
			H350.553z M322.13,42.16l-35.969,42.144h35.969V42.16z"/>
	</g>
</g>
</svg>
