<?xml version="1.0" encoding="utf-8"?>
<!-- Generator: Adobe Illustrator 16.0.0, SVG Export Plug-In . SVG Version: 6.00 Build 0)  -->
<!DOCTYPE svg PUBLIC "-//W3C//DTD SVG 1.1//EN" "http://www.w3.org/Graphics/SVG/1.1/DTD/svg11.dtd">
<svg version="1.1" id="圖層_1" xmlns="http://www.w3.org/2000/svg" xmlns:xlink="http://www.w3.org/1999/xlink" x="0px" y="0px"
	 width="360px" height="140px" viewBox="0 0 360 140" enable-background="new 0 0 360 140" xml:space="preserve">
<g>
	<g>
		<path fill="#EAE9E9" d="M12.955,2.32h83.15v26.104H38.48l-1.548,23.398c5.415-1.354,10.25-2.32,17.791-2.32
			c26.686,0,47.376,12.764,47.376,43.509c0,28.811-20.304,46.988-51.436,46.988C29.004,140,13.148,132.266,0,119.696l17.983-21.463
			c10.249,9.283,20.304,14.695,32.292,14.695c13.924,0,22.625-6.766,22.625-18.949c0-11.797-9.475-18.566-23.978-18.566
			c-8.507,0-16.242,2.32-22.624,5.031L9.088,69.033L12.955,2.32z"/>
	</g>
	<g>
		<path fill="#EAE9E9" d="M169.552,140c-36.16,0-59.944-30.359-59.944-69.805C109.608,30.746,133.78,0,169.939,0
			c36.161,0,59.946,30.359,59.946,69.806C229.885,109.254,205.714,140,169.552,140z M169.552,26.877
			c-17.981,0-29.392,17.985-29.392,42.929c0,24.947,11.796,43.318,29.779,43.318c17.984,0,29.392-18.178,29.392-42.928
			C199.331,45.443,187.538,26.877,169.552,26.877z"/>
	</g>
	<g>
		<path fill="#EAE9E9" d="M298.88,140c-36.159,0-59.943-30.359-59.943-69.805C238.937,30.746,263.108,0,299.266,0
			c36.162,0,59.946,30.359,59.946,69.806C359.212,109.254,335.042,140,298.88,140z M298.88,26.877
			c-17.981,0-29.393,17.985-29.393,42.929c0,24.947,11.797,43.318,29.778,43.318c17.985,0,29.393-18.178,29.393-42.928
			C328.659,45.443,316.866,26.877,298.88,26.877z"/>
	</g>
</g>
</svg>
