<?xml version="1.0" encoding="utf-8"?>
<!-- Generator: Adobe Illustrator 16.0.0, SVG Export Plug-In . SVG Version: 6.00 Build 0)  -->
<!DOCTYPE svg PUBLIC "-//W3C//DTD SVG 1.1//EN" "http://www.w3.org/Graphics/SVG/1.1/DTD/svg11.dtd">
<svg version="1.1" id="圖層_1" xmlns="http://www.w3.org/2000/svg" xmlns:xlink="http://www.w3.org/1999/xlink" x="0px" y="0px"
	 width="460px" height="111.924px" viewBox="0 0 460 111.924" enable-background="new 0 0 460 111.924" xml:space="preserve">
<g>
	<path fill="#EAE9E9" d="M105.06,66.411H30.275c3.008,13.835,12.632,21.053,26.265,21.053c10.226,0,17.644-3.208,26.064-11.028
		l17.443,15.439c-10.024,12.431-24.46,20.05-43.908,20.05C23.859,111.924,0,89.267,0,56.385v-0.401
		C0,25.31,21.854,0.047,53.131,0.047c35.889,0,52.329,27.868,52.329,58.344v0.4C105.46,61.8,105.26,63.604,105.06,66.411z
		 M53.131,24.507c-12.631,0-20.852,9.021-23.257,22.856h45.913C73.983,33.73,65.963,24.507,53.131,24.507z"/>
	<path fill="#EAE9E9" d="M183.374,31.925c-20.25,0-32.681,12.231-32.681,37.895v39.698h-30.475V2.052h30.475v21.654
		c6.216-14.837,16.24-24.461,34.285-23.659v31.878H183.374z"/>
	<path fill="#EAE9E9" d="M258.261,31.925c-20.251,0-32.682,12.231-32.682,37.895v39.698h-30.476V2.052h30.476v21.654
		c6.216-14.837,16.24-24.461,34.285-23.659v31.878H258.261z"/>
	<path fill="#EAE9E9" d="M322.4,111.924c-33.282,0-57.942-24.662-57.942-55.539v-0.401c0-30.876,24.861-55.938,58.343-55.938
		c33.282,0,57.944,24.66,57.944,55.537v0.401C380.745,86.861,355.883,111.924,322.4,111.924z M350.67,55.984
		c0-15.838-11.43-29.673-28.271-29.673c-17.442,0-27.868,13.434-27.868,29.272v0.401c0,15.84,11.428,29.673,28.269,29.673
		c17.444,0,27.87-13.432,27.87-29.272V55.984z"/>
	<path fill="#EAE9E9" d="M458.397,31.925c-20.251,0-32.682,12.231-32.682,37.895v39.698H395.24V2.052h30.476v21.654
		C431.931,8.869,441.956-0.755,460,0.047v31.878H458.397z"/>
</g>
</svg>
