<?xml version="1.0" standalone="no"?>
<!DOCTYPE svg PUBLIC "-//W3C//DTD SVG 1.1//EN" "http://www.w3.org/Graphics/SVG/1.1/DTD/svg11.dtd" >
<svg xmlns="http://www.w3.org/2000/svg">
<metadata>Generated by IcoMoon</metadata>
<defs>
<font id="icomoon" horiz-adv-x="1024">
<font-face units-per-em="1024" ascent="960" descent="-64" />
<missing-glyph horiz-adv-x="1024" />
<glyph unicode="&#x20;" horiz-adv-x="512" d="" />
<glyph unicode="&#xe900;" glyph-name="arrow_left" d="M708.267 874.667l-426.667-426.667 426.667-426.667v853.333z" />
<glyph unicode="&#xe901;" glyph-name="arrow_right" d="M315.733 21.333l426.667 426.667-426.667 426.667v-853.333z" />
<glyph unicode="&#xe902;" glyph-name="keyboard_arrow_down" d="M183.467 704l328.533-324.267 324.267 324.267 102.4-102.4-426.667-426.667-426.667 426.667 98.133 102.4z" />
<glyph unicode="&#xe903;" glyph-name="skip_next" d="M85.333 21.333l605.867 426.667-605.867 426.667v-853.333zM797.867 874.667v-853.333h140.8v853.333h-140.8z" />
<glyph unicode="&#xe904;" glyph-name="skip_previous" d="M85.333 874.667h140.8v-853.333h-140.8v853.333zM332.8 448l605.867-426.667v853.333l-605.867-426.667z" />
<glyph unicode="&#xe905;" glyph-name="calendar" d="M725.333 435.2h-213.333v-213.333h213.333v213.333zM682.667 904.533v-85.333h-341.333v85.333h-85.333v-85.333h-42.667c-46.933 0-85.333-38.4-85.333-85.333v-597.333c0-46.933 38.4-85.333 85.333-85.333h597.333c46.933 0 85.333 38.4 85.333 85.333v597.333c0 46.933-38.4 85.333-85.333 85.333h-42.667v85.333h-85.333zM810.667 136.533h-597.333v469.333h597.333v-469.333z" />
<glyph unicode="&#xe906;" glyph-name="check_circle_fill" d="M512 874.667c-235.52 0-426.667-191.147-426.667-426.667s191.147-426.667 426.667-426.667 426.667 191.147 426.667 426.667-191.147 426.667-426.667 426.667zM426.667 234.667l-213.333 213.333 60.16 60.16 153.173-152.747 323.84 323.84 60.16-60.587-384-384z" />
<glyph unicode="&#xe907;" glyph-name="minus_circle_fill" d="M512 874.667c-235.52 0-426.667-191.147-426.667-426.667s191.147-426.667 426.667-426.667 426.667 191.147 426.667 426.667-191.147 426.667-426.667 426.667zM725.333 405.333h-426.667v85.333h426.667v-85.333z" />
<glyph unicode="&#xe908;" glyph-name="birthday" d="M917.333 64h-17.067v290.133c0 8.533-8.533 17.067-17.067 17.067h-55.467v221.867c0 8.533-8.533 17.067-17.067 17.067h-72.533v42.667c12.8 4.267 25.6 12.8 34.133 21.333 12.8 12.8 21.333 34.133 17.067 51.2 0 34.133-51.2 93.867-59.733 102.4-4.267 4.267-8.533 4.267-12.8 4.267s-8.533-4.267-12.8-4.267c-12.8-8.533-64-64-64-98.133 0-4.267 0-4.267 0-8.533 0-34.133 25.6-59.733 55.467-68.267v-42.667h-162.133v59.733c34.133 8.533 64 42.667 64 81.067 0 0 0 0 0 0 0 42.667-59.733 106.667-68.267 119.467-8.533 0-12.8 4.267-17.067 4.267s-8.533-4.267-12.8-4.267c-12.8-12.8-72.533-81.067-72.533-123.733 0-38.4 25.6-72.533 64-81.067v-55.467h-162.133v42.667c34.133 8.533 55.467 38.4 55.467 72.533s-51.2 93.867-59.733 102.4c-4.267 8.533-8.533 8.533-17.067 8.533v0c-4.267 0-8.533 0-12.8-4.267-8.533-12.8-59.733-68.267-59.733-102.4 0-4.267 0-4.267 0-8.533 0-21.333 8.533-38.4 25.6-51.2 8.533-8.533 17.067-17.067 29.867-17.067v-42.667h-72.533c-8.533 0-17.067-8.533-17.067-17.067v-217.6h-59.733c-8.533 0-17.067-8.533-17.067-17.067v0-294.4h-17.067c-12.8 0-21.333-12.8-21.333-25.6 0-8.533 8.533-17.067 21.333-17.067h814.933c8.533 0 17.067 12.8 17.067 21.333s-8.533 21.333-21.333 21.333zM678.4 721.067c0 0 0 4.267 0 4.267 0 12.8 17.067 38.4 38.4 64 21.333-25.6 38.4-51.2 38.4-64 0 0 0 0 0 0 0-8.533-4.267-21.333-8.533-25.6s-12.8-8.533-17.067-12.8c-4.267 0-4.267 0-8.533 0h-4.267c-4.267 0-4.267 0-8.533 0-17.067 4.267-29.867 17.067-29.867 34.133zM465.067 746.667c0 17.067 25.6 51.2 46.933 81.067 21.333-25.6 46.933-64 46.933-81.067 0-25.6-21.333-42.667-46.933-42.667 0 0 0 0 0 0-25.6 0-46.933 17.067-46.933 42.667zM273.067 721.067c0 0 0 4.267 0 4.267 0 12.8 17.067 38.4 38.4 64 21.333-25.6 38.4-51.2 38.4-64 0 0 0 0 0 0 0-17.067-12.8-34.133-29.867-38.4-4.267 0-4.267 0-8.533 0h-4.267c-4.267 0-4.267 0-8.533 0s-12.8 4.267-17.067 8.533c-4.267 4.267-8.533 17.067-8.533 25.6zM162.133 337.067h704v-89.6c-4.267-4.267-12.8-8.533-17.067-12.8 0 0-4.267-4.267-4.267-4.267-4.267-4.267-4.267-4.267-8.533-8.533-17.067-12.8-46.933-8.533-59.733 8.533-4.267 4.267-8.533 12.8-17.067 17.067-17.067 12.8-38.4 17.067-59.733 17.067-21.333-4.267-38.4-12.8-51.2-29.867-4.267-4.267-4.267-4.267-8.533-8.533-17.067-12.8-46.933-8.533-59.733 8.533-4.267 4.267-8.533 12.8-17.067 17.067-12.8 8.533-29.867 17.067-46.933 17.067-4.267 0-8.533 0-12.8 0-21.333-4.267-38.4-12.8-51.2-29.867-4.267-4.267-4.267-4.267-8.533-8.533-17.067-12.8-46.933-8.533-59.733 8.533-4.267 4.267-8.533 12.8-17.067 17.067-34.133 25.6-85.333 21.333-110.933-12.8-8.533-8.533-21.333-12.8-34.133-17.067-12.8 4.267-25.6 8.533-38.4 21.333-4.267 4.267-12.8 8.533-17.067 12.8v76.8zM234.667 571.733h554.667v-68.267c-17.067 12.8-42.667 17.067-64 17.067-25.6-4.267-46.933-17.067-59.733-34.133-4.267-4.267-8.533-8.533-8.533-8.533-21.333-17.067-55.467-12.8-72.533 8.533-4.267 8.533-12.8 12.8-17.067 17.067-38.4 29.867-98.133 21.333-128-17.067-4.267-4.267-8.533-8.533-8.533-8.533-12.8-8.533-25.6-12.8-38.4-8.533-12.8 0-25.6 8.533-34.133 21.333 0 0 0 0-4.267 4.267-17.067 17.067-42.667 25.6-64 34.133 0 0-4.267 0-4.267 0s-4.267 0-4.267 0c-17.067-4.267-34.133-8.533-46.933-21.333v64zM234.667 456.533l8.533 4.267c12.8 12.8 29.867 17.067 46.933 21.333 17.067-4.267 29.867-12.8 42.667-21.333 12.8-17.067 34.133-29.867 55.467-34.133 4.267 0 8.533 0 12.8 0 17.067 0 38.4 4.267 51.2 17.067 8.533 4.267 12.8 12.8 17.067 17.067 17.067 21.333 51.2 29.867 72.533 8.533 4.267-4.267 8.533-8.533 8.533-8.533 29.867-38.4 85.333-46.933 123.733-17.067 8.533 4.267 12.8 12.8 17.067 17.067 8.533 12.8 21.333 17.067 34.133 21.333 12.8 0 29.867 0 38.4-8.533 4.267-4.267 8.533-8.533 8.533-8.533s4.267-4.267 4.267-4.267l4.267-4.267v-81.067h-554.667v81.067zM162.133 204.8c12.8-12.8 29.867-21.333 51.2-25.6 0 0 4.267 0 4.267 0s4.267 0 4.267 0c21.333 4.267 42.667 12.8 55.467 29.867 0 0 0 0 4.267 4.267 8.533 8.533 17.067 17.067 29.867 17.067s21.333 0 34.133-8.533c4.267-4.267 4.267-4.267 8.533-8.533 25.6-34.133 76.8-42.667 110.933-17.067 4.267 4.267 12.8 8.533 17.067 17.067 8.533 8.533 17.067 17.067 29.867 17.067s21.333 0 34.133-8.533c4.267-4.267 4.267-4.267 8.533-8.533 25.6-34.133 76.8-42.667 110.933-17.067 4.267 4.267 12.8 8.533 17.067 17.067 8.533 8.533 17.067 17.067 29.867 17.067s21.333 0 34.133-8.533c4.267-4.267 4.267-4.267 8.533-8.533 25.6-34.133 76.8-42.667 110.933-17.067 4.267 4.267 4.267 4.267 8.533 8.533v-140.8h-712.533v140.8z" />
<glyph unicode="&#xe909;" glyph-name="crm" horiz-adv-x="1003" d="M860.996 199.314c0 4.18-4.18 8.359-12.539 12.539l-146.286 45.976c20.898 66.873 37.616 137.927 45.976 208.98 4.18 12.539 8.359 25.078 8.359 41.796 0 8.359 0 16.718-4.18 25.078 0 29.257 4.18 54.335 4.18 79.412 0 142.106-112.849 254.955-254.955 254.955s-254.955-112.849-254.955-254.955c0 0 0 0 0 0 0-121.208 16.718-238.237 50.155-355.265l-142.106-45.976c-8.359-4.18-12.539-12.539-12.539-20.898 0-4.18 4.18-4.18 4.18-8.359 91.951-96.131 221.518-154.645 355.265-154.645v0c133.747 0 263.314 54.335 355.265 154.645 4.18 4.18 4.18 12.539 4.18 16.718zM626.939 282.906c-4.18 0-8.359 4.18-8.359 12.539l-4.18 41.796c16.718 20.898 29.257 41.796 37.616 66.873 0 0 4.18 4.18 4.18 4.18 16.718 0 37.616 8.359 50.155 16.718-8.359-50.155-20.898-100.31-37.616-150.465l-41.796 8.359zM631.118 450.090c-4.18-12.539-4.18-20.898-8.359-29.257-29.257-16.718-62.694-25.078-96.131-29.257-4.18 8.359-16.718 12.539-25.078 12.539-16.718 0-33.437-12.539-33.437-33.437 0-16.718 12.539-33.437 33.437-33.437 12.539 0 20.898 4.18 25.078 16.718 25.078 0 45.976 8.359 71.053 12.539-4.18-8.359-12.539-16.718-16.718-25.078v0c-25.078-41.796-83.592-58.514-125.388-33.437-12.539 8.359-25.078 20.898-33.437 33.437v0c-25.078 29.257-41.796 66.873-50.155 104.49v25.078c0 100.31 71.053 137.927 129.567 167.184 25.078 12.539 45.976 25.078 66.873 41.796 12.539-37.616 33.437-75.233 66.873-100.31l-4.18-129.567zM417.959 287.086v12.539c45.976-41.796 117.029-41.796 158.824 0v-12.539c4.18-16.718 16.718-33.437 33.437-37.616h4.18c-45.976-66.873-137.927-83.592-204.8-37.616-12.539 8.359-29.257 20.898-37.616 37.616h4.18c29.257 4.18 41.796 20.898 41.796 37.616v0zM723.069 508.604c0-33.437-20.898-62.694-54.335-71.053v142.106c29.257-8.359 54.335-37.616 54.335-71.053v0zM280.033 613.094c0 121.208 100.31 217.339 221.518 221.518 121.208 0 221.518-96.131 221.518-221.518 0 0 0 0 0 0 0-8.359 0-16.718 0-25.078-16.718 16.718-41.796 25.078-62.694 29.257-37.616 33.437-62.694 79.412-62.694 133.747 0 8.359-8.359 16.718-16.718 16.718s-16.718-8.359-16.718-16.718c0-25.078-29.257-41.796-75.233-66.873-66.873-41.796-154.645-87.771-154.645-204.8v-133.747c0-8.359 8.359-16.718 16.718-16.718s16.718 8.359 16.718 16.718v16.718c8.359-8.359 16.718-20.898 25.078-29.257l-4.18-41.796c0-4.18-4.18-8.359-8.359-12.539l-45.976-12.539c-37.616 112.849-54.335 229.878-54.335 346.906v0zM501.551 65.567c-117.029 0-225.698 45.976-309.29 125.388l154.645 45.976c50.155-83.592 163.004-112.849 246.596-62.694 25.078 16.718 45.976 37.616 62.694 62.694l20.898-8.359 133.747-41.796c-83.592-79.412-192.261-121.208-309.29-121.208v0z" />
<glyph unicode="&#xe90a;" glyph-name="dialog_check" d="M290.133 610.133h409.6c8.533 0 17.067 8.533 17.067 17.067s-8.533 17.067-17.067 17.067h-409.6c-8.533 0-17.067-8.533-17.067-17.067s8.533-17.067 17.067-17.067zM290.133 507.733h409.6c8.533 0 17.067 8.533 17.067 17.067s-8.533 17.067-17.067 17.067h-409.6c-8.533 0-17.067-8.533-17.067-17.067s8.533-17.067 17.067-17.067zM494.933 439.467h-204.8c-8.533 0-17.067-8.533-17.067-17.067s8.533-17.067 17.067-17.067h204.8c8.533 0 17.067 8.533 17.067 17.067s-8.533 17.067-17.067 17.067zM904.533 337.067c0 0 0 0 0 0v375.467c0 64-55.467 119.467-119.467 119.467h-580.267c-64 0-119.467-55.467-119.467-119.467v-375.467c0-64 55.467-119.467 119.467-119.467h29.867v-85.333c0-21.333 17.067-34.133 34.133-34.133 8.533 0 12.8 4.267 21.333 8.533l157.867 115.2h149.333c8.533-85.333 81.067-153.6 170.667-153.6 93.867 0 170.667 76.8 170.667 170.667 0 34.133-12.8 68.267-34.133 98.133zM443.733 251.733c-4.267 0-8.533 0-8.533-4.267l-162.133-119.467v106.667c0 8.533-8.533 17.067-17.067 17.067h-51.2c-46.933 0-85.333 38.4-85.333 85.333v375.467c0 46.933 38.4 85.333 85.333 85.333h580.267c46.933 0 85.333-38.4 85.333-85.333v-337.067c0 0-4.267 0-4.267 4.267-98.133 68.267-251.733 4.267-268.8-119.467 0-4.267 0-4.267 0-8.533h-153.6zM768 98.133c-76.8 0-136.533 59.733-136.533 136.533 0 0 0 0 0 0 0 8.533 0 17.067 4.267 25.6 17.067 106.667 166.4 145.067 234.667 64 21.333-25.6 34.133-55.467 34.133-89.6 0-72.533-64-136.533-136.533-136.533zM814.933 290.133l-68.267-68.267-29.867 29.867c-4.267 4.267-17.067 8.533-25.6 0-4.267-4.267-8.533-8.533-8.533-12.8s0-8.533 4.267-12.8l42.667-42.667c4.267-4.267 8.533-4.267 12.8-4.267s8.533 0 12.8 4.267l81.067 81.067c21.333 12.8-4.267 38.4-21.333 25.6z" />
<glyph unicode="&#xe90b;" glyph-name="empty_shopping" d="M678.4 652.8h72.533c8.533 0 17.067 8.533 17.067 17.067s-8.533 17.067-17.067 17.067h-72.533c-8.533 0-17.067-8.533-17.067-17.067s4.267-17.067 17.067-17.067zM640 302.933h72.533c8.533 0 17.067 8.533 17.067 17.067s-8.533 17.067-17.067 17.067h-72.533c-8.533 0-17.067-8.533-17.067-17.067s8.533-17.067 17.067-17.067zM533.333 652.8h72.533c8.533 0 17.067 8.533 17.067 17.067s-8.533 17.067-17.067 17.067h-72.533c-8.533 0-17.067-8.533-17.067-17.067s8.533-17.067 17.067-17.067zM780.8 302.933h34.133c21.333 0 38.4 12.8 46.933 29.867 4.267 8.533 0 17.067-8.533 21.333s-17.067 0-21.333-8.533c0-4.267-8.533-8.533-12.8-8.533h-34.133c-8.533 0-17.067-8.533-17.067-17.067-4.267-8.533 4.267-17.067 12.8-17.067zM819.2 652.8h72.533c8.533 0 17.067 8.533 17.067 17.067s-8.533 17.067-17.067 17.067h-72.533c-8.533 0-17.067-8.533-17.067-17.067s8.533-17.067 17.067-17.067zM887.467 494.933c-8.533 4.267-17.067-4.267-21.333-12.8l-17.067-68.267c-4.267-8.533 4.267-17.067 12.8-21.333 0 0 4.267 0 4.267 0 8.533 0 12.8 4.267 17.067 12.8l17.067 68.267c0 8.533-4.267 21.333-12.8 21.333zM921.6 635.733c-8.533 4.267-17.067-4.267-21.333-12.8l-17.067-68.267c-4.267-8.533 4.267-17.067 12.8-21.333 0 0 4.267 0 4.267 0 8.533 0 12.8 4.267 17.067 12.8l17.067 68.267c4.267 8.533-4.267 17.067-12.8 21.333zM494.933 302.933h72.533c8.533 0 17.067 8.533 17.067 17.067s-8.533 17.067-17.067 17.067h-72.533c-8.533 0-17.067-8.533-17.067-17.067s8.533-17.067 17.067-17.067zM392.533 652.8h72.533c8.533 0 17.067 8.533 17.067 17.067s-8.533 17.067-17.067 17.067h-72.533c-8.533 0-17.067-8.533-17.067-17.067s8.533-17.067 17.067-17.067zM789.333 243.2c-4.267 0-4.267 0-8.533 0h-354.133c-21.333 0-38.4 12.8-42.667 34.133l-8.533 25.6h51.2c8.533 0 17.067 8.533 17.067 17.067s-8.533 17.067-17.067 17.067h-59.733l-85.333 311.467h34.133c8.533 0 17.067 8.533 17.067 17.067s-4.267 21.333-12.8 21.333h-46.933l-17.067 68.267c-8.533 34.133-42.667 59.733-76.8 59.733h-81.067c-8.533 0-17.067-8.533-17.067-17.067s8.533-17.067 17.067-17.067h76.8c21.333 0 38.4-12.8 42.667-34.133l128-477.867c4.267-17.067 17.067-34.133 29.867-42.667-17.067-12.8-29.867-38.4-29.867-64 0-42.667 34.133-81.067 81.067-81.067 42.667 0 81.067 34.133 81.067 81.067 0 17.067-4.267 34.133-12.8 46.933h221.867c-8.533-12.8-12.8-29.867-12.8-46.933 0-42.667 34.133-81.067 81.067-81.067 42.667 0 81.067 34.133 81.067 81.067-4.267 42.667-34.133 76.8-76.8 81.067zM473.6 162.133c0-25.6-21.333-46.933-46.933-46.933s-46.933 21.333-46.933 46.933c0 25.6 17.067 42.667 42.667 46.933 0 0 0 0 4.267 0h4.267c25.6-4.267 42.667-21.333 42.667-46.933zM785.067 115.2c-25.6 0-46.933 21.333-46.933 46.933s17.067 42.667 42.667 46.933h4.267c0 0 0 0 0 0 25.6 0 42.667-21.333 42.667-46.933s-21.333-46.933-42.667-46.933z" />
<glyph unicode="&#xe90c;" glyph-name="holiday" d="M809.173 797.653v0l-4.267 12.8c0 34.133-29.867 64-64 64s-64-29.867-64-64v-12.8h-332.8v12.8c0 34.133-29.867 64-64 64s-64-29.867-64-64v-12.8h-4.267c-72.533 0-128-59.733-128-128v0-516.267c0-72.533 59.733-128 128-128h593.067c72.533 0 128 59.733 128 128v516.267c4.267 68.267-55.467 128-123.733 128zM715.307 810.453c0 12.8 12.8 25.6 25.6 25.6s25.6-12.8 25.6-25.6v-68.267c0-12.8-12.8-25.6-25.6-25.6s-25.6 12.8-25.6 25.6v68.267zM258.773 810.453c0 12.8 12.8 25.6 25.6 25.6s25.6-12.8 25.6-25.6v-68.267c0-12.8-12.8-25.6-25.6-25.6s-25.6 12.8-25.6 25.6v68.267zM122.24 669.653c0 51.2 42.667 93.867 93.867 93.867h4.267v-12.8c0-34.133 29.867-64 64-64s64 29.867 64 64v12.8h332.8v-12.8c0-34.133 29.867-64 64-64s64 29.867 64 64v12.8h4.267c51.2 0 93.867-42.667 93.867-93.867v-93.867h-776.533v93.867zM898.773 149.12c0-51.2-42.667-93.867-93.867-93.867h-593.067c-51.2 0-93.867 42.667-93.867 93.867v388.267h776.533v-388.267zM403.84 268.587l-12.8-64c0-12.8 0-25.6 8.533-34.133 12.8-12.8 34.133-17.067 51.2-8.533l59.733 29.867 59.733-29.867c4.267-4.267 12.8-4.267 17.067-4.267 21.333 0 38.4 17.067 38.4 38.4 0 4.267 0 4.267 0 8.533l-8.533 68.267 46.933 46.933c17.067 17.067 17.067 42.667 0 55.467-4.267 4.267-12.8 8.533-21.333 12.8l-68.267 12.8-29.867 59.733c-12.8 21.333-38.4 25.6-55.467 17.067-4.267-4.267-12.8-8.533-17.067-17.067l-29.867-59.733-64-8.533c-21.333-4.267-38.4-25.6-34.133-46.933 0-8.533 4.267-17.067 12.8-21.333l46.933-55.467zM386.773 349.653l64 8.533c12.8 0 25.6 8.533 29.867 21.333l29.867 59.733h4.267l29.867-59.733c4.267-12.8 17.067-21.333 29.867-21.333l64-8.533v-4.267l-46.933-46.933c-8.533-8.533-12.8-21.333-12.8-34.133l8.533-68.267c0 0 0 0-4.267 0l-59.733 29.867c-12.8 4.267-25.6 4.267-38.4 0l-59.733-29.867-4.267 4.267 12.8 64c4.267 12.8 0 25.6-12.8 34.133l-46.933 46.933-12.8-12.8 25.6 17.067zM732.373 298.453c0-8.533 8.533-17.067 17.067-17.067h55.467c8.533 0 17.067 8.533 17.067 17.067s-8.533 17.067-17.067 17.067h-55.467c-8.533 0-17.067-8.533-17.067-17.067zM753.707 217.387c-8.533 8.533-17.067 8.533-25.6 0s-8.533-17.067 0-25.6l21.333-21.333c8.533-8.533 17.067-8.533 25.6 0s8.533 17.067 0 25.6l-21.333 21.333zM723.84 375.253c8.533-4.267 17.067-4.267 25.6 0l21.333 21.333c4.267 4.267 4.267 8.533 4.267 12.8s-4.267 8.533-8.533 12.8c-8.533 4.267-17.067 4.267-25.6 0l-21.333-21.333c-4.267-4.267-4.267-17.067 4.267-25.6-4.267 4.267-4.267 0 0 0v0zM216.107 281.387h55.467c8.533 0 17.067 8.533 17.067 17.067s-8.533 17.067-17.067 17.067h-55.467c-8.533 0-17.067-8.533-17.067-17.067s8.533-17.067 17.067-17.067zM267.307 217.387l-21.333-21.333c-8.533-8.533-8.533-17.067 0-25.6v0c8.533-8.533 17.067-8.533 25.6 0 0 0 0 0 0 0l21.333 21.333c8.533 8.533 8.533 21.333 0 25.6 0 0 0 0 0 0-4.267 8.533-17.067 8.533-25.6 0zM275.84 379.52c4.267-4.267 8.533-4.267 12.8-4.267s8.533 0 12.8 4.267c8.533 8.533 8.533 17.067 0 25.6 0 0 0 0 0 0l-21.333 21.333c-8.533 8.533-21.333 8.533-25.6 0-4.267-4.267-4.267-8.533-4.267-12.8s0-8.533 4.267-12.8l21.333-21.333z" />
<glyph unicode="&#xe90d;" glyph-name="paprer_pen" d="M998.869 676.395l-46.933 46.933c-21.333 17.067-51.2 21.333-72.533 0v64c0 46.933-38.4 85.333-85.333 85.333h-546.133c-46.933 0-85.333-38.4-85.333-85.333v-678.4c0-46.933 38.4-85.333 85.333-85.333h546.133c46.933 0 85.333 38.4 85.333 85.333v371.2l119.467 119.467c17.067 21.333 17.067 55.467 0 76.8zM627.669 300.928l-81.067-25.6 25.6 81.067 55.467-55.467zM841.003 108.928c0-25.6-21.333-51.2-51.2-51.2h-546.133c-25.6 0-51.2 21.333-51.2 51.2v678.4c0 25.6 21.333 51.2 51.2 51.2h546.133c25.6 0 51.2-21.333 51.2-51.2v-98.133l-192-192c-4.267 0-4.267 4.267-8.533 4.267h-328.533c-8.533 0-17.067-8.533-17.067-17.067s8.533-17.067 17.067-17.067v0h302.933l-64-64c0 0-4.267-4.267-4.267-8.533v0l-4.267-17.067h-230.4c-8.533 0-12.8-8.533-12.8-17.067s8.533-12.8 12.8-12.8c0 0 0 0 0 0h221.867l-29.867-85.333h-192c-8.533 0-17.067-8.533-17.067-21.333 0-8.533 8.533-17.067 17.067-17.067h204.8c4.267 0 4.267 0 8.533 4.267l140.8 46.933c0 0 0 0 0 0 4.267 0 4.267 4.267 8.533 4.267l162.133 162.133 4.267-332.8zM845.269 501.461v0l-183.467-183.467-68.267 68.267 247.467 247.467 68.267-68.267-64-64zM973.269 625.195l-34.133-34.133-68.267 68.267 34.133 34.133c4.267 4.267 17.067 4.267 21.333 0l46.933-46.933c4.267-4.267 4.267-12.8 0-21.333v0zM316.203 582.528h409.6c8.533 0 17.067 8.533 17.067 21.333 0 8.533-8.533 17.067-17.067 17.067h-409.6c-8.533 0-17.067-8.533-17.067-21.333-4.267-8.533 4.267-17.067 17.067-17.067z" />
<glyph unicode="&#xe90e;" glyph-name="person_circle_outline" d="M797.867 132.267c179.2 157.867 187.733 452.267 12.8 618.667-187.733 200.533-546.133 149.333-674.133-93.867-85.333-149.333-68.267-345.6 42.667-477.867v0c149.333-187.733 448-213.333 618.667-46.933zM712.533 115.2c-136.533-85.333-332.8-72.533-452.267 38.4 89.6 209.067 413.867 209.067 503.467 0-17.067-17.067-34.133-29.867-51.2-38.4zM430.933 337.067c-81.067-25.6-149.333-81.067-192-157.867-38.4 29.867-64 64-81.067 102.4-55.467 119.467-46.933 264.533 25.6 371.2 102.4 166.4 332.8 230.4 507.733 140.8 230.4-106.667 285.867-439.467 102.4-618.667-38.4 76.8-110.933 132.267-192 157.867 51.2 29.867 81.067 85.333 85.333 145.067v0 0 0c4.267 221.867-345.6 221.867-345.6 4.267v0 0c0-46.933 17.067-89.6 51.2-119.467zM597.333 375.467c-25.6-25.6-81.067-25.6-115.2-25.6 0 4.267 0 4.267 0 0-68.267 17.067-123.733 89.6-102.4 157.867v0c42.667 209.067 358.4 76.8 247.467-98.133v0c-4.267-8.533-8.533-12.8-12.8-17.067v0z" />
<glyph unicode="&#xe90f;" glyph-name="shopping" d="M861.867 298.667l76.8 281.6c8.533 25.6-8.533 51.2-34.133 59.733-4.267 0-8.533 0-12.8 0h-68.267v128c0 8.533-8.533 17.067-17.067 17.067h-123.733v51.2c0 8.533-8.533 17.067-17.067 17.067h-140.8c-8.533 0-17.067-8.533-17.067-17.067v-89.6h-128c-12.8 0-17.067-4.267-17.067-17.067v-89.6h-85.333l-17.067 68.267c-8.533 34.133-42.667 59.733-76.8 59.733h-81.067c-8.533 0-17.067-8.533-17.067-17.067s8.533-17.067 17.067-17.067h76.8c21.333 0 38.4-12.8 42.667-34.133l128-473.6c4.267-17.067 12.8-29.867 29.867-42.667-34.133-29.867-38.4-76.8-12.8-115.2 29.867-34.133 76.8-38.4 115.2-12.8 34.133 25.6 38.4 72.533 17.067 106.667h217.6c-25.6-38.4-12.8-85.333 21.333-110.933s85.333-12.8 110.933 21.333c25.6 38.4 12.8 85.333-21.333 110.933-12.8 8.533-25.6 12.8-38.4 12.8-4.267 0-4.267 0-8.533 0h-354.133c-21.333 0-38.4 12.8-42.667 34.133l-8.533 25.6h435.2c25.6 4.267 42.667 21.333 51.2 42.667zM789.333 750.933v-106.667h-106.667v106.667h106.667zM537.6 819.2h106.667v-179.2h-106.667v179.2zM396.8 712.533h106.667v-72.533h-106.667v72.533zM473.6 119.467c0-25.6-21.333-46.933-42.667-46.933-25.6 0-46.933 21.333-46.933 42.667 0 25.6 17.067 42.667 42.667 46.933 0 0 0 0 4.267 0h4.267c21.333 0 38.4-17.067 38.4-42.667v0zM827.733 119.467c0-25.6-21.333-46.933-42.667-46.933-25.6 0-46.933 21.333-46.933 42.667 0 25.6 17.067 42.667 42.667 46.933h4.267c0 0 0 0 0 0 21.333 4.267 42.667-17.067 42.667-42.667v0zM285.867 605.867h601.6c8.533 0 12.8-4.267 12.8-12.8 0 0 0-4.267 0-4.267l-76.8-281.6c0-4.267-8.533-8.533-12.8-8.533h-439.467l-85.333 307.2z" />
<glyph unicode="&#xe910;" glyph-name="subscribe" d="M852.736 454.869c46.933 0 85.333 38.4 85.333 85.333v238.933c0 46.933-38.4 85.333-85.333 85.333h-682.667c-46.933 0-85.333-38.4-85.333-85.333v-238.933c0-46.933 38.4-85.333 85.333-85.333h426.667v-140.8c-21.333 25.6-51.2 38.4-85.333 38.4-12.8 0-25.6-4.267-38.4-8.533-17.067-12.8-29.867-29.867-29.867-51.2 0-4.267 4.267-8.533 4.267-12.8 34.133-29.867 59.733-64 85.333-98.133 21.333-34.133 46.933-64 72.533-93.867 34.133-38.4 81.067-59.733 132.267-59.733 106.667-4.267 192 76.8 200.533 179.2v106.667c0 29.867-25.6 55.467-55.467 55.467-12.8 0-29.867-8.533-38.4-12.8-21.333 17.067-42.667 25.6-72.533 8.533-8.533 17.067-34.133 34.133-64 17.067v72.533h145.067zM123.136 540.203v238.933c0 25.6 21.333 51.2 51.2 51.2h682.667c25.6 0 51.2-21.333 51.2-51.2v-238.933c0-25.6-21.333-51.2-51.2-51.2h-140.8c-4.267 64-106.667 64-110.933 0h-426.667c-34.133 4.267-55.467 25.6-55.467 51.2v0zM729.003 365.269c12.8 0 21.333-8.533 21.333-21.333v-29.867c0-8.533 8.533-17.067 17.067-17.067s17.067 8.533 17.067 17.067v17.067c0 12.8 8.533 21.333 21.333 21.333s21.333-8.533 21.333-21.333v-29.867c0-8.533 8.533-17.067 17.067-17.067s17.067 8.533 17.067 17.067v12.8c0 12.8 8.533 21.333 21.333 21.333s21.333-8.533 21.333-21.333v-106.667c-4.267-85.333-76.8-149.333-162.133-145.067-38.4 0-76.8 17.067-102.4 46.933-25.6 25.6-46.933 55.467-68.267 85.333-25.6 38.4-51.2 72.533-85.333 102.4 0 4.267 4.267 8.533 8.533 12.8 8.533 4.267 12.8 4.267 21.333 4.267 17.067 0 51.2-12.8 85.333-64 4.267-8.533 12.8-8.533 21.333-8.533 8.533 4.267 12.8 8.533 12.8 17.067v221.867c0 25.6 38.4 25.6 38.4 0v-174.933c0-8.533 8.533-17.067 17.067-17.067s17.067 8.533 17.067 17.067v29.867c4.267 21.333 12.8 29.867 21.333 29.867v0zM349.269 676.736l-25.6 12.8c-4.267 0-8.533 4.267-12.8 4.267s-4.267 4.267-8.533 4.267c-4.267 0-4.267 4.267-8.533 8.533 0 4.267-4.267 4.267 0 8.533 0 4.267 4.267 12.8 8.533 17.067s12.8 4.267 21.333 4.267c8.533 0 21.333-4.267 29.867-8.533 4.267 0 8.533-4.267 8.533-4.267s0 0 4.267 0 8.533 4.267 12.8 4.267c4.267 4.267 4.267 8.533 4.267 8.533v0c0 4.267-4.267 8.533-4.267 12.8-12.8 8.533-34.133 17.067-51.2 17.067s-34.133-4.267-46.933-17.067c-12.8-8.533-21.333-25.6-21.333-42.667 0-12.8 4.267-25.6 12.8-34.133s17.067-17.067 29.867-21.333l25.6-12.8c8.533-4.267 12.8-8.533 21.333-12.8 4.267-4.267 8.533-8.533 4.267-12.8 0-8.533-4.267-12.8-8.533-17.067-8.533-4.267-17.067-8.533-21.333-4.267-12.8 0-25.6 4.267-38.4 12.8-4.267 4.267-8.533 4.267-12.8 4.267 0 0 0 0-4.267 0s-8.533-4.267-12.8-4.267c-4.267-4.267-4.267-8.533-4.267-12.8v0c0-4.267 4.267-8.533 8.533-12.8 17.067-12.8 38.4-17.067 59.733-17.067s38.4 4.267 51.2 17.067c12.8 8.533 21.333 25.6 21.333 42.667 0 12.8-4.267 25.6-8.533 34.133-12.8 8.533-21.333 17.067-34.133 21.333zM558.336 766.336c-8.533 0-17.067-8.533-17.067-17.067v-93.867c0-12.8-4.267-29.867-8.533-42.667-8.533-8.533-17.067-12.8-29.867-12.8s-21.333 4.267-29.867 12.8c-8.533 12.8-12.8 25.6-8.533 42.667v93.867c0 12.8-8.533 21.333-21.333 21.333-4.267 0-8.533 0-12.8-4.267s-4.267-8.533-4.267-12.8v-89.6c0-59.733 25.6-93.867 76.8-93.867 21.333 0 42.667 8.533 55.467 21.333 12.8 21.333 21.333 46.933 21.333 68.267v89.6c-4.267 8.533-12.8 17.067-21.333 17.067v0zM647.936 565.803h46.933c21.333 0 38.4 4.267 55.467 12.8 12.8 8.533 21.333 25.6 21.333 42.667 0 12.8-4.267 21.333-8.533 29.867-8.533 8.533-17.067 12.8-25.6 17.067 0 0 0 0 0 0s0 0 0 0 0 0 0 0c8.533 4.267 12.8 8.533 17.067 17.067s8.533 17.067 8.533 25.6c0 34.133-25.6 46.933-72.533 46.933h-42.667c-12.8 0-21.333-8.533-21.333-21.333v-153.6c0-4.267 8.533-17.067 21.333-17.067v0zM665.003 732.203c0 0 0 0 0 0s0 0 0 0l25.6 4.267c8.533 0 17.067 0 25.6-4.267 4.267-4.267 8.533-12.8 8.533-17.067 0-8.533-4.267-12.8-8.533-17.067-8.533-4.267-17.067-8.533-25.6-8.533h-21.333c0 0-4.267 0-4.267 0s0 0 0 0v42.667zM665.003 651.136c0 0 0 4.267 0 0 0 4.267 0 4.267 0 0l25.6 4.267c12.8 0 21.333 0 29.867-8.533 8.533-4.267 12.8-12.8 8.533-21.333 0-21.333-12.8-29.867-42.667-29.867h-25.6c0 0-4.267 0-4.267 0s0 0 0 0v55.467z" />
<glyph unicode="&#xe911;" glyph-name="target" d="M605.867 439.467h-29.867c29.867 21.333 51.2 55.467 51.2 93.867 0 59.733-51.2 110.933-110.933 110.933s-110.933-51.2-110.933-110.933c0-38.4 21.333-72.533 51.2-93.867h-38.4c-59.733 0-110.933-51.2-110.933-110.933v-55.467c0-8.533 8.533-17.067 17.067-17.067h371.2c8.533 0 17.067 8.533 17.067 17.067v55.467c4.267 59.733-46.933 110.933-106.667 110.933zM512 605.867c42.667 0 72.533-34.133 72.533-72.533s-29.867-76.8-72.533-76.8v0c-42.667 0-72.533 34.133-72.533 72.533s29.867 76.8 72.533 76.8zM678.4 290.133h-332.8v34.133c0 38.4 34.133 72.533 72.533 72.533h183.467c42.667 0 72.533-34.133 72.533-72.533v-34.133zM934.4 439.467c0 4.267 4.267 4.267 4.267 8.533s0 4.267-4.267 8.533c-4.267 226.133-187.733 409.6-418.133 413.867 0 4.267 0 4.267-4.267 4.267s-4.267 0-8.533-4.267c-226.133-4.267-413.867-187.733-418.133-413.867 0-4.267 0-4.267 0-8.533s0-4.267 4.267-8.533c4.267-226.133 187.733-409.6 418.133-413.867 4.267 0 4.267-4.267 8.533-4.267 0 0 0 0 0 0 4.267 0 4.267 0 8.533 4.267 221.867 4.267 405.333 187.733 409.6 413.867zM533.333 59.733v55.467c0 8.533-8.533 21.333-21.333 21.333-4.267 0-12.8-4.267-12.8-4.267-4.267-4.267-4.267-8.533-4.267-12.8v-55.467c-196.267 8.533-354.133 170.667-366.933 366.933h55.467c4.267 0 12.8 4.267 12.8 4.267 4.267 4.267 4.267 8.533 4.267 12.8s-4.267 12.8-4.267 12.8c-4.267 4.267-8.533 4.267-12.8 4.267h-59.733c8.533 196.267 170.667 354.133 366.933 366.933v-55.467c0-8.533 8.533-21.333 21.333-21.333 8.533 0 21.333 8.533 21.333 21.333v59.733c196.267-8.533 354.133-170.667 366.933-366.933h-55.467c-4.267 0-12.8-4.267-12.8-4.267-4.267-4.267-4.267-8.533-4.267-12.8 0-8.533 8.533-21.333 21.333-21.333h55.467c-17.067-200.533-174.933-358.4-371.2-371.2z" />
<glyph unicode="&#xe912;" glyph-name="website" d="M785.067 840.533c0 0 0 0 0 0h-546.133c-85.333 0-153.6-68.267-153.6-153.6v-477.867c0-85.333 68.267-153.6 153.6-153.6h546.133c85.333 0 153.6 68.267 153.6 153.6v477.867c0 85.333-68.267 153.6-153.6 153.6zM119.467 686.933c0 64 51.2 119.467 119.467 119.467h546.133c64 0 119.467-55.467 119.467-119.467v-51.2h-785.067v51.2zM904.533 209.067c0-64-55.467-119.467-119.467-119.467h-546.133c-64 0-119.467 55.467-119.467 119.467v392.533h780.8v-392.533zM341.333 746.667c-4.267 0-12.8-4.267-17.067-8.533s-8.533-8.533-8.533-17.067c0-12.8 12.8-25.6 25.6-25.6 0 0 0 0 0 0s0 0 0 0c12.8 0 25.6 12.8 25.6 25.6s-12.8 25.6-25.6 25.6zM349.867 712.533c0 0-4.267-4.267-8.533-4.267s-8.533 4.267-8.533 8.533c0 4.267 4.267 8.533 8.533 8.533v0c4.267 0 8.533-4.267 8.533-8.533 0 0 0 0 0-4.267zM238.933 746.667c-4.267 0-12.8-4.267-17.067-8.533s-8.533-8.533-8.533-17.067c0-12.8 12.8-25.6 25.6-25.6 0 0 0 0 0 0s0 0 0 0c12.8 0 25.6 12.8 25.6 25.6s-8.533 25.6-25.6 25.6zM247.467 712.533c0 0-4.267-4.267-8.533-4.267s-8.533 4.267-8.533 8.533c0 4.267 4.267 8.533 8.533 8.533v0c4.267 0 8.533-4.267 8.533-8.533 0 0 0 0 0-4.267zM443.733 746.667c-4.267 0-12.8-4.267-17.067-8.533s-8.533-8.533-8.533-17.067c0-12.8 12.8-25.6 25.6-25.6 0 0 0 0 0 0s0 0 0 0c12.8 0 25.6 12.8 25.6 25.6s-12.8 25.6-25.6 25.6zM452.267 712.533c0 0-4.267-4.267-8.533-4.267s-8.533 4.267-8.533 8.533c0 4.267 4.267 8.533 8.533 8.533v0c4.267 0 8.533-4.267 8.533-8.533 0 0 0 0 0-4.267zM375.467 277.333c0 0 0 0 0 0 17.067 0 38.4 8.533 51.2 21.333 8.533 8.533 4.267 17.067 0 25.6-4.267 4.267-8.533 4.267-12.8 4.267s-8.533 0-12.8-4.267c-4.267-4.267-12.8-8.533-21.333-8.533 0 0 0 0 0 0-17.067 0-34.133 12.8-34.133 34.133 0 17.067 12.8 34.133 34.133 34.133 0 0 0 0 0 0 8.533 0 17.067-4.267 21.333-8.533 8.533-8.533 21.333-4.267 25.6 0 8.533 8.533 8.533 17.067 0 25.6-12.8 12.8-29.867 21.333-51.2 21.333-38.4 0-68.267-29.867-68.267-68.267-4.267-46.933 29.867-76.8 68.267-76.8zM520.533 277.333c38.4 0 68.267 29.867 68.267 68.267 0 17.067-8.533 34.133-21.333 51.2-12.8 12.8-29.867 21.333-51.2 21.333 0 0 0 0 0 0-17.067 0-34.133-8.533-51.2-21.333-12.8-12.8-21.333-29.867-21.333-51.2 8.533-38.4 38.4-68.267 76.8-68.267zM499.2 371.2c8.533 8.533 17.067 8.533 25.6 8.533 0 0 0 0 0 0 8.533 0 17.067-4.267 25.6-8.533s8.533-17.067 8.533-25.6c0-17.067-17.067-34.133-34.133-34.133s-34.133 17.067-34.133 34.133c-4.267 8.533 0 17.067 8.533 25.6zM640 277.333c8.533 0 17.067 8.533 17.067 17.067v68.267c0 8.533 8.533 17.067 17.067 17.067s17.067-8.533 17.067-17.067c0 0 0 0 0 0s0 0 0 0v-68.267c0-8.533 8.533-17.067 17.067-17.067v0c8.533 0 17.067 8.533 17.067 17.067v68.267c0 8.533 8.533 12.8 12.8 12.8s8.533 0 12.8-4.267c4.267-4.267 4.267-8.533 4.267-8.533v-68.267c0-8.533 8.533-17.067 17.067-17.067v0c8.533 0 17.067 8.533 17.067 17.067v68.267c0 29.867-25.6 51.2-51.2 51.2 0 0 0 0 0 0-12.8 0-25.6-4.267-34.133-12.8-8.533 8.533-21.333 12.8-38.4 12.8-8.533 0-12.8-4.267-21.333-4.267-4.267 0-4.267 4.267-8.533 4.267v0c-8.533 0-17.067-8.533-17.067-17.067v-102.4c4.267-8.533 12.8-17.067 21.333-17.067zM256 277.333c12.8 0 25.6 12.8 25.6 25.6 0 0 0 0 0 0 0 12.8-12.8 25.6-25.6 25.6s-25.6-12.8-25.6-25.6c0-12.8 8.533-25.6 25.6-25.6zM247.467 302.933c0 4.267 4.267 8.533 8.533 8.533s8.533-4.267 8.533-8.533c0-4.267-4.267-8.533-8.533-8.533s-8.533 4.267-8.533 8.533v0z" />
<glyph unicode="&#xe913;" glyph-name="level-0" d="M512 874.667c-234.667 0-426.667-192-426.667-426.667s192-426.667 426.667-426.667 426.667 192 426.667 426.667-192 426.667-426.667 426.667zM512 59.733c-213.333 0-388.267 174.933-388.267 388.267s174.933 388.267 388.267 388.267c213.333 0 388.267-174.933 388.267-388.267s-174.933-388.267-388.267-388.267zM708.267 588.8c0-25.921-21.013-46.933-46.933-46.933s-46.933 21.013-46.933 46.933c0 25.921 21.013 46.933 46.933 46.933s46.933-21.013 46.933-46.933zM409.6 588.8c0-25.921-21.013-46.933-46.933-46.933s-46.933 21.013-46.933 46.933c0 25.921 21.013 46.933 46.933 46.933s46.933-21.013 46.933-46.933zM712.533 358.4h-401.067c-17.067 0-29.867-12.8-29.867-29.867s12.8-29.867 29.867-29.867h405.333c17.067 0 29.867 12.8 29.867 29.867s-17.067 29.867-34.133 29.867z" />
<glyph unicode="&#xe914;" glyph-name="level-1" d="M512 874.667c-234.667 0-426.667-192-426.667-426.667s192-426.667 426.667-426.667c234.667 0 426.667 192 426.667 426.667s-192 426.667-426.667 426.667zM512 59.733c-213.333 0-388.267 174.933-388.267 388.267s174.933 388.267 388.267 388.267c213.333 0 388.267-174.933 388.267-388.267s-174.933-388.267-388.267-388.267zM708.267 588.8c0-25.921-21.013-46.933-46.933-46.933s-46.933 21.013-46.933 46.933c0 25.921 21.013 46.933 46.933 46.933s46.933-21.013 46.933-46.933zM409.6 588.8c0-25.921-21.013-46.933-46.933-46.933s-46.933 21.013-46.933 46.933c0 25.921 21.013 46.933 46.933 46.933s46.933-21.013 46.933-46.933zM733.867 384c-12.8 8.533-29.867 8.533-42.667-4.267-38.4-46.933-102.4-76.8-179.2-76.8s-140.8 29.867-179.2 76.8c-8.533 12.8-29.867 17.067-42.667 4.267-12.8-8.533-17.067-29.867-4.267-42.667 46.933-64 132.267-102.4 226.133-102.4s179.2 38.4 226.133 102.4c8.533 12.8 8.533 29.867-4.267 42.667z" />
<glyph unicode="&#xe915;" glyph-name="level-2" d="M674.133 384c-106.667-17.067-213.333-17.067-320 0-12.8 0-21.333-4.267-25.6-12.8-4.267-4.267-8.533-12.8-4.267-21.333 12.8-55.467 76.8-153.6 192-153.6s179.2 98.133 192 153.6c0 8.533 0 17.067-8.533 25.6-8.533 4.267-17.067 8.533-25.6 8.533zM512 874.667c-234.667 0-426.667-192-426.667-426.667s192-426.667 426.667-426.667c234.667 0 426.667 192 426.667 426.667s-192 426.667-426.667 426.667zM512 59.733c-213.333 0-388.267 174.933-388.267 388.267s174.933 388.267 388.267 388.267 388.267-174.933 388.267-388.267c0-213.333-174.933-388.267-388.267-388.267zM661.333 635.733c-25.6 0-46.933-21.333-46.933-46.933s21.333-46.933 46.933-46.933c25.6 0 46.933 21.333 46.933 46.933s-21.333 46.933-46.933 46.933zM362.667 537.6c25.6 0 46.933 21.333 46.933 46.933s-21.333 51.2-46.933 51.2c-25.6 0-46.933-21.333-46.933-46.933s21.333-51.2 46.933-51.2z" />
<glyph unicode="&#xe916;" glyph-name="nesl-0" d="M512 874.667c-234.667 0-426.667-192-426.667-426.667s192-426.667 426.667-426.667 426.667 192 426.667 426.667c0 234.667-192 426.667-426.667 426.667zM290.133 558.933c0 34.133 25.6 59.733 59.733 59.733s59.733-25.6 59.733-59.733c0-34.133-25.6-59.733-59.733-59.733s-59.733 29.867-59.733 59.733zM682.667 221.867c-4.267-4.267-12.8-4.267-17.067-4.267v0h-307.2c-21.333 0-38.4 17.067-38.4 38.4 0 4.267 0 12.8 4.267 17.067 0 0 0 0 0 4.267 64 102.4 200.533 132.267 307.2 68.267 25.6-17.067 51.2-42.667 68.267-68.267 0 0 0 0 0-4.267 8.533-17.067 4.267-42.667-17.067-51.2zM674.133 499.2c0 0 0 0 0 0v0c-34.133 0-59.733 25.6-59.733 59.733s25.6 59.733 59.733 59.733 59.733-25.6 59.733-59.733c0-29.867-25.6-59.733-59.733-59.733z" />
<glyph unicode="&#xe917;" glyph-name="nesl-1" d="M512 874.667c-234.667 0-426.667-192-426.667-426.667s192-426.667 426.667-426.667c234.667 0 426.667 192 426.667 426.667s-192 426.667-426.667 426.667zM290.133 558.933c0 34.133 25.6 59.733 59.733 59.733s59.733-25.6 59.733-59.733c0-34.133-25.6-59.733-59.733-59.733s-59.733 29.867-59.733 59.733zM695.467 268.8c-8.533-12.8-25.6-21.333-38.4-12.8-98.133 46.933-192 46.933-285.867 0-4.267 0-8.533-4.267-12.8-4.267-12.8 0-21.333 4.267-25.6 17.067-8.533 12.8 0 34.133 12.8 38.4 110.933 51.2 226.133 51.2 337.067 0 12.8-8.533 21.333-25.6 12.8-38.4zM674.133 499.2v0 0c-34.133 0-59.733 25.6-59.733 59.733s25.6 59.733 59.733 59.733c34.133 0 59.733-25.6 59.733-59.733 0-29.867-25.6-59.733-59.733-59.733z" />
<glyph unicode="&#xe918;" glyph-name="nesl-2" d="M512 874.667c-234.667 0-426.667-192-426.667-426.667s192-426.667 426.667-426.667 426.667 192 426.667 426.667c0 234.667-192 426.667-426.667 426.667zM674.133 618.667c34.133 0 59.733-25.6 59.733-59.733s-25.6-59.733-59.733-59.733c0 0 0 0 0 0v0c-34.133 0-59.733 25.6-59.733 59.733s25.6 59.733 59.733 59.733zM349.867 618.667c34.133 0 59.733-25.6 59.733-59.733s-25.6-59.733-59.733-59.733c-34.133 0-59.733 25.6-59.733 59.733s25.6 59.733 59.733 59.733zM712.533 268.8h-401.067c-17.067 0-29.867 12.8-29.867 29.867s12.8 29.867 29.867 29.867h405.333c17.067 0 29.867-12.8 29.867-29.867s-17.067-29.867-34.133-29.867z" />
<glyph unicode="&#xe919;" glyph-name="nesl-3" d="M512 874.667c-234.667 0-426.667-192-426.667-426.667s192-426.667 426.667-426.667 426.667 192 426.667 426.667c0 234.667-192 426.667-426.667 426.667zM290.133 558.933c0 34.133 25.6 59.733 59.733 59.733s59.733-25.6 59.733-59.733c0-34.133-25.6-59.733-59.733-59.733s-59.733 29.867-59.733 59.733zM699.733 324.267c0 0 0 0 0 0-17.067-29.867-42.667-55.467-68.267-72.533-102.4-64-238.933-34.133-307.2 68.267 0 0 0 0 0 4.267-4.267 4.267-4.267 12.8-4.267 17.067 0 21.333 17.067 38.4 38.4 38.4h307.2c4.267 0 12.8 0 17.067-4.267 21.333-8.533 25.6-34.133 17.067-51.2zM674.133 499.2c0 0 0 0 0 0v0c-34.133 0-59.733 25.6-59.733 59.733s25.6 59.733 59.733 59.733 59.733-25.6 59.733-59.733c0-29.867-25.6-59.733-59.733-59.733z" />
<glyph unicode="&#xe91a;" glyph-name="nesl-4" d="M512 874.667c-234.667 0-426.667-192-426.667-426.667s192-426.667 426.667-426.667c234.667 0 426.667 192 426.667 426.667s-192 426.667-426.667 426.667zM674.133 618.667c34.133 0 59.733-25.6 59.733-59.733s-25.6-59.733-59.733-59.733c0 0 0 0 0 0v0c-34.133 0-59.733 25.6-59.733 59.733s25.6 59.733 59.733 59.733zM349.867 618.667c34.133 0 59.733-25.6 59.733-59.733s-25.6-59.733-59.733-59.733c-34.133 0-59.733 25.6-59.733 59.733s25.6 59.733 59.733 59.733zM738.133 307.2c-46.933-64-132.267-102.4-226.133-102.4s-179.2 38.4-226.133 102.4c-8.533 12.8-8.533 29.867 4.267 42.667s29.867 8.533 42.667-4.267c38.4-46.933 102.4-76.8 179.2-76.8s140.8 29.867 179.2 76.8c8.533 12.8 29.867 17.067 42.667 4.267 12.8-8.533 12.8-29.867 4.267-42.667z" />
<glyph unicode="&#xe91b;" glyph-name="Path-2187" d="M913.067 46.933c-29.867-29.867-81.067-29.867-115.2 0l-285.867 285.867-285.867-285.867c-29.867-34.133-81.067-34.133-115.2 0-34.133 29.867-34.133 81.067 0 115.2 0 0 0 0 0 0l285.867 285.867-285.867 285.867c-34.133 29.867-34.133 81.067-4.267 115.2s81.067 34.133 115.2 4.267c4.267 0 4.267-4.267 8.533-8.533l281.6-281.6 285.867 285.867c34.133 29.867 85.333 29.867 115.2 0s29.867-81.067 0-110.933l-285.867-290.133 285.867-285.867c34.133-34.133 34.133-85.333 0-115.2z" />
<glyph unicode="&#xe91c;" glyph-name="bell" d="M844.075 247.637v0 0c-38.4 42.667-51.2 89.6-68.267 166.4-4.267 12.8-4.267 21.333-8.533 34.133s-8.533 29.867-8.533 42.667c-21.333 98.133-51.2 238.933-200.533 251.733h-89.6c-149.333-12.8-179.2-149.333-200.533-247.467-4.267-12.8-4.267-29.867-8.533-42.667-4.267-8.533-4.267-17.067-8.533-29.867v-8.533c-17.067-76.8-29.867-123.733-68.267-166.4v0 0c-29.867-4.267-51.2-29.867-51.2-59.733s21.333-59.733 55.467-59.733c0 0 4.267 0 4.267 0h221.867c0 0 0-4.267 0-4.267 0-55.467 46.933-102.4 102.4-102.4s102.4 46.933 102.4 102.4c0 0 0 4.267 0 4.267h221.867c29.867 0 59.733 21.333 59.733 55.467 0 0 0 4.267 0 4.267-4.267 34.133-25.6 59.733-55.467 59.733zM579.541 123.904c0-38.4-29.867-68.267-68.267-68.267s-68.267 29.867-68.267 68.267c0 0 0 4.267 0 4.267h140.8c-4.267 0-4.267 0-4.267-4.267v0zM835.541 162.304h-644.267c-12.8 0-25.6 12.8-25.6 25.6s12.8 25.6 25.6 25.6c4.267 0 8.533 0 12.8 4.267 46.933 51.2 64 106.667 81.067 187.733v8.533c4.267 8.533 4.267 17.067 8.533 29.867s4.267 25.6 8.533 42.667v0c21.333 98.133 46.933 213.333 166.4 221.867h85.333c123.733-8.533 149.333-123.733 170.667-221.867 4.267-17.067 8.533-29.867 8.533-42.667 4.267-8.533 4.267-21.333 8.533-29.867v-8.533c21.333-85.333 34.133-136.533 81.067-187.733 4.267-4.267 8.533-4.267 12.8-4.267 12.8 0 25.6-12.8 25.6-25.6s-12.8-25.6-25.6-25.6v0zM447.275 776.704c8.533 0 17.067 8.533 17.067 17.067 0 25.6 21.333 46.933 46.933 46.933s46.933-21.333 46.933-46.933c0-8.533 8.533-17.067 17.067-17.067s17.067 8.533 17.067 17.067c0 46.933-34.133 81.067-81.067 85.333-46.933 0-81.067-34.133-85.333-81.067 0 0 0-4.267 0-4.267 4.267-12.8 12.8-17.067 21.333-17.067z" />
<glyph unicode="&#xe91d;" glyph-name="calendar_marked" d="M809.216 796.032v0l-4.267 12.8c0 34.133-25.6 64-64 64-34.133 0-64-25.6-64-64 0 0 0 0 0 0v-12.8h-332.8v12.8c0 34.133-25.6 64-64 64-34.133 0-64-25.6-64-64 0 0 0 0 0 0v-12.8h-4.267c-72.533 0-128-59.733-128-128v0-516.267c0-72.533 59.733-128 128-128v0h588.8c72.533 0 128 59.733 128 128v0 516.267c8.533 72.533-51.2 128-119.467 128v0zM715.349 813.099c0 12.8 12.8 25.6 25.6 25.6s25.6-12.8 25.6-25.6c0 0 0 0 0 0v-68.267c0-12.8-12.8-25.6-25.6-25.6s-25.6 12.8-25.6 25.6c0 0 0 0 0 0v68.267zM258.816 813.099c0 12.8 12.8 25.6 25.6 25.6s25.6-12.8 25.6-25.6c0 0 0 0 0 0v-68.267c0-12.8-12.8-25.6-25.6-25.6s-25.6 12.8-25.6 25.6c0 0 0 0 0 0v68.267zM898.816 151.765c0-51.2-42.667-93.867-93.867-93.867h-588.8c-51.2 0-93.867 42.667-93.867 93.867v405.333h776.533v-405.333zM122.283 595.499v72.533c0 51.2 42.667 93.867 93.867 93.867h4.267v-12.8c0-34.133 25.6-64 64-64 34.133 0 64 25.6 64 64 0 0 0 0 0 0v12.8h332.8v-12.8c0-34.133 25.6-64 64-64 34.133 0 64 25.6 64 64 0 0 0 0 0 0v12.8h4.267c51.2 0 93.867-42.667 93.867-93.867v-72.533h-785.067zM246.016 463.232h128v-128h-128v128zM574.549 463.232h-128v-128h128v128zM540.416 373.632h-55.467v55.467h55.467v-55.467zM779.349 463.232h-128v-128h128v128zM740.949 373.632h-55.467v55.467h55.467v-55.467zM374.016 279.765h-128v-128h128v128zM335.616 185.899h-55.467v55.467h55.467v-55.467zM574.549 279.765h-128v-128h128v128zM540.416 185.899h-55.467v55.467h55.467v-55.467zM651.349 279.765h128v-128h-128v128z" />
<glyph unicode="&#xe91e;" glyph-name="money_circle" d="M511.573 876.416c-234.667 0-426.667-192-426.667-426.667s192-426.667 426.667-426.667c234.667 0 426.667 192 426.667 426.667s-192 426.667-426.667 426.667zM511.573 61.483c-213.333 0-384 170.667-384 384s170.667 384 384 384c213.333 0 384-170.667 384-384v0c0-209.067-170.667-384-384-384zM515.84 624.683c29.867 0 72.533-17.067 72.533-51.2 0-12.8 12.8-25.6 25.6-25.6s25.6 12.8 25.6 25.6c-4.267 55.467-46.933 98.133-102.4 98.133v25.6c0 12.8-12.8 25.6-25.6 25.6s-25.6-12.8-25.6-25.6v-29.867c-21.333-4.267-42.667-17.067-59.733-29.867-25.6-21.333-38.4-55.467-38.4-89.6 0-55.467 42.667-98.133 119.467-128 29.867-12.8 85.333-38.4 85.333-81.067 0-21.333-8.533-38.4-21.333-51.2-17.067-12.8-34.133-21.333-55.467-21.333-29.867 0-72.533 17.067-72.533 51.2 0 12.8-12.8 25.6-25.6 25.6s-25.6-12.8-25.6-25.6c4.267-55.467 46.933-98.133 102.4-98.133v-25.6c0-12.8 8.533-25.6 25.6-25.6 12.8 0 25.6 8.533 25.6 25.6 0 0 0 0 0 0v29.867c21.333 4.267 42.667 17.067 59.733 29.867 25.6 21.333 38.4 55.467 38.4 89.6 0 55.467-42.667 98.133-119.467 128-29.867 12.8-85.333 38.4-85.333 81.067 0 21.333 8.533 38.4 21.333 51.2s34.133 21.333 55.467 21.333z" />
</font>
</defs>
</svg>
