<?xml version="1.0" encoding="utf-8"?>
<!-- Generator: Adobe Illustrator 16.0.0, SVG Export Plug-In . SVG Version: 6.00 Build 0)  -->
<!DOCTYPE svg PUBLIC "-//W3C//DTD SVG 1.1//EN" "http://www.w3.org/Graphics/SVG/1.1/DTD/svg11.dtd">
<svg version="1.1" id="圖層_1" xmlns="http://www.w3.org/2000/svg" xmlns:xlink="http://www.w3.org/1999/xlink" x="0px" y="0px"
	 width="228.341px" height="20.543px" viewBox="0 0 228.341 20.543" enable-background="new 0 0 228.341 20.543"
	 xml:space="preserve">
<g>
	<g>
		<g>
			<path fill="#FFFFFF" d="M0,20.203V0.341h14.717v3.367H4.01v4.407h9.969v3.329H4.01v5.41h11.085v3.348H0z"/>
			<path fill="#FFFFFF" d="M37.557,20.203h-4.351l-1.74-4.502h-7.945l-1.627,4.502h-4.256l7.737-19.862h4.237L37.557,20.203z
				 M30.179,12.353l-2.743-7.377l-2.667,7.377H30.179z"/>
			<path fill="#FFFFFF" d="M50.087,12.901V9.553h8.645v7.907c-0.845,0.82-2.065,1.539-3.66,2.156s-3.206,0.927-4.833,0.927
				c-2.081,0-3.894-0.435-5.438-1.305s-2.705-2.115-3.48-3.736c-0.775-1.62-1.163-3.383-1.163-5.287
				c0-2.068,0.435-3.906,1.305-5.514s2.137-2.84,3.802-3.698c1.273-0.668,2.856-1.002,4.748-1.002c2.472,0,4.401,0.517,5.789,1.551
				c1.387,1.034,2.276,2.465,2.667,4.293l-3.972,0.738c-0.278-0.971-0.804-1.737-1.58-2.298c-0.776-0.561-1.744-0.841-2.904-0.841
				c-1.74,0-3.127,0.555-4.162,1.665s-1.551,2.755-1.551,4.937c0,2.358,0.523,4.127,1.57,5.306c1.047,1.179,2.415,1.769,4.105,1.769
				c0.845,0,1.689-0.167,2.535-0.501c0.845-0.334,1.57-0.734,2.175-1.201v-2.516H50.087z"/>
			<path fill="#FFFFFF" d="M63.696,20.203V0.512h4.01v16.343h9.969v3.348H63.696z"/>
			<path fill="#FFFFFF" d="M81.712,20.203V0.341h14.717v3.367H85.723v4.407h9.969v3.329h-9.969v5.41h11.085v3.348H81.712z"/>
			<path fill="#FFFFFF" d="M101.374,20.203V0.341h14.717v3.367h-10.707v4.407h9.969v3.329h-9.969v5.41h11.085v3.348H101.374z"/>
			<path fill="#FFFFFF" d="M126.238,20.203v-8.361l-7.264-11.501h4.691l4.672,7.869l4.578-7.869h4.615l-7.283,11.539v8.323H126.238z
				"/>
			<path fill="#FFFFFF" d="M140.699,20.203V0.341h14.715v3.367h-10.705v4.407h9.969v3.329h-9.969v5.41h11.084v3.348H140.699z"/>
		</g>
	</g>
	<g>
		<path fill="#FFFFFF" d="M185.356,13.241l2.629,0.662c-0.555,2.156-1.548,3.802-2.979,4.937c-1.432,1.135-3.182,1.702-5.25,1.702
			c-2.131,0-3.868-0.435-5.211-1.305s-2.364-2.131-3.064-3.783c-0.7-1.652-1.05-3.43-1.05-5.334c0-2.068,0.394-3.872,1.183-5.41
			c0.787-1.539,1.913-2.708,3.376-3.509S178.061,0,179.813,0c1.98,0,3.648,0.508,5.004,1.522c1.355,1.016,2.298,2.438,2.828,4.266
			l-2.592,0.605c-0.454-1.438-1.119-2.487-1.996-3.149c-0.876-0.662-1.977-0.993-3.301-0.993c-1.525,0-2.803,0.366-3.83,1.097
			c-1.028,0.731-1.75,1.715-2.166,2.951c-0.416,1.236-0.624,2.51-0.624,3.821c0,1.677,0.246,3.146,0.737,4.407
			c0.492,1.261,1.258,2.204,2.299,2.828c1.04,0.624,2.166,0.936,3.376,0.936c1.476,0,2.721-0.425,3.736-1.277
			C184.3,16.164,184.99,14.906,185.356,13.241z"/>
		<path fill="#FFFFFF" d="M192.188,20.202V0.34h6.848c1.538,0,2.717,0.095,3.537,0.284c1.135,0.265,2.105,0.744,2.913,1.438
			c1.047,0.883,1.828,2.011,2.346,3.386c0.517,1.375,0.775,2.945,0.775,4.71c0,1.513-0.177,2.854-0.529,4.02
			c-0.354,1.167-0.805,2.131-1.353,2.895c-0.549,0.763-1.151,1.362-1.807,1.797c-0.656,0.435-1.447,0.766-2.374,0.993
			s-1.989,0.34-3.188,0.34H192.188z M194.817,17.856h4.237c1.312,0,2.339-0.123,3.083-0.369c0.744-0.246,1.337-0.589,1.778-1.031
			c0.631-0.618,1.119-1.454,1.466-2.507c0.347-1.053,0.521-2.33,0.521-3.83c0-2.068-0.341-3.66-1.021-4.776
			s-1.514-1.863-2.497-2.242c-0.706-0.277-1.835-0.416-3.386-0.416h-4.181V17.856z"/>
		<path fill="#FFFFFF" d="M213.189,20.202V0.34h7.49c1.324,0,2.333,0.063,3.026,0.189c0.972,0.164,1.788,0.476,2.45,0.936
			c0.662,0.46,1.191,1.101,1.589,1.92c0.397,0.82,0.596,1.722,0.596,2.705c0,1.69-0.536,3.118-1.607,4.285
			c-1.072,1.167-3.015,1.75-5.826,1.75h-5.089v8.077H213.189z M215.818,9.779h5.126c1.703,0,2.91-0.315,3.623-0.946
			c0.712-0.63,1.068-1.52,1.068-2.667c0-0.832-0.208-1.542-0.624-2.128s-0.972-0.974-1.665-1.164
			c-0.441-0.126-1.255-0.189-2.439-0.189h-5.089V9.779z"/>
	</g>
</g>
</svg>
