<?xml version="1.0" encoding="utf-8"?>
<!-- Generator: Adobe Illustrator 16.0.0, SVG Export Plug-In . SVG Version: 6.00 Build 0)  -->
<!DOCTYPE svg PUBLIC "-//W3C//DTD SVG 1.1//EN" "http://www.w3.org/Graphics/SVG/1.1/DTD/svg11.dtd">
<svg version="1.1" id="圖層_1" xmlns="http://www.w3.org/2000/svg" xmlns:xlink="http://www.w3.org/1999/xlink" x="0px" y="0px"
	 width="119px" height="25px" viewBox="0 0 119 25" enable-background="new 0 0 119 25" xml:space="preserve">
<g>
	<g>
		<path fill="#FFFFFF" d="M117.868,16.291l-0.527,3.111h-6.909c-1.423,0-2.551-0.12-3.4-0.361c-0.849-0.24-1.465-0.61-1.86-1.116
			c-0.401-0.5-0.619-1.148-0.647-1.936c-0.029-0.784,0.051-1.735,0.259-2.854c0.195-1.062,0.442-1.989,0.758-2.785
			c0.306-0.796,0.757-1.461,1.343-1.989c0.585-0.532,1.345-0.925,2.283-1.183c0.947-0.257,2.145-0.383,3.603-0.383
			c1.411,0,2.536,0.117,3.367,0.356c0.836,0.236,1.462,0.601,1.863,1.088c0.411,0.486,0.636,1.096,0.687,1.832
			c0.051,0.734-0.011,1.598-0.193,2.587l-0.281,1.569h-9.741c-0.062,0.4-0.064,0.739-0.001,1.006
			c0.054,0.265,0.181,0.473,0.397,0.635c0.213,0.155,0.506,0.271,0.877,0.337c0.37,0.058,0.848,0.085,1.42,0.085H117.868z
			 M112.389,9.658c-0.572,0-1.063,0.034-1.476,0.095c-0.413,0.062-0.753,0.172-1.021,0.331c-0.269,0.16-0.483,0.376-0.633,0.654
			c-0.152,0.273-0.269,0.612-0.342,1.02l-0.028,0.158h5.975l0.027-0.158c0.075-0.408,0.086-0.747,0.046-1.02
			c-0.047-0.278-0.18-0.494-0.379-0.654c-0.2-0.159-0.484-0.269-0.837-0.331C113.361,9.692,112.919,9.658,112.389,9.658z"/>
		<path fill="#FFFFFF" d="M86.31,16.291l-0.534,3.111h-6.848c-1.431,0-2.561-0.12-3.408-0.361c-0.84-0.24-1.465-0.61-1.86-1.116
			c-0.395-0.5-0.608-1.148-0.642-1.936c-0.038-0.784,0.054-1.735,0.255-2.854c0.191-1.062,0.44-1.989,0.755-2.785
			c0.313-0.796,0.76-1.461,1.345-1.989c0.586-0.532,1.346-0.925,2.289-1.183c0.949-0.257,2.146-0.383,3.598-0.383
			c1.411,0,2.532,0.117,3.369,0.356c0.832,0.236,1.458,0.601,1.868,1.088c0.4,0.486,0.635,1.096,0.687,1.832
			c0.049,0.734-0.018,1.598-0.197,2.587l-0.284,1.569h-9.742c-0.055,0.4-0.057,0.739-0.004,1.006
			c0.058,0.265,0.191,0.473,0.408,0.635c0.206,0.155,0.497,0.271,0.868,0.337c0.379,0.058,0.85,0.085,1.429,0.085H86.31z
			 M80.886,9.658c-0.579,0-1.072,0.034-1.484,0.095c-0.413,0.062-0.755,0.172-1.013,0.331c-0.277,0.16-0.483,0.376-0.644,0.654
			c-0.15,0.273-0.26,0.612-0.342,1.02l-0.026,0.158h5.977l0.027-0.158c0.075-0.408,0.091-0.747,0.044-1.02
			c-0.045-0.278-0.171-0.494-0.371-0.654c-0.208-0.159-0.485-0.269-0.843-0.331C81.858,9.692,81.416,9.658,80.886,9.658z"/>
		<path fill="#FFFFFF" d="M88.792,21.653c0.428,0,0.814-0.026,1.155-0.078c0.334-0.06,0.651-0.145,0.933-0.282
			c0.289-0.128,0.57-0.319,0.825-0.563c0.261-0.248,0.528-0.568,0.795-0.977L88.721,7.23h4.393l2.147,8.148l5.101-8.148h4.337
			l-9.037,13.839c-0.462,0.706-0.926,1.303-1.379,1.809c-0.462,0.502-0.974,0.906-1.549,1.224c-0.566,0.316-1.219,0.55-1.942,0.684
			C90.061,24.929,89.188,25,88.184,25h-1.463l1.782-3.347H88.792z"/>
	</g>
	<path fill="#FFFFFF" d="M16.163,11.962H6.11l-0.626,3.46h10.143l-0.723,3.979H0.295L3.641,0.967h14.561l-0.723,3.987H7.384
		l-0.63,3.455h10.054L16.163,11.962z"/>
	<path fill="#FFFFFF" d="M19.347,10.191l0.554-3.077h5.94c1.278,0,2.337,0.097,3.174,0.292c0.835,0.195,1.482,0.494,1.934,0.903
		c0.454,0.406,0.739,0.918,0.85,1.538c0.112,0.616,0.089,1.36-0.07,2.226l-1.33,7.329h-8.777c-0.77,0-1.392-0.073-1.868-0.232
		c-0.476-0.147-0.84-0.375-1.086-0.687c-0.247-0.312-0.388-0.712-0.417-1.203c-0.032-0.501,0.016-1.092,0.145-1.781
		c0.124-0.695,0.286-1.261,0.489-1.71c0.201-0.451,0.479-0.815,0.834-1.091c0.353-0.273,0.793-0.467,1.317-0.584
		c0.524-0.114,1.171-0.171,1.941-0.171h4.916l0.016-0.105c0.051-0.286,0.058-0.531,0.014-0.744c-0.038-0.214-0.16-0.387-0.359-0.52
		c-0.202-0.127-0.495-0.227-0.884-0.287c-0.387-0.067-0.911-0.096-1.566-0.096H19.347z M27.045,16.582l0.415-2.277h-4.024
		c-0.419,0-0.716,0.077-0.898,0.241c-0.183,0.155-0.307,0.44-0.381,0.842c-0.083,0.45-0.062,0.755,0.06,0.938
		c0.122,0.173,0.389,0.256,0.8,0.256H27.045z"/>
	<path fill="#FFFFFF" d="M52.441,0h4.315l-3.521,19.402h-4.318L52.441,0z"/>
	<path fill="#FFFFFF" d="M69.904,16.291l-0.562,3.111h-6.818c-1.427,0-2.56-0.12-3.403-0.361c-0.845-0.24-1.465-0.61-1.863-1.116
		c-0.396-0.5-0.611-1.148-0.642-1.936c-0.034-0.784,0.051-1.735,0.256-2.854c0.189-1.062,0.443-1.989,0.757-2.785
		c0.311-0.796,0.76-1.461,1.342-1.989c0.582-0.532,1.347-0.925,2.289-1.183c0.947-0.257,2.145-0.383,3.604-0.383
		c1.402,0,2.525,0.117,3.36,0.356c0.841,0.236,1.46,0.601,1.867,1.088c0.403,0.486,0.639,1.096,0.688,1.832
		c0.051,0.734-0.016,1.598-0.193,2.587l-0.286,1.569h-9.74c-0.059,0.4-0.061,0.739-0.006,1.006c0.057,0.265,0.19,0.473,0.4,0.635
		c0.215,0.155,0.503,0.271,0.878,0.337c0.375,0.058,0.845,0.085,1.424,0.085H69.904z M64.483,9.658c-0.58,0-1.071,0.034-1.482,0.095
		c-0.41,0.062-0.752,0.172-1.015,0.331c-0.275,0.16-0.485,0.376-0.641,0.654c-0.151,0.273-0.267,0.612-0.34,1.02l-0.029,0.158h5.976
		l0.026-0.158c0.082-0.408,0.091-0.747,0.042-1.02c-0.046-0.278-0.169-0.494-0.372-0.654c-0.198-0.159-0.482-0.269-0.844-0.331
		C65.454,9.692,65.012,9.658,64.483,9.658z"/>
	<path fill="#FFFFFF" d="M47.625,9.558c0.425-2.327-1.762-2.443-1.762-2.443h-5.077c-1.183,0-2.195,0.101-3.03,0.306
		c-0.838,0.199-1.538,0.541-2.108,1.018c-0.563,0.482-1.022,1.108-1.371,1.887c-0.351,0.779-0.629,1.734-0.83,2.867
		c-0.207,1.132-0.278,2.075-0.208,2.85c0.067,0.772,0.297,1.39,0.691,1.857c0.397,0.467,0.975,0.806,1.74,1.004
		c0.761,0.211,1.735,0.311,2.919,0.311h3.208l-0.147,0.825c-0.105,0.564-0.353,0.975-0.75,1.221
		c-0.396,0.245-1.004,0.369-1.821,0.369h-4.791L32.51,25h5.934c1.183,0,2.2-0.093,3.049-0.267c0.846-0.177,1.56-0.461,2.134-0.852
		c0.575-0.389,1.025-0.889,1.354-1.512c0.33-0.617,0.575-1.378,0.736-2.281l1.915-10.54L47.625,9.558z M42.399,15.896h-3.277
		c-0.402,0-0.73-0.044-0.985-0.129c-0.257-0.091-0.447-0.237-0.572-0.439c-0.121-0.206-0.184-0.479-0.184-0.808
		c-0.003-0.339,0.039-0.755,0.126-1.249c0.181-0.991,0.457-1.683,0.823-2.073c0.366-0.386,0.947-0.58,1.75-0.58h3.281L42.399,15.896
		z"/>
</g>
</svg>
